{"glyphs":{"0":{"ha":947,"x_min":99,"x_max":856,"o":"m 440 183 q 348 233 383 190 q 297 335 313 275 q 283 461 281 394 q 306 583 286 528 q 364 671 326 638 q 456 697 401 704 q 541 648 507 690 q 592 547 575 606 q 609 421 610 488 q 590 299 608 354 q 534 210 571 244 q 440 183 497 176 m 444 979 q 305 940 365 981 q 204 830 244 899 q 142 674 164 761 q 119 494 121 586 q 137 315 118 403 q 194 157 156 226 q 292 44 233 88 q 432 0 351 1 q 578 40 515 -1 q 682 150 640 82 q 744 306 724 218 q 766 485 765 393 q 746 665 767 576 q 685 822 725 753 q 585 935 644 892 q 444 979 525 978 m 444 1000 q 574 965 517 997 q 672 878 631 933 q 752 794 718 844 q 809 684 786 744 q 844 555 832 624 q 856 417 856 486 q 833 230 856 321 q 767 67 811 139 q 657 -48 724 -4 q 501 -90 590 -92 q 373 -56 429 -89 q 276 29 317 -24 q 199 110 232 61 q 143 219 165 160 q 110 345 121 278 q 99 482 99 413 q 120 673 99 579 q 185 840 142 767 q 294 957 229 913 q 444 1000 358 1001 m 443 204 q 508 217 481 200 q 553 265 535 233 q 580 338 571 296 q 589 424 589 379 q 578 517 589 471 q 549 600 568 564 q 535 604 542 603 q 522 607 529 606 q 458 592 486 611 q 410 540 429 574 q 382 463 392 507 q 372 372 372 418 q 381 288 372 329 q 407 214 389 247 q 424 208 415 211 q 443 204 432 206 z "},"1":{"ha":714,"x_min":69,"x_max":639,"o":"m 306 942 q 257 881 286 921 q 199 795 228 840 q 144 706 169 750 q 107 635 119 663 q 91 551 88 589 q 115 492 94 513 q 168 476 135 472 q 243 521 201 481 q 271 548 258 536 q 294 569 283 560 q 303 444 299 508 q 313 320 308 381 q 321 205 317 260 q 328 106 325 150 q 357 29 331 57 q 415 0 383 1 q 473 24 446 -1 q 506 107 500 50 q 513 211 510 150 q 520 342 517 272 q 527 488 524 413 q 534 633 531 563 q 541 767 538 704 q 549 875 544 829 q 524 940 551 914 q 456 975 496 965 q 374 976 417 985 q 306 942 332 968 m 290 956 q 344 990 313 979 q 411 1001 376 1001 q 501 977 458 1001 q 560 913 543 953 q 615 868 593 896 q 639 804 638 840 q 633 727 636 771 q 628 633 631 683 q 624 530 626 583 q 618 424 621 476 q 613 312 615 367 q 607 206 610 257 q 601 112 604 156 q 596 36 599 68 q 557 -58 589 -26 q 489 -90 525 -90 q 431 -71 458 -90 q 388 -15 403 -51 q 333 26 356 -4 q 307 104 310 56 q 301 176 304 138 q 296 260 299 215 q 290 334 293 300 q 285 403 288 368 q 225 385 253 385 q 172 403 193 385 q 143 454 150 422 q 89 488 108 460 q 69 560 69 515 q 88 643 69 603 q 125 715 100 671 q 181 806 150 760 q 240 893 211 851 q 290 956 269 935 z "},"2":{"ha":965,"x_min":94,"x_max":872,"o":"m 696 258 q 580 207 642 226 q 464 180 518 188 q 368 174 410 172 q 311 185 326 175 q 313 214 289 197 q 386 253 338 231 q 498 307 435 275 q 619 383 561 339 q 717 485 676 426 q 761 621 757 543 q 727 794 765 714 q 621 924 689 875 q 462 980 553 972 q 269 933 371 988 q 160 851 196 894 q 117 769 125 808 q 124 697 110 729 q 165 647 139 664 q 225 631 192 629 q 289 664 258 633 q 397 738 349 724 q 481 737 446 751 q 538 687 517 722 q 563 614 558 651 q 536 535 567 569 q 456 467 506 500 q 348 403 407 435 q 238 331 289 371 q 153 243 188 292 q 119 129 119 194 q 158 60 119 86 q 257 19 197 33 q 388 2 317 6 q 523 2 458 -1 q 637 15 588 6 q 703 35 686 24 q 770 108 754 64 q 779 192 786 153 q 748 253 772 231 q 696 258 724 275 m 685 276 q 749 276 718 296 q 794 215 779 256 q 849 176 826 210 q 872 94 872 142 q 851 15 872 54 q 782 -53 831 -25 l 783 -51 q 747 -65 772 -58 q 685 -78 721 -72 q 608 -87 650 -83 q 521 -90 565 -90 q 407 -84 464 -90 q 302 -65 350 -78 q 220 -29 254 -51 q 174 26 186 -7 q 119 69 139 44 q 99 129 99 94 q 122 231 99 186 q 184 313 146 276 q 269 380 222 350 q 364 438 317 410 q 433 478 400 458 q 492 520 467 499 q 531 564 517 542 q 542 611 544 586 q 532 651 539 632 q 522 653 526 653 q 510 654 517 654 q 448 637 482 654 q 374 579 414 619 q 331 550 354 560 q 286 540 308 540 q 220 561 250 540 q 175 618 190 582 q 117 665 140 632 q 94 743 94 699 q 131 847 94 792 q 260 951 168 903 q 444 1001 357 1001 q 586 965 522 1001 q 696 869 650 929 q 759 808 731 843 q 808 731 788 772 q 839 643 828 689 q 851 550 850 597 q 824 452 846 497 q 767 368 801 407 q 692 297 733 329 q 608 239 651 265 q 647 256 628 247 q 685 276 665 265 z "},"3":{"ha":954,"x_min":92,"x_max":864,"o":"m 651 488 q 682 524 665 504 q 713 568 699 544 q 735 619 726 592 q 744 676 744 646 q 725 799 744 743 q 667 897 706 856 q 567 960 628 938 q 422 983 506 983 q 255 951 326 983 q 135 861 183 919 q 113 792 111 829 q 133 730 115 756 q 182 697 151 704 q 246 718 213 690 q 331 759 285 746 q 418 768 378 772 q 486 742 458 764 q 515 678 514 721 q 503 597 517 626 q 469 553 490 568 q 423 532 449 538 q 375 521 397 526 q 338 507 353 515 q 321 478 322 499 q 337 440 319 450 q 381 425 354 429 q 439 417 407 421 q 498 401 471 414 q 543 359 525 388 q 561 276 561 331 q 528 197 561 225 q 449 165 496 169 q 349 181 401 161 q 257 244 296 200 q 208 267 235 269 q 164 242 182 264 q 144 186 146 221 q 171 113 143 151 q 290 28 219 58 q 451 -1 360 -1 q 596 19 535 -1 q 697 77 657 40 q 755 165 736 114 q 772 278 774 217 q 761 342 772 310 q 733 401 750 374 q 694 451 715 429 q 651 488 672 474 m 422 1004 q 599 970 528 1004 q 710 876 669 936 q 803 763 774 832 q 835 607 833 694 q 808 501 835 546 q 750 421 781 456 q 791 381 771 404 q 826 329 811 357 q 852 270 842 301 q 863 208 863 239 q 844 87 864 142 q 782 -8 824 32 q 675 -69 740 -47 q 521 -92 610 -92 q 350 -61 424 -92 q 228 26 276 -31 q 222 35 225 31 q 217 43 219 39 q 185 67 200 54 q 158 96 171 81 q 124 186 124 147 q 150 259 124 231 q 211 288 176 288 q 272 258 244 288 q 349 203 306 221 q 432 185 392 185 q 508 208 476 185 q 540 276 540 232 q 539 299 540 289 q 535 319 538 310 q 505 326 519 324 q 476 331 490 328 q 435 337 454 333 q 401 348 415 340 q 378 369 386 356 q 369 406 369 382 q 318 426 338 411 q 300 478 299 440 q 327 526 301 515 q 386 544 353 538 q 424 554 404 549 q 460 574 444 560 q 486 612 476 588 q 494 676 496 636 q 482 678 488 678 q 469 679 476 679 q 397 667 435 679 q 328 632 360 656 q 263 607 297 607 q 206 627 231 607 q 169 679 181 647 q 114 722 136 690 q 92 794 92 754 q 118 874 92 838 q 246 970 169 936 q 422 1004 322 1004 z "},"4":{"ha":939,"x_min":90,"x_max":849,"o":"m 663 492 q 615 460 644 476 q 550 433 586 444 q 550 501 553 469 q 540 554 547 532 q 501 608 526 592 q 449 624 475 625 q 406 605 424 622 q 392 558 389 588 q 392 431 399 493 q 329 469 346 444 q 313 526 313 493 q 326 598 314 558 q 351 681 338 638 q 372 770 364 724 q 371 863 379 817 q 338 926 364 900 q 277 965 311 951 q 208 979 243 978 q 147 970 172 981 q 113 939 122 960 q 124 886 104 918 q 151 802 147 847 q 149 710 154 757 q 132 615 143 663 q 116 520 121 567 q 117 432 111 474 q 149 355 122 390 q 227 293 175 319 q 367 253 279 267 q 353 175 358 211 q 350 111 347 139 q 372 48 353 72 q 419 12 392 24 q 476 0 446 0 q 527 11 506 0 q 559 44 549 22 q 557 96 569 65 q 543 167 546 126 q 542 253 540 207 q 639 283 594 264 q 710 328 683 303 q 753 393 743 354 q 754 462 763 432 q 722 504 746 492 q 663 492 697 517 m 650 508 q 704 529 679 529 q 750 509 732 529 q 775 460 768 489 q 828 429 808 458 q 849 361 849 400 q 835 297 849 329 q 793 242 821 265 l 793 243 q 725 197 765 217 q 632 165 685 176 q 633 92 631 124 q 646 33 636 60 l 646 35 q 654 -18 658 6 q 635 -58 650 -42 q 595 -82 619 -74 q 544 -90 571 -90 q 465 -70 504 -90 q 408 -7 425 -50 q 354 35 376 7 q 329 110 332 64 q 328 146 326 126 q 333 186 331 165 q 242 232 276 206 q 189 290 208 258 q 113 372 132 325 q 93 475 93 419 q 99 549 93 513 q 113 624 106 586 q 126 699 119 661 q 132 768 132 736 q 126 824 132 797 q 106 876 121 851 l 106 875 q 90 925 90 901 q 123 981 90 963 q 200 1000 156 1000 q 251 994 225 1000 q 302 975 278 988 q 347 944 326 963 q 379 901 367 925 q 431 859 408 885 q 461 797 454 833 q 465 746 465 774 q 461 697 465 722 q 450 644 457 671 l 453 644 q 510 626 482 644 q 556 569 539 608 q 599 542 579 561 q 629 492 618 524 l 629 490 q 640 499 635 494 q 649 507 644 503 l 650 508 z "},"5":{"ha":947,"x_min":85,"x_max":869,"o":"m 664 718 q 740 721 710 701 q 777 776 769 740 q 765 856 785 813 q 690 928 744 899 q 613 957 663 943 q 506 977 564 971 q 389 979 449 983 q 281 954 329 975 q 200 892 232 933 q 167 783 168 850 q 167 727 165 763 q 170 652 168 692 q 176 574 172 613 q 182 508 179 535 q 206 468 181 481 q 268 448 231 456 q 351 433 306 440 q 434 410 396 426 q 498 363 472 393 q 524 278 524 332 q 491 198 524 226 q 411 165 458 169 q 311 181 364 161 q 219 246 258 201 q 169 268 196 271 q 124 243 142 265 q 106 186 107 221 q 132 113 104 151 q 251 29 181 58 q 414 0 322 0 q 558 21 497 0 q 659 78 619 42 q 717 166 699 115 q 735 278 736 217 q 726 335 735 307 q 702 388 717 363 q 669 435 688 414 q 633 474 651 457 q 506 540 578 518 q 368 565 435 561 q 369 618 368 588 q 372 681 371 649 q 374 743 374 714 q 372 792 374 772 q 398 815 369 817 q 470 797 426 813 q 566 758 514 781 q 664 718 618 735 m 726 629 q 681 647 704 638 q 633 667 657 656 q 571 692 601 679 q 516 714 540 706 q 477 726 492 722 q 463 724 463 729 q 464 657 465 699 q 461 574 463 615 q 558 542 510 563 q 646 489 606 521 q 672 463 658 478 q 696 433 685 449 q 706 426 701 431 q 715 419 710 422 q 790 327 756 383 q 825 208 824 271 q 806 88 826 143 q 744 -6 786 33 q 638 -68 703 -46 q 483 -90 572 -90 q 313 -59 388 -90 q 185 32 238 -28 l 172 49 q 115 101 140 72 q 92 146 99 125 q 85 186 85 167 q 112 260 85 231 q 174 289 139 289 q 235 260 207 289 q 311 204 268 222 q 394 186 354 186 q 471 209 439 186 q 503 278 503 232 q 496 318 503 300 q 436 338 468 331 q 374 350 404 344 l 375 350 q 320 360 346 354 q 274 374 294 365 q 242 397 254 383 q 231 433 231 411 q 180 458 199 443 q 161 506 161 474 q 155 573 158 533 q 149 653 151 613 q 146 728 147 693 q 146 785 144 764 l 146 783 q 172 890 147 847 q 238 957 197 932 q 329 992 278 982 q 435 1003 381 1003 q 513 998 474 1003 q 588 985 553 993 q 651 966 622 976 q 700 946 681 956 q 779 869 756 915 q 848 802 826 840 q 869 728 869 764 q 859 677 869 700 q 830 640 849 654 q 785 621 811 625 q 726 629 758 617 z "},"6":{"ha":929,"x_min":76,"x_max":850,"o":"m 296 318 q 317 399 296 367 q 367 449 338 432 q 433 465 397 465 q 499 448 468 465 q 551 397 529 431 q 574 311 572 363 q 553 240 574 268 q 501 197 532 211 q 433 184 469 183 q 367 200 397 185 q 316 244 336 215 q 296 318 296 274 m 331 603 q 368 680 344 644 q 426 741 392 715 q 506 781 460 767 q 614 794 553 794 q 696 824 665 794 q 728 890 726 854 q 697 953 729 925 q 594 981 665 982 q 270 859 392 976 q 113 518 149 742 q 106 467 110 499 q 99 399 101 436 q 97 324 97 363 q 103 250 97 285 q 145 138 113 185 q 223 60 178 90 q 322 15 268 29 q 428 0 375 0 q 533 15 475 0 q 640 63 590 29 q 725 152 690 96 q 760 292 760 208 q 719 459 760 390 q 617 566 679 528 q 478 613 554 604 q 331 603 401 622 m 594 1001 q 698 978 661 1003 q 744 919 735 954 q 800 878 782 904 q 818 822 818 851 q 809 780 818 801 q 782 742 800 758 q 739 715 764 725 q 683 704 714 704 q 565 685 614 704 q 483 633 517 667 q 635 604 567 636 q 751 515 703 572 q 824 383 799 458 q 850 222 850 307 q 813 74 850 133 q 724 -23 776 14 q 609 -75 671 -60 q 497 -90 547 -90 q 334 -57 414 -90 q 203 47 254 -24 q 126 130 158 81 q 82 247 93 179 q 78 290 79 267 q 76 336 76 313 q 82 443 76 393 q 92 521 88 493 q 257 876 131 754 q 594 1001 383 997 m 386 249 q 390 211 386 228 q 438 204 410 204 q 515 231 479 204 q 553 310 551 257 q 540 368 550 343 q 503 375 519 375 q 423 343 458 375 q 386 249 388 311 z "},"7":{"ha":826,"x_min":57,"x_max":756,"o":"m 458 943 q 310 840 390 876 q 150 778 231 804 q 88 727 103 763 q 83 658 72 692 q 131 601 94 624 q 224 590 167 579 q 263 599 239 593 q 310 612 286 606 q 353 624 333 618 q 382 633 374 631 q 378 542 379 589 q 376 447 376 494 q 346 443 360 447 q 301 404 314 432 q 290 349 288 376 q 306 301 292 321 q 343 290 319 282 q 376 300 360 296 q 381 194 378 244 q 392 101 385 143 q 429 26 399 53 q 493 -2 460 0 q 551 19 526 -4 q 569 92 575 42 q 564 185 564 140 q 565 272 564 229 q 582 272 574 271 q 599 274 590 272 q 633 303 622 278 q 644 356 644 328 q 634 403 644 383 q 606 418 624 424 q 591 414 599 415 q 576 411 583 413 q 622 658 594 549 q 663 854 650 767 q 647 912 667 883 q 594 957 626 940 q 526 973 563 974 q 458 943 489 972 m 443 958 q 485 986 463 978 q 532 994 508 994 q 613 968 575 994 q 671 906 651 942 q 731 851 707 886 q 753 782 756 817 q 739 700 749 746 q 719 615 729 654 q 694 497 707 560 q 671 367 682 433 q 718 345 701 371 q 735 286 735 319 q 719 222 735 253 q 672 183 704 190 q 664 181 664 182 q 656 182 664 181 q 655 157 656 169 q 654 132 654 144 q 656 80 654 107 q 660 25 657 53 q 637 -65 665 -36 q 568 -93 608 -93 q 502 -73 535 -93 q 453 -14 469 -53 q 400 26 422 -3 q 371 99 378 54 l 371 97 q 362 156 365 125 q 357 222 358 186 q 338 268 342 242 q 288 291 307 264 q 268 356 268 318 q 285 420 268 389 q 340 463 301 451 q 347 466 347 465 q 356 467 347 467 q 355 491 356 479 q 356 514 354 503 q 324 506 339 510 q 297 500 308 503 q 191 513 232 489 q 135 576 150 538 q 77 622 97 592 q 57 688 57 653 q 78 752 57 722 q 143 797 99 782 q 221 824 182 810 q 298 858 260 839 q 373 901 336 876 q 443 958 410 925 z "},"8":{"ha":885,"x_min":47,"x_max":828,"o":"m 261 296 q 279 377 260 344 q 329 427 299 410 q 396 445 360 444 q 463 431 432 446 q 515 386 494 417 q 536 308 536 356 q 516 233 536 264 q 465 187 496 203 q 399 169 435 171 q 332 181 363 168 q 281 223 301 194 q 261 296 261 251 m 533 708 q 512 649 532 672 q 463 616 492 626 q 399 606 433 606 q 336 617 365 606 q 288 651 307 629 q 267 703 268 672 q 285 764 265 739 q 335 802 306 789 q 401 816 365 815 q 466 805 436 817 q 515 769 496 793 q 533 708 535 744 m 729 339 q 699 456 722 407 q 639 539 675 506 q 700 619 678 572 q 719 726 722 665 q 688 847 717 797 q 613 926 658 896 q 511 969 568 957 q 396 981 454 982 q 281 962 338 978 q 181 914 225 946 q 112 832 138 882 q 89 713 86 782 q 114 608 92 653 q 172 531 136 563 q 97 434 125 492 q 75 293 68 376 q 115 153 82 211 q 198 60 149 96 q 308 10 247 25 q 429 1 368 -4 q 548 32 490 7 q 648 100 606 57 q 713 203 690 143 q 729 339 736 263 m 819 271 q 799 117 828 185 q 719 4 771 50 q 601 -66 668 -42 q 464 -90 533 -90 q 310 -58 383 -90 q 188 42 236 -25 q 97 141 133 79 q 54 292 61 203 q 72 432 47 374 q 140 532 96 490 q 90 610 108 565 q 68 711 71 654 q 92 840 65 786 q 166 930 119 894 q 272 982 213 965 q 394 1001 332 999 q 482 997 438 1003 q 566 974 526 990 q 639 933 606 958 q 696 874 672 908 q 776 788 744 840 q 810 658 807 735 q 794 551 813 596 q 739 469 775 506 q 793 385 772 433 q 819 271 814 336 m 351 226 q 356 196 351 208 q 393 190 371 190 q 438 198 415 190 q 477 220 460 206 q 505 257 494 235 q 515 308 515 279 q 508 349 515 328 q 471 356 488 356 q 426 347 447 356 q 388 323 404 339 q 360 283 371 307 q 351 226 350 258 m 513 710 q 512 715 513 713 q 511 719 511 717 q 492 724 501 722 q 474 725 483 725 q 431 719 451 725 q 393 702 410 714 q 367 674 376 690 q 357 635 357 657 l 357 632 q 401 626 375 626 q 442 631 422 626 q 476 647 461 636 q 502 673 492 657 q 513 710 513 689 z "},"9":{"ha":932,"x_min":69,"x_max":851,"o":"m 286 650 q 300 724 282 693 q 348 772 318 756 q 413 791 378 789 q 481 781 449 793 q 536 740 514 768 q 563 669 558 713 q 549 587 567 621 q 503 533 532 553 q 440 510 475 514 q 374 521 406 507 q 317 567 342 535 q 286 650 293 599 m 757 657 q 714 807 750 744 q 626 908 678 869 q 514 963 574 947 q 401 975 454 979 q 299 951 354 971 q 196 892 243 931 q 120 795 149 854 q 99 654 92 736 q 154 489 107 554 q 269 392 201 424 q 414 359 336 360 q 561 386 492 358 q 533 297 551 338 q 482 229 514 257 q 403 189 450 201 q 292 183 357 176 q 233 175 257 188 q 197 142 208 163 q 186 97 185 122 q 203 51 188 72 q 249 15 218 29 q 328 0 281 0 q 533 43 447 -1 q 673 172 619 88 q 747 378 726 256 q 757 657 768 501 m 847 589 q 851 483 851 535 q 824 240 851 347 q 739 59 796 133 q 597 -53 682 -15 q 397 -90 511 -92 q 291 -64 329 -89 q 240 -4 253 -39 q 183 42 201 13 q 165 101 165 71 q 199 177 165 144 q 294 204 233 210 l 293 204 q 315 202 304 203 q 336 201 326 201 q 428 219 390 201 q 490 268 467 236 l 489 268 q 334 301 408 268 q 211 401 260 333 q 122 502 158 440 q 78 653 85 564 q 100 803 69 740 q 181 908 131 867 q 290 969 231 949 q 400 996 350 990 q 570 977 492 1007 q 708 890 649 947 q 804 754 768 833 q 847 589 840 675 m 376 583 q 381 558 378 569 q 389 538 385 547 q 428 531 404 531 q 472 540 450 531 q 510 566 494 549 q 535 609 526 583 q 542 668 544 635 q 536 694 539 685 q 494 701 515 701 q 449 694 471 701 q 410 671 426 686 q 383 633 393 656 q 376 582 374 611 l 376 583 z "}," ":{"ha":347,"x_min":0,"x_max":0,"o":""}," ":{"ha":347,"x_min":0,"x_max":0,"o":""},"D":{"ha":851,"x_min":17,"x_max":831,"o":"m 400 193 q 399 196 399 194 q 365 302 375 247 q 351 415 354 357 q 349 531 347 472 q 353 646 351 589 q 448 599 404 636 q 511 488 492 563 q 527 371 529 421 q 508 285 525 321 q 463 226 492 249 q 400 193 435 203 m 708 603 q 597 816 668 732 q 443 941 526 900 q 271 980 360 982 q 106 933 182 978 q 51 874 67 911 q 38 795 36 836 q 53 714 39 754 q 89 644 68 674 q 133 603 110 615 q 174 604 156 590 q 191 616 182 611 q 210 626 200 621 q 174 428 192 528 q 161 238 156 329 q 138 257 149 247 q 115 278 126 267 q 80 299 96 299 q 55 286 64 299 q 44 253 46 274 q 51 215 42 233 q 151 88 90 140 q 285 15 213 36 q 436 4 358 -7 q 588 68 514 15 q 694 190 660 119 q 736 335 728 261 q 735 481 744 410 q 708 603 725 551 m 797 539 q 820 442 810 496 q 831 331 831 389 q 823 237 831 285 q 797 143 815 189 q 747 56 778 97 q 669 -18 715 15 q 562 -73 617 -56 q 453 -90 507 -90 q 287 -50 365 -90 q 150 63 208 -10 q 85 126 115 90 q 33 206 56 161 q 24 244 24 224 q 30 281 24 264 q 49 308 36 297 q 79 319 63 319 q 131 292 103 319 q 133 288 132 289 q 135 286 133 286 q 139 283 136 285 q 151 407 142 342 q 171 535 160 472 q 131 585 149 557 q 90 617 110 594 q 53 669 69 639 q 26 733 36 699 q 17 804 17 768 q 34 888 17 849 q 94 951 51 926 q 279 1000 179 1000 q 452 959 367 1000 q 608 835 538 918 q 717 713 668 786 q 797 540 765 640 l 797 539 m 492 482 q 481 513 488 499 q 468 539 475 526 q 456 544 461 542 q 443 550 450 547 q 442 531 443 540 q 442 513 442 522 q 440 460 440 486 q 439 408 439 435 q 442 324 439 365 q 453 243 444 283 q 491 299 476 265 q 506 379 506 332 q 492 482 506 431 z "},"E":{"ha":829,"x_min":11,"x_max":813,"o":"m 606 271 q 551 227 582 246 q 483 196 519 208 q 406 177 446 183 q 329 171 367 171 q 313 248 318 208 q 306 328 308 288 q 372 318 342 319 q 421 322 403 317 q 466 348 449 329 q 491 390 483 367 q 497 440 499 414 q 488 485 496 465 q 464 517 479 506 q 428 526 449 529 q 357 516 388 519 q 303 513 326 513 q 300 627 303 569 q 288 743 297 685 q 359 732 324 742 q 427 708 394 722 q 487 676 460 693 q 535 640 514 658 q 615 597 578 600 q 677 616 651 594 q 715 678 703 638 q 721 763 728 718 q 685 853 714 808 q 603 932 657 899 q 600 933 601 933 q 435 981 519 975 q 274 960 350 986 q 135 879 197 933 q 38 747 72 825 q 31 709 29 729 q 41 675 32 689 q 66 660 50 661 q 103 678 82 658 q 122 694 113 686 q 143 708 132 701 q 133 538 144 617 q 108 385 121 458 q 92 244 96 313 q 107 104 88 175 q 128 65 113 82 q 129 64 129 65 q 192 23 150 38 q 288 3 235 8 q 401 1 342 -3 q 515 18 460 6 q 614 50 569 31 q 683 96 658 69 q 718 174 714 129 q 708 251 722 218 q 667 295 694 285 q 606 271 639 306 m 590 285 q 654 317 621 317 q 701 297 681 317 q 732 246 721 278 q 788 206 767 242 q 810 124 810 169 q 801 67 810 96 q 768 13 792 38 q 707 -31 746 -11 q 621 -63 668 -50 q 521 -83 574 -76 q 418 -90 468 -90 q 277 -72 342 -90 q 181 -17 213 -54 q 161 15 169 -3 q 133 32 146 22 q 111 53 121 42 q 88 99 94 72 q 74 162 78 131 q 71 225 71 193 q 78 328 71 278 q 94 431 85 378 q 107 501 101 465 q 117 574 113 536 q 92 600 101 582 q 81 640 82 618 q 67 639 75 639 q 38 650 50 639 q 18 678 25 661 q 11 717 11 696 q 18 756 11 738 q 86 855 44 810 q 179 933 128 900 q 288 985 231 967 q 406 1003 346 1003 q 613 950 513 1003 q 662 913 640 933 q 699 869 683 892 q 786 772 760 828 q 813 663 813 715 q 804 602 813 631 q 780 553 796 574 q 742 519 764 532 q 694 507 721 507 q 590 556 646 507 q 498 613 554 585 q 382 650 442 642 q 388 595 385 622 q 392 542 390 568 q 406 544 399 543 q 424 547 414 544 q 480 532 457 553 q 513 478 503 511 q 567 441 547 475 q 588 365 588 407 q 566 284 588 324 q 496 232 544 244 l 496 233 q 397 232 457 222 q 398 215 397 224 q 400 196 399 206 q 508 227 457 206 q 590 285 558 249 z "},"F":{"ha":838,"x_min":15,"x_max":818,"o":"m 608 931 q 606 932 607 932 q 604 933 606 932 q 440 980 525 975 q 279 958 356 985 q 140 878 203 932 q 43 747 78 824 q 36 708 35 728 q 47 674 38 688 q 72 659 56 661 q 108 676 88 657 q 128 693 118 686 q 149 707 138 700 q 145 575 151 636 q 129 456 139 514 q 107 463 117 457 q 72 460 89 471 q 45 428 54 449 q 38 382 36 407 q 58 336 39 357 q 79 319 67 326 q 107 304 92 311 q 101 203 101 253 q 113 103 101 154 q 145 42 119 65 q 203 8 171 18 q 268 0 235 -1 q 326 14 301 1 q 363 48 351 26 q 360 100 374 69 q 332 178 342 138 q 317 264 322 219 q 385 263 356 261 q 429 268 415 265 q 492 312 471 279 q 515 379 513 344 q 501 439 517 414 q 454 458 485 464 q 382 449 419 451 q 308 444 344 446 q 307 592 308 517 q 293 742 306 667 q 365 731 329 740 q 433 706 400 721 q 492 674 465 692 q 539 639 519 657 q 619 597 582 600 q 682 615 656 593 q 720 676 708 636 q 726 762 732 717 q 691 852 719 807 q 608 931 663 897 m 617 949 q 619 948 618 949 q 621 947 619 947 q 619 949 621 947 q 669 910 647 931 q 706 868 690 890 q 792 770 765 826 q 818 661 818 714 q 809 601 818 629 q 785 551 800 572 q 747 518 769 531 q 699 506 725 506 q 649 517 675 506 q 594 554 622 528 q 506 613 561 585 q 388 649 450 640 q 395 560 393 604 q 399 471 397 515 q 424 475 411 474 q 450 479 438 476 q 506 465 485 486 q 533 411 526 443 q 587 382 568 410 q 606 317 606 354 q 581 233 606 275 q 503 178 556 192 q 474 174 493 175 q 426 172 454 172 q 419 172 417 172 q 410 172 421 171 q 449 39 421 99 q 457 -15 463 8 q 433 -56 451 -39 q 388 -81 415 -72 q 328 -90 360 -90 q 238 -67 282 -90 q 171 0 193 -44 q 122 40 143 15 q 92 99 100 64 q 83 156 85 126 q 81 214 81 186 q 85 292 81 254 q 62 306 74 299 q 43 322 50 314 q 15 390 15 354 q 24 432 15 413 q 46 465 32 451 q 77 483 60 478 q 111 482 94 489 q 117 526 114 503 q 122 574 119 550 q 96 599 106 581 q 85 640 86 617 q 72 639 81 639 q 42 650 54 639 q 22 678 29 661 q 15 716 15 696 q 24 756 15 736 q 91 859 50 814 q 183 936 132 904 q 293 985 235 968 q 413 1001 351 1001 q 615 950 513 1001 q 613 951 614 950 q 608 951 611 951 l 617 949 m 689 879 l 686 879 q 685 881 686 881 q 689 879 686 879 m 617 949 q 615 950 617 949 q 619 949 617 949 l 617 949 z "},"G":{"ha":858,"x_min":15,"x_max":846,"o":"m 713 371 q 553 423 632 418 q 400 406 475 428 q 350 358 363 393 q 346 290 338 324 q 379 236 354 257 q 440 229 404 215 q 476 242 458 236 q 515 247 493 247 q 467 191 496 214 q 406 163 438 168 q 344 170 375 157 q 290 221 314 183 q 251 322 265 258 q 238 483 236 386 q 266 651 239 585 q 325 738 293 718 q 385 724 357 758 q 414 586 413 689 q 436 531 414 553 q 491 499 458 510 q 561 490 524 489 q 632 503 599 490 q 688 540 665 517 q 713 600 711 564 q 711 662 714 624 q 697 742 708 700 q 665 827 686 785 q 607 903 643 869 q 517 959 571 938 q 389 981 464 981 q 221 938 289 981 q 112 825 153 894 q 53 668 71 756 q 38 492 36 581 q 53 307 38 396 q 106 149 68 218 q 212 40 144 81 q 383 0 279 -1 q 479 16 435 0 q 559 59 524 32 q 621 123 594 86 q 665 201 647 160 q 713 217 690 199 q 747 264 736 236 q 752 322 758 292 q 713 371 746 351 m 793 319 q 833 280 821 303 q 846 232 846 257 q 838 188 846 210 q 817 150 831 167 q 785 122 803 133 q 749 111 768 111 q 701 31 729 68 q 635 -33 672 -6 q 553 -75 599 -60 q 453 -90 507 -90 q 286 -58 353 -92 q 178 35 219 -24 q 100 117 131 68 q 51 226 69 167 q 24 353 32 285 q 17 492 17 421 q 34 675 15 583 q 97 839 53 767 q 212 956 140 911 q 389 1001 283 1001 q 556 965 492 1001 q 660 875 621 928 q 738 792 708 840 q 782 695 767 744 q 801 601 797 646 q 803 529 804 557 q 767 450 800 481 q 688 407 733 419 q 724 389 706 399 q 755 363 743 378 q 772 331 767 347 q 783 325 778 328 q 793 319 788 322 m 393 425 q 442 437 417 432 q 493 443 468 442 q 467 486 472 464 q 414 525 435 500 q 393 586 393 550 q 389 640 393 617 q 347 558 365 617 q 328 414 329 499 l 328 360 q 351 398 335 381 q 393 425 367 415 m 399 204 q 343 244 363 213 q 351 212 347 226 q 363 185 356 197 q 386 182 376 182 q 407 183 400 182 q 402 194 404 189 q 399 204 400 199 z "},"H":{"ha":829,"x_min":19,"x_max":824,"o":"m 654 481 q 659 681 649 581 q 715 881 669 782 q 715 933 729 911 q 672 967 701 954 q 606 981 643 979 q 533 973 568 983 q 473 939 499 963 q 444 878 447 915 q 445 774 440 828 q 460 665 450 721 q 481 552 469 608 q 500 442 492 496 q 378 446 435 435 q 267 481 321 457 q 294 683 282 581 q 300 878 307 786 q 274 939 297 915 q 221 973 251 963 q 156 981 190 983 q 97 967 122 979 q 61 932 72 954 q 64 881 50 910 q 106 724 100 803 q 107 564 111 644 q 99 569 104 567 q 67 560 82 579 q 44 510 51 542 q 43 440 38 478 q 72 374 49 403 l 83 363 q 61 238 71 297 q 58 104 51 179 q 86 42 61 65 q 145 8 111 18 q 216 1 179 -1 q 281 15 253 3 q 323 49 310 28 q 322 101 336 71 q 283 200 299 151 q 261 300 268 249 q 385 291 321 292 q 506 296 449 290 q 494 199 503 247 q 463 101 485 150 q 460 50 449 72 q 496 15 471 28 q 554 1 521 3 q 618 8 588 -1 q 672 42 649 18 q 697 104 694 65 q 695 229 703 174 q 676 343 688 285 q 713 393 703 365 q 718 443 722 421 q 697 477 714 465 q 654 479 681 489 l 654 481 m 594 1003 q 692 981 649 1003 q 742 919 735 960 q 803 874 782 904 q 804 803 824 844 q 755 647 768 725 q 742 489 742 568 q 742 461 742 474 q 743 435 742 449 q 792 413 775 436 q 810 358 810 390 q 801 311 810 335 q 769 267 793 288 q 785 182 779 222 q 790 90 790 142 q 790 63 790 76 q 788 33 789 49 q 770 -23 785 0 q 734 -61 756 -46 q 686 -83 713 -76 q 633 -90 660 -90 q 547 -69 585 -90 q 503 -11 510 -49 q 442 34 463 3 q 443 110 422 65 q 474 201 463 153 l 469 201 q 411 203 439 201 q 356 207 383 204 q 377 124 363 165 q 411 40 392 83 q 418 -15 425 10 q 390 -56 411 -39 q 339 -81 369 -72 q 274 -90 308 -90 q 178 -69 224 -90 q 114 -3 132 -49 q 61 37 82 11 q 38 103 40 63 q 35 132 36 118 q 35 158 35 146 q 42 256 35 211 q 58 346 49 301 l 60 356 q 19 471 19 408 q 40 555 19 519 q 88 592 60 590 q 88 618 88 606 q 89 644 89 631 q 80 760 89 703 q 44 872 71 817 q 36 927 31 903 q 60 968 42 951 q 107 994 79 985 q 167 1003 135 1003 q 253 982 211 1003 q 311 917 294 961 q 365 876 343 903 q 390 810 388 850 q 392 778 392 794 q 393 746 393 761 q 385 608 393 678 q 367 469 378 539 q 410 462 388 464 q 456 460 432 460 q 465 459 465 460 q 476 460 465 458 q 467 509 472 486 q 457 560 463 532 q 433 697 443 629 q 422 832 422 765 q 422 856 422 843 q 424 879 422 868 q 442 935 426 911 q 483 974 458 958 q 536 996 507 989 q 594 1003 565 1003 z "},"I":{"ha":846,"x_min":14,"x_max":826,"o":"m 663 304 q 582 251 625 271 q 494 222 539 231 q 480 332 483 275 q 476 448 476 389 q 476 569 476 507 q 469 693 475 631 q 547 639 517 667 q 627 597 590 600 q 690 616 664 594 q 728 678 717 638 q 734 763 740 718 q 699 853 728 808 q 617 932 671 899 q 615 933 615 932 q 613 933 614 933 q 449 980 533 975 q 288 959 364 985 q 149 878 211 933 q 51 747 86 824 q 44 708 43 728 q 55 674 46 688 q 80 659 64 661 q 117 676 96 657 q 213 732 161 718 q 315 740 264 746 q 312 601 318 667 q 296 476 306 536 q 278 358 286 415 q 269 246 269 301 q 211 282 236 260 q 133 329 168 322 q 74 321 97 336 q 40 274 50 306 q 39 202 31 242 q 77 122 47 163 q 161 49 107 81 q 165 47 164 49 q 329 1 244 6 q 490 22 414 -4 q 628 102 567 49 q 726 233 690 156 q 733 272 735 251 q 724 306 732 293 q 699 321 715 319 q 663 304 683 322 m 649 319 q 692 344 672 340 q 725 339 711 347 q 747 313 739 331 q 756 274 756 294 q 792 271 776 281 q 817 243 808 261 q 825 201 825 225 q 815 156 825 178 q 748 52 789 97 q 656 -25 707 7 q 546 -74 604 -57 q 426 -90 488 -90 q 219 -37 321 -90 l 224 -42 q 124 47 158 -3 q 40 142 65 92 q 14 238 14 193 q 40 319 14 286 q 111 353 67 353 q 165 340 136 353 q 225 297 193 326 q 249 279 236 286 q 257 361 251 319 q 269 444 263 403 q 283 541 276 490 q 293 644 290 592 q 200 592 242 629 q 150 569 174 569 q 110 591 125 569 q 93 640 94 613 q 81 639 89 639 q 50 650 63 639 q 31 678 38 661 q 24 716 24 696 q 32 756 24 736 q 99 859 58 814 q 192 936 140 904 q 301 985 243 968 q 421 1001 360 1001 q 633 946 526 1001 q 713 871 683 913 q 800 772 774 828 q 826 663 826 715 q 818 602 826 631 q 794 552 810 574 q 756 518 778 531 q 707 506 733 506 q 657 517 683 506 q 603 554 631 529 q 564 585 586 569 q 567 503 567 544 q 567 421 567 461 q 567 342 567 381 q 569 267 567 304 q 649 319 610 285 m 633 946 q 624 953 625 951 q 632 950 631 953 q 633 946 633 947 m 693 883 q 703 876 694 882 q 701 881 703 878 q 693 883 700 883 z "},"J":{"ha":899,"x_min":14,"x_max":881,"o":"m 783 743 q 686 874 749 819 q 547 955 624 929 q 386 976 471 981 q 222 929 301 971 q 221 928 221 929 q 219 928 221 928 q 137 850 165 896 q 101 759 108 804 q 106 674 94 714 q 144 612 118 633 q 208 593 171 590 q 288 635 244 596 q 390 701 326 671 q 524 738 453 732 l 524 496 q 493 328 522 396 q 430 242 464 261 q 367 257 396 222 q 336 394 338 292 q 314 449 336 428 q 259 481 292 471 q 188 490 226 492 q 117 476 150 489 q 60 440 83 464 q 36 381 38 415 q 38 318 35 356 q 52 238 40 281 q 85 153 64 196 q 143 77 107 111 q 232 22 179 43 q 360 0 285 0 q 528 43 460 0 q 637 156 596 86 q 695 313 678 225 q 713 489 713 400 l 713 679 q 716 676 715 678 q 719 674 717 675 q 756 656 740 654 q 781 671 772 657 q 791 705 790 685 q 783 743 792 725 m 871 683 q 880 644 879 665 q 874 606 881 624 q 855 577 868 589 q 825 565 842 565 q 815 565 819 565 q 803 568 810 565 l 803 419 q 784 236 803 328 q 722 72 765 144 q 606 -45 678 0 q 429 -90 535 -90 q 263 -54 328 -90 q 160 35 197 -18 q 81 117 110 69 q 37 215 51 165 q 18 309 22 264 q 15 382 14 354 q 33 438 17 414 q 75 478 50 463 q 132 503 100 494 q 196 511 164 511 q 213 510 204 511 q 229 508 221 510 q 164 576 186 525 q 101 633 124 590 q 78 728 78 675 q 108 845 78 786 q 211 947 139 904 q 312 985 260 972 q 415 997 364 997 q 602 956 514 997 q 751 836 690 914 q 821 767 790 806 q 872 682 851 729 l 871 683 m 429 265 q 478 347 457 288 q 503 496 500 407 l 503 626 q 428 592 463 613 q 371 550 394 571 q 317 513 343 525 q 267 501 290 501 l 264 501 q 319 472 296 490 q 351 425 342 453 q 404 386 383 411 q 426 325 425 361 q 427 293 426 308 q 429 265 428 278 z "},"K":{"ha":829,"x_min":14,"x_max":813,"o":"m 478 365 q 569 436 525 392 q 648 544 614 481 q 701 692 682 607 q 717 886 719 778 q 692 938 715 915 q 635 971 669 960 q 562 982 601 982 q 490 967 522 982 q 436 922 457 953 q 418 843 415 892 q 424 780 418 819 q 431 694 429 740 q 428 603 433 649 q 402 521 422 557 q 344 465 382 485 q 240 451 306 444 q 258 560 249 506 q 274 670 267 615 q 283 778 281 725 q 282 879 286 831 q 256 940 279 917 q 203 974 233 964 q 139 983 172 985 q 81 968 106 981 q 44 933 56 956 q 47 882 33 911 q 79 783 69 833 q 91 683 89 733 q 90 581 93 632 q 85 481 88 531 q 69 380 78 425 q 52 291 60 335 q 41 203 44 247 q 42 106 38 158 q 67 43 44 67 q 121 10 90 19 q 185 2 151 0 q 243 17 218 4 q 279 51 268 29 q 276 103 290 72 q 243 208 253 154 q 232 314 233 261 q 333 286 283 304 q 421 240 383 268 q 479 172 458 211 q 494 81 500 132 q 523 23 490 44 q 597 0 556 1 q 676 22 639 -1 q 717 97 713 44 q 703 183 721 143 q 652 256 685 222 q 574 317 619 290 q 478 365 529 344 m 565 1003 q 670 978 622 1003 q 733 913 718 954 q 785 873 765 897 q 807 817 806 849 q 795 642 810 721 q 753 503 781 564 q 690 395 726 442 q 614 317 654 349 q 658 279 638 299 q 694 238 679 260 q 781 143 749 196 q 807 26 813 90 q 792 -26 804 -4 q 760 -62 779 -49 q 718 -83 742 -76 q 671 -90 694 -90 q 592 -67 628 -90 q 546 -10 557 -44 q 494 28 514 3 q 474 83 474 53 q 456 167 478 126 q 392 198 426 185 q 322 219 358 211 q 365 42 326 129 q 374 -13 379 11 q 350 -54 368 -37 q 303 -80 332 -71 q 244 -89 275 -89 q 158 -69 200 -89 q 99 -4 117 -49 q 46 36 68 10 q 21 104 24 63 q 19 133 19 119 q 18 161 18 147 q 25 259 18 214 q 42 351 32 304 q 54 415 49 382 q 64 483 60 447 q 65 503 64 493 q 67 522 65 513 q 70 583 69 550 q 71 643 71 615 q 63 759 71 701 q 28 874 54 817 q 19 928 14 904 q 43 969 25 953 q 89 995 61 986 q 149 1004 117 1004 q 233 983 192 1004 q 293 918 274 963 q 346 878 324 904 q 372 811 368 851 q 374 784 374 800 q 374 757 374 768 q 366 628 374 694 q 349 494 358 561 q 397 567 385 521 q 410 665 410 614 q 407 728 410 696 q 401 788 404 761 q 398 816 399 801 q 397 842 397 831 q 408 915 394 885 q 446 965 422 946 q 501 994 469 985 q 565 1003 532 1003 z "},"L":{"ha":835,"x_min":15,"x_max":815,"o":"m 550 299 q 497 273 528 286 q 429 251 465 260 q 355 240 393 242 q 279 250 317 239 q 246 290 254 258 q 239 365 238 322 q 247 453 240 407 q 258 540 254 500 q 276 639 265 599 q 294 715 286 679 q 307 788 303 750 q 307 881 311 826 q 280 942 304 918 q 222 976 256 965 q 152 984 189 986 q 88 969 115 982 q 48 935 61 957 q 49 883 35 913 q 78 782 71 835 q 81 667 85 729 q 65 533 76 606 q 43 369 54 460 q 40 282 36 331 q 58 197 43 233 q 142 94 89 136 q 263 28 196 51 q 408 1 331 4 q 565 13 486 -3 q 662 71 625 33 q 714 149 699 108 q 724 231 729 190 q 698 295 719 271 q 638 324 676 319 q 550 299 600 328 m 539 317 q 632 346 590 346 q 698 324 672 346 q 736 271 724 303 q 795 223 775 258 q 815 143 815 188 q 805 81 815 113 q 772 19 794 49 q 717 -36 750 -11 q 636 -78 683 -61 q 508 -90 571 -90 q 297 -49 394 -90 q 139 72 200 -8 q 82 125 107 96 q 39 190 57 154 q 23 248 28 215 q 18 314 18 281 q 19 344 18 329 q 22 372 19 360 q 30 431 26 401 q 38 485 33 460 q 54 610 47 551 q 61 717 61 669 q 54 799 61 760 q 29 874 47 838 q 22 928 15 904 q 48 970 28 953 q 99 997 68 988 q 163 1006 129 1006 q 256 984 211 1006 q 319 918 301 963 q 373 877 351 903 q 397 813 394 851 q 399 785 399 799 q 400 761 400 772 q 393 678 400 714 q 376 607 386 643 q 361 543 369 578 q 349 468 353 508 q 347 444 347 457 q 343 421 346 432 q 333 349 338 385 q 329 282 329 313 l 329 261 l 349 261 q 457 279 406 261 q 540 317 508 297 l 539 317 z "},"M":{"ha":882,"x_min":17,"x_max":863,"o":"m 749 876 q 710 952 744 926 q 634 981 675 978 q 558 968 593 985 q 518 919 522 951 q 510 812 514 875 q 497 681 507 749 q 467 551 486 614 q 413 443 447 488 q 355 547 376 483 q 320 678 333 610 q 299 810 307 746 q 285 919 292 875 q 265 955 282 940 q 224 976 247 969 q 172 981 200 983 q 121 967 144 979 q 80 932 97 954 q 60 876 63 910 q 53 783 57 840 q 44 656 49 725 q 38 509 40 586 q 38 358 36 432 q 47 216 40 283 q 67 100 53 149 q 102 46 75 68 q 163 12 129 24 q 233 -1 197 0 q 296 10 269 -1 q 333 44 322 21 q 331 103 344 67 q 258 319 286 211 q 221 532 229 428 q 256 456 235 496 q 303 381 278 415 q 357 324 329 346 q 411 301 385 301 q 463 325 435 301 q 518 383 492 349 q 567 458 544 418 q 601 531 589 499 q 583 430 596 485 q 554 318 571 375 q 518 206 538 261 q 479 103 499 150 q 476 44 464 67 q 514 10 488 21 q 576 -1 540 -1 q 646 12 611 0 q 708 46 681 24 q 743 100 735 68 q 763 216 757 149 q 771 358 769 283 q 770 509 772 432 q 764 656 768 586 q 756 783 760 725 q 749 876 751 840 m 839 808 q 846 726 842 776 q 853 613 850 675 q 860 483 857 551 q 863 344 863 414 q 856 170 863 253 q 832 25 849 88 q 804 -24 824 -3 q 758 -60 785 -46 q 701 -83 731 -75 q 642 -90 671 -90 q 560 -71 594 -90 q 521 -14 526 -51 q 460 28 481 -3 q 460 111 440 60 q 497 214 478 154 q 481 211 486 211 q 417 236 449 211 q 357 300 386 261 q 344 309 350 304 q 332 319 339 314 q 419 42 358 185 q 429 -18 433 7 q 408 -59 425 -43 q 363 -83 390 -75 q 306 -90 336 -90 q 250 -84 278 -90 q 197 -65 222 -78 q 152 -35 172 -53 q 121 7 132 -17 q 73 44 93 22 q 46 94 53 65 l 47 94 q 23 242 29 157 q 17 421 17 328 q 19 557 17 489 q 26 685 22 625 q 33 796 29 746 q 39 878 36 846 q 56 935 42 911 q 90 974 69 958 q 136 996 111 989 q 186 1003 161 1003 q 263 982 228 1003 q 304 925 297 961 q 351 898 332 917 q 375 854 371 879 q 381 817 378 838 q 386 774 383 796 q 403 648 393 715 q 433 518 414 581 q 460 599 450 556 q 476 687 469 642 q 485 776 482 732 q 492 857 489 819 q 494 890 493 875 q 497 921 496 906 q 539 981 503 960 q 619 1003 575 1003 q 701 983 661 1003 q 760 918 742 963 q 813 878 792 904 q 839 808 835 851 z "},"N":{"ha":851,"x_min":15,"x_max":847,"o":"m 469 878 q 471 765 465 824 q 487 647 476 707 q 510 526 497 586 q 529 407 522 465 q 531 382 531 394 q 531 356 531 369 q 433 507 479 422 q 351 674 386 592 q 294 822 315 756 q 272 921 272 889 q 235 969 268 953 q 165 983 203 986 q 95 953 128 979 q 58 878 63 928 q 51 784 56 842 q 43 657 47 726 q 37 510 39 588 q 37 359 35 433 q 45 217 39 285 q 65 101 51 150 q 101 47 74 69 q 162 13 128 25 q 232 1 196 1 q 294 11 268 0 q 332 45 321 22 q 329 104 343 68 q 226 478 250 293 q 310 308 267 392 q 397 156 353 224 q 500 35 454 68 q 590 0 546 1 q 635 6 613 0 q 676 25 658 13 q 707 57 694 38 q 722 104 719 76 q 722 201 726 157 q 710 290 718 246 q 694 379 703 333 q 678 481 685 425 q 683 681 672 581 q 739 881 693 782 q 739 933 753 911 q 697 967 725 954 q 630 981 668 979 q 557 973 592 983 q 497 939 522 963 q 469 878 472 915 m 449 879 q 467 935 451 911 q 506 974 482 958 q 560 996 531 989 q 618 1003 589 1003 q 670 997 644 1003 q 716 981 696 992 q 750 954 736 969 q 767 919 764 939 q 827 874 807 904 q 828 803 847 844 q 778 647 792 725 q 765 489 765 568 q 766 451 765 469 q 768 413 767 432 q 779 342 774 375 q 792 278 785 310 q 808 185 801 231 q 814 86 814 140 q 814 60 814 74 q 813 33 814 47 q 795 -22 810 1 q 759 -61 781 -46 q 712 -83 738 -76 q 660 -90 686 -90 q 576 -65 618 -89 q 489 17 535 -42 q 435 67 463 36 q 379 144 408 99 q 378 146 378 144 q 397 96 386 121 q 418 43 407 71 q 428 -17 432 8 q 406 -58 424 -42 q 362 -81 389 -74 q 304 -89 335 -89 q 249 -83 276 -89 q 196 -64 221 -76 q 151 -33 171 -51 q 119 8 131 -15 q 72 45 92 24 q 44 96 51 67 l 46 96 q 22 244 28 158 q 15 422 15 329 q 18 558 15 490 q 24 687 21 626 q 31 797 28 747 q 38 879 35 847 q 53 936 40 913 q 87 975 67 960 q 131 997 107 990 q 178 1004 154 1004 q 251 984 218 1004 q 292 928 285 964 q 339 900 319 918 q 363 854 358 882 q 372 796 363 833 q 400 710 382 758 q 442 607 418 663 q 494 496 465 551 q 488 528 492 511 q 482 561 485 544 q 459 698 471 624 q 447 832 447 772 q 447 856 447 843 q 449 879 447 868 z "},"O":{"ha":813,"x_min":14,"x_max":799,"o":"m 324 204 q 238 267 267 221 q 202 370 208 313 q 210 488 196 428 q 256 593 225 547 q 332 662 288 639 q 431 668 376 685 q 510 606 482 651 q 544 504 538 561 q 539 387 551 447 q 498 280 526 326 q 425 210 469 233 q 324 204 381 188 m 374 979 q 228 940 290 981 q 123 830 165 899 q 58 674 81 761 q 35 494 36 586 q 53 315 33 403 q 113 157 72 226 q 215 44 153 88 q 360 0 276 1 q 513 40 447 -1 q 622 150 578 82 q 687 306 665 218 q 709 485 708 393 q 688 665 710 576 q 625 822 667 753 q 520 935 583 892 q 374 979 457 978 m 374 1000 q 512 963 451 997 q 617 871 572 929 q 697 788 663 838 q 753 678 731 738 q 788 551 776 618 q 799 417 799 485 q 776 230 799 321 q 707 67 753 139 q 592 -48 661 -4 q 429 -90 522 -92 q 294 -56 353 -89 q 193 33 236 -22 q 115 115 149 67 q 58 222 81 164 q 25 347 36 281 q 14 482 14 414 q 37 673 14 579 q 104 840 60 767 q 216 957 149 913 q 374 1000 283 1001 m 329 224 q 349 219 339 221 q 368 218 358 218 q 435 240 406 218 q 485 296 464 261 q 516 374 506 331 q 526 463 526 418 q 521 522 526 493 q 503 576 515 551 q 499 578 500 578 q 494 579 497 578 q 478 583 486 582 q 458 585 469 585 q 390 563 421 585 q 338 504 360 540 q 303 423 315 468 q 290 333 290 378 q 311 229 290 275 q 329 224 318 226 z "},"P":{"ha":849,"x_min":10,"x_max":832,"o":"m 303 394 q 310 555 306 475 q 300 711 315 635 q 371 724 335 724 q 437 710 407 724 q 488 671 467 697 q 513 606 508 644 q 503 493 521 538 q 455 424 486 449 q 383 392 424 399 q 303 394 343 386 m 414 981 q 251 949 324 981 q 129 862 179 917 q 55 733 79 807 q 38 575 31 660 q 58 528 40 546 q 97 508 75 511 q 138 515 118 504 q 164 554 157 526 q 176 593 168 575 q 194 628 183 611 q 170 501 186 567 q 140 367 154 435 q 115 233 125 300 q 111 104 106 167 q 137 42 114 65 q 190 8 160 18 q 254 1 221 -1 q 313 15 288 3 q 349 49 338 28 q 346 101 360 71 q 314 197 325 149 q 472 197 394 182 q 609 261 549 213 q 706 394 669 310 q 742 606 742 479 q 735 676 742 636 q 712 758 728 717 q 671 840 696 800 q 609 911 646 879 q 524 962 572 943 q 414 981 475 981 m 414 1001 q 569 964 506 1001 q 672 872 632 926 q 746 797 715 840 q 796 706 776 753 q 824 615 815 660 q 832 536 832 571 q 802 337 832 419 q 722 201 772 254 q 604 124 671 149 q 464 100 538 100 q 437 100 450 100 q 411 101 424 100 q 435 40 419 72 q 443 -15 449 10 q 419 -56 438 -39 q 373 -81 401 -72 q 314 -90 344 -90 q 228 -69 269 -90 q 169 -4 188 -49 q 116 36 138 10 q 90 103 94 63 q 99 264 85 176 q 132 428 114 351 q 106 452 117 438 q 89 488 94 467 q 40 516 61 494 q 17 574 19 538 q 35 740 10 663 q 113 876 61 818 q 242 968 165 935 q 414 1001 319 1001 m 492 603 q 486 625 489 617 q 440 633 465 633 q 394 628 417 633 q 403 513 403 574 q 399 418 403 465 q 472 476 443 433 q 492 603 501 519 z "},"Q":{"ha":890,"x_min":15,"x_max":875,"o":"m 325 207 q 239 269 268 224 q 203 372 210 315 q 212 489 197 429 q 258 594 226 549 q 333 663 289 640 q 432 669 378 686 q 514 603 486 653 q 547 493 542 554 q 537 369 553 432 q 488 263 521 307 q 458 317 469 286 q 438 385 446 347 q 419 407 435 401 q 385 408 403 413 q 355 387 368 403 q 344 344 342 371 q 388 201 351 272 q 325 207 358 197 m 686 196 q 666 194 675 194 q 649 194 657 194 q 699 351 683 265 q 710 523 714 436 q 683 692 706 610 q 617 838 660 774 q 515 940 575 901 q 375 981 454 979 q 230 941 293 982 q 124 832 167 900 q 60 676 82 764 q 36 497 38 589 q 54 316 35 404 q 114 158 74 228 q 216 46 154 89 q 361 1 278 3 q 525 49 454 1 q 607 11 563 25 q 700 0 651 -3 q 754 17 735 1 q 781 54 774 32 q 783 102 788 76 q 764 149 778 128 q 730 183 750 169 q 686 196 710 197 m 375 1001 q 513 965 453 999 q 617 872 572 931 q 697 789 663 839 q 755 679 732 739 q 790 552 778 619 q 801 417 801 485 q 792 296 801 356 q 763 182 782 236 q 779 163 772 174 q 792 140 786 151 q 851 89 828 126 q 875 11 875 51 q 851 -58 875 -29 q 771 -90 826 -87 q 676 -80 722 -93 q 593 -46 631 -67 q 517 -78 557 -67 q 431 -89 478 -89 q 296 -54 354 -87 q 194 35 238 -21 q 116 117 150 68 q 60 224 82 165 q 26 349 38 282 q 15 483 15 415 q 38 674 15 581 q 106 841 61 768 q 219 958 151 914 q 375 1001 286 1003 m 331 226 q 343 223 336 224 q 356 221 350 222 q 324 343 328 285 q 346 409 319 388 q 401 431 372 431 q 439 420 422 431 q 458 389 456 410 q 465 361 460 376 l 471 361 q 510 350 492 361 q 523 406 518 376 q 528 463 528 435 q 504 578 528 526 q 500 579 501 579 q 496 581 499 579 q 477 585 486 583 q 458 586 468 586 q 390 564 421 586 q 338 506 360 542 q 304 426 317 471 q 292 336 292 381 q 313 232 292 278 q 331 226 319 229 z "},"R":{"ha":876,"x_min":13,"x_max":861,"o":"m 489 636 q 479 526 494 567 q 437 467 464 486 q 376 446 410 449 q 315 450 343 443 q 321 595 319 524 q 306 736 322 667 q 304 740 304 739 q 303 743 304 740 q 365 758 333 757 q 424 746 397 758 q 467 706 450 733 q 489 636 485 678 m 575 346 q 637 388 608 363 q 688 449 665 414 q 722 531 710 485 q 735 635 735 576 q 716 770 735 707 q 658 881 697 833 q 557 955 618 928 q 413 982 496 982 q 254 953 322 982 q 139 872 186 925 q 66 744 92 819 q 36 576 40 669 q 53 508 33 531 q 99 485 74 486 q 147 503 124 485 q 174 556 169 521 q 207 654 182 613 q 185 522 201 590 q 152 382 168 453 q 126 241 136 311 q 121 106 115 171 q 147 43 124 67 q 200 10 169 19 q 264 2 231 0 q 322 17 297 4 q 359 51 347 29 q 357 103 371 72 q 323 208 332 156 q 311 315 314 261 q 413 293 363 307 q 500 254 463 279 q 558 192 538 229 q 574 103 579 156 q 583 58 571 79 q 617 24 596 38 q 663 3 638 10 q 710 3 688 -3 q 749 27 733 8 q 768 81 765 46 q 758 161 772 122 q 718 233 744 200 q 655 295 692 267 q 575 346 618 324 m 413 1003 q 579 968 511 1003 q 689 874 647 933 q 792 744 760 825 q 825 565 825 663 q 788 392 825 461 q 696 283 751 324 q 731 244 715 263 q 826 137 790 197 q 858 10 861 76 q 825 -67 853 -43 q 758 -90 797 -90 q 685 -66 721 -90 q 632 -6 649 -42 q 576 40 600 10 q 553 106 553 71 q 540 175 556 146 q 476 203 511 192 q 403 221 440 214 q 415 131 406 175 q 446 42 424 86 q 454 -13 460 11 q 430 -54 449 -37 q 383 -80 411 -71 q 324 -89 354 -89 q 238 -68 279 -89 q 179 -3 197 -47 q 126 38 147 11 q 100 104 104 64 q 99 127 99 115 q 99 150 99 139 q 109 276 99 213 q 135 401 119 339 q 88 464 100 419 q 35 497 57 469 q 15 578 13 525 q 47 753 19 675 q 124 888 75 832 q 246 973 174 943 q 413 1003 318 1003 m 468 635 q 463 665 465 654 q 451 667 456 667 q 439 668 446 668 q 399 661 422 668 q 411 518 411 596 l 411 478 q 457 528 439 492 q 468 635 475 564 z "},"S":{"ha":824,"x_min":14,"x_max":807,"o":"m 532 607 q 598 587 563 578 q 662 629 633 596 q 706 712 690 663 q 714 810 722 761 q 667 902 706 860 q 549 965 629 944 q 342 967 435 993 q 184 878 250 940 q 80 730 118 817 q 38 550 42 643 q 53 426 33 468 q 113 360 72 385 q 217 316 154 335 q 361 263 279 297 q 414 221 408 243 q 392 188 419 199 q 305 187 364 178 q 163 240 246 196 q 111 238 138 253 q 70 194 85 222 q 60 131 56 165 q 100 75 64 97 q 220 19 158 38 q 340 0 282 1 q 451 12 399 -1 q 542 49 503 25 q 604 109 581 74 q 631 186 628 144 q 604 296 633 257 q 528 356 575 335 q 427 388 482 376 q 326 413 372 399 q 249 453 279 428 q 222 531 219 479 q 233 585 224 556 q 261 638 243 614 q 305 679 279 663 q 365 696 331 696 q 440 676 399 696 q 532 607 482 656 m 588 522 q 503 586 540 567 q 435 606 465 606 q 383 591 406 606 q 346 555 361 576 q 322 508 331 533 q 313 460 314 482 q 314 439 311 453 q 358 426 333 432 q 407 414 382 419 q 474 397 440 406 q 537 374 507 388 q 592 342 567 361 q 632 293 617 322 q 699 228 674 269 q 721 115 724 186 q 694 32 718 69 q 630 -33 671 -6 q 535 -75 589 -60 q 422 -90 482 -90 q 291 -72 358 -90 q 158 -12 224 -53 q 113 43 124 10 q 100 49 106 46 q 89 57 94 53 q 49 99 61 75 q 38 147 38 122 q 50 199 38 174 q 83 242 63 225 q 126 264 103 258 q 172 258 150 269 q 274 215 229 228 q 350 203 318 203 q 320 213 335 208 q 293 222 306 218 q 175 267 222 244 q 106 338 128 290 q 63 369 81 351 q 34 411 46 386 q 18 470 22 436 q 17 551 14 504 q 52 717 21 636 q 138 860 83 797 q 269 962 193 924 q 440 1000 346 1000 q 554 986 500 1000 q 647 942 610 969 q 707 878 685 914 q 782 801 757 846 q 807 710 807 756 q 793 631 807 669 q 757 561 779 592 q 707 513 735 531 q 651 494 679 494 q 618 501 635 494 q 586 522 601 507 l 588 522 z "},"T":{"ha":815,"x_min":13,"x_max":803,"o":"m 544 967 q 337 972 431 994 q 176 892 243 949 q 71 751 108 835 q 33 575 33 668 q 47 539 33 554 q 77 518 60 524 q 113 520 94 513 q 142 554 131 528 q 166 601 151 576 q 201 647 181 626 q 247 683 221 668 q 304 704 272 699 q 296 555 292 631 q 303 403 300 479 q 301 251 307 326 q 260 101 294 175 q 257 50 246 72 q 293 15 268 28 q 351 1 318 3 q 416 8 385 -1 q 469 42 447 18 q 496 104 492 65 q 489 251 501 175 q 458 402 476 326 q 424 551 440 478 q 407 690 408 624 q 528 608 464 667 q 594 589 558 579 q 658 632 629 599 q 703 714 688 665 q 710 812 718 763 q 663 903 701 861 q 544 967 625 946 m 550 988 q 649 944 611 972 q 707 882 686 917 q 781 804 760 850 q 803 710 803 758 q 789 631 803 669 q 753 563 775 593 q 704 515 732 533 q 647 497 676 497 q 615 503 632 497 q 583 524 599 510 q 540 559 563 543 q 499 586 518 575 q 516 481 504 538 q 540 372 528 425 q 576 201 560 289 q 586 33 593 114 q 569 -23 583 0 q 533 -61 554 -46 q 485 -83 511 -76 q 432 -90 458 -90 q 345 -69 383 -90 q 300 -11 307 -49 q 240 34 260 3 q 240 110 219 65 q 276 222 267 165 q 285 336 285 278 q 283 399 285 368 q 279 463 282 431 q 276 505 276 483 q 274 549 275 526 q 249 513 260 532 q 231 476 238 494 q 201 437 219 449 q 163 425 183 425 q 110 445 135 425 q 82 494 86 465 q 34 522 56 499 q 13 575 13 544 q 42 737 13 660 q 125 873 71 814 q 256 967 179 932 q 426 1003 332 1003 q 549 988 483 1003 l 550 988 z "},"U":{"ha":821,"x_min":14,"x_max":806,"o":"m 681 876 q 647 935 672 911 q 590 970 622 958 q 525 982 558 982 q 465 969 492 982 q 424 931 439 957 q 417 865 410 906 q 438 722 428 799 q 455 568 449 644 q 461 422 461 492 q 451 297 461 351 q 422 210 442 243 q 368 178 401 178 q 313 209 335 176 q 278 296 290 242 q 263 422 267 350 q 263 571 260 493 q 276 728 267 649 q 300 876 286 807 q 294 935 307 911 q 256 971 281 958 q 200 984 232 983 q 139 973 168 985 q 88 937 110 961 q 58 876 65 913 q 48 800 54 851 q 38 683 42 749 q 36 541 35 617 q 47 390 38 465 q 78 244 57 314 q 136 120 100 174 q 226 34 172 67 q 356 0 281 1 q 536 51 465 -1 q 647 185 607 103 q 701 370 686 268 q 716 570 717 472 q 703 751 715 668 q 681 876 692 833 m 769 813 q 794 680 782 767 q 806 490 806 593 q 799 353 806 424 q 775 219 792 283 q 731 97 758 154 q 660 -1 703 40 q 560 -67 618 -43 q 425 -90 501 -92 q 290 -57 346 -89 q 196 28 235 -25 q 106 128 142 67 q 50 265 71 190 q 22 422 29 340 q 14 582 14 504 q 22 763 14 682 q 38 881 31 844 q 60 933 43 910 q 99 972 76 957 q 148 996 122 988 q 199 1004 174 1004 q 273 984 239 1004 q 318 926 307 964 q 376 882 354 913 q 390 803 399 851 q 363 615 374 715 q 351 424 351 514 q 357 297 351 356 q 375 199 363 239 q 406 222 393 203 q 426 271 418 240 q 437 342 433 301 q 440 429 440 382 q 436 535 440 479 q 426 647 432 590 q 412 758 419 703 q 396 863 404 813 l 396 861 q 398 924 389 897 q 425 968 407 950 q 469 994 443 986 q 525 1003 496 1003 q 620 978 574 1003 q 690 908 667 954 q 739 869 718 893 q 769 813 760 844 z "},"V":{"ha":824,"x_min":11,"x_max":815,"o":"m 50 876 q 79 790 74 844 q 83 668 85 736 q 74 524 81 600 q 67 374 68 449 q 76 232 67 300 q 115 113 86 164 q 197 31 143 61 q 336 0 250 0 q 476 38 418 0 q 573 139 533 76 q 635 283 613 201 q 668 451 658 364 q 676 623 678 538 q 668 782 675 708 q 699 806 685 790 q 717 837 710 818 q 721 883 725 856 q 700 903 717 908 q 655 892 683 899 q 589 896 626 886 q 508 960 551 906 q 467 982 492 981 q 422 969 442 983 q 394 928 403 956 q 399 865 385 901 q 435 735 421 808 q 454 585 449 661 q 456 435 460 508 q 439 306 453 363 q 401 213 425 249 q 344 178 378 178 q 285 216 303 178 q 265 316 268 254 q 267 456 261 378 q 280 611 274 533 q 287 759 286 689 q 275 876 288 829 q 238 937 265 914 q 178 969 211 960 q 113 977 146 979 q 59 963 81 975 q 33 928 38 950 q 50 876 28 906 m 33 864 q 11 921 11 894 q 45 978 11 958 q 125 999 79 999 q 215 977 169 999 q 285 907 261 956 q 333 870 313 893 q 364 813 354 847 q 378 693 378 763 q 374 592 378 646 q 365 486 369 539 q 357 383 361 433 q 353 286 353 332 q 354 241 353 263 q 358 201 356 219 q 394 235 379 208 q 417 301 408 261 q 431 390 426 340 q 436 496 436 440 q 422 688 436 592 q 379 858 407 785 l 379 857 q 369 906 369 878 q 399 977 369 950 q 461 1004 428 1004 q 495 996 478 1004 q 525 972 513 988 l 525 974 q 582 924 557 936 q 628 911 607 911 q 672 918 651 911 q 717 925 700 926 q 742 886 735 924 l 742 888 q 740 847 746 869 l 742 849 q 787 856 769 857 q 811 817 804 854 l 811 818 q 808 770 815 792 q 790 733 801 749 q 760 701 778 715 q 765 626 763 665 q 767 544 767 588 q 760 397 767 472 q 736 251 753 322 q 692 119 719 181 q 626 11 665 57 q 531 -62 586 -35 q 406 -90 476 -90 q 260 -61 315 -90 q 172 18 204 -32 q 109 78 133 42 q 71 159 85 114 q 51 256 57 204 q 46 361 46 307 q 49 457 46 408 q 56 553 53 506 q 61 635 58 596 q 64 711 64 675 q 58 801 64 761 q 33 864 51 840 z "},"W":{"ha":1057,"x_min":13,"x_max":1038,"o":"m 925 876 q 889 934 915 911 q 830 969 863 957 q 763 981 797 981 q 702 967 728 981 q 665 929 676 954 q 667 865 654 904 q 699 734 686 807 q 717 587 711 661 q 722 442 724 513 q 710 315 719 371 q 683 226 701 260 q 639 193 665 193 q 602 217 614 193 q 586 277 590 240 q 583 359 582 314 q 586 448 583 404 q 590 528 589 492 q 589 586 592 565 q 561 650 582 625 q 515 688 540 675 q 463 700 489 700 q 419 689 436 700 q 397 656 401 678 q 413 601 393 633 q 429 547 422 585 q 439 461 436 508 q 439 365 442 414 q 428 275 436 315 q 404 209 419 235 q 367 186 389 183 q 330 226 342 188 q 312 326 318 265 q 305 463 306 388 q 302 615 304 539 q 294 760 300 692 q 276 876 289 829 q 240 937 267 914 q 180 969 213 960 q 115 977 147 979 q 60 963 82 975 q 34 928 39 950 q 51 876 29 906 q 86 790 75 844 q 103 669 97 736 q 111 526 108 601 q 119 376 114 450 q 138 234 125 301 q 177 115 151 167 q 244 31 203 63 q 350 0 286 0 q 427 19 394 0 q 483 72 460 38 q 530 19 503 39 q 600 0 557 0 q 748 51 686 1 q 850 181 810 101 q 913 359 890 261 q 942 554 935 457 q 944 737 950 651 q 925 876 939 822 m 1014 813 q 1031 715 1025 772 q 1038 593 1038 658 q 1030 444 1038 522 q 1004 290 1022 365 q 958 145 986 214 q 888 24 929 76 q 793 -59 847 -28 q 669 -90 739 -90 q 601 -75 629 -90 q 551 -32 572 -60 q 494 -74 528 -58 q 419 -90 461 -90 q 316 -64 358 -89 q 246 6 274 -39 q 167 91 196 35 q 122 219 138 147 q 99 371 106 290 q 90 531 93 451 q 85 633 88 582 q 76 727 82 683 q 60 806 69 771 q 35 864 50 842 q 13 921 13 897 q 47 978 13 958 q 126 999 81 999 q 216 976 169 999 q 286 906 263 953 q 333 868 313 892 q 365 813 354 844 q 376 752 372 785 q 383 682 381 719 q 461 721 406 721 q 535 700 497 721 q 594 636 572 679 q 647 592 624 621 q 679 519 671 564 q 681 466 682 500 q 678 392 681 432 q 674 332 675 363 q 672 271 672 301 l 672 244 q 694 338 688 278 q 701 474 701 399 q 698 572 701 521 q 687 674 694 624 q 669 772 679 725 q 647 858 660 818 q 642 920 636 893 q 665 965 647 947 q 708 992 682 983 q 764 1001 735 1001 q 862 977 813 1001 q 935 906 911 953 q 984 867 963 890 q 1014 813 1006 844 m 376 649 q 383 682 376 665 q 390 577 388 632 q 393 469 392 522 q 396 349 394 407 q 401 246 397 292 q 415 321 411 276 q 419 414 419 365 q 413 522 419 472 q 394 592 406 572 l 394 590 q 376 649 376 621 z "},"X":{"ha":821,"x_min":14,"x_max":807,"o":"m 688 165 q 622 233 654 190 q 561 319 589 275 q 513 400 533 363 q 486 454 493 438 q 519 542 497 492 q 568 642 540 592 q 628 736 596 692 q 692 806 660 781 q 717 853 718 826 q 697 904 715 879 q 648 949 679 929 q 581 975 617 969 q 512 969 546 981 q 454 922 478 958 q 403 821 418 869 q 376 719 388 772 q 333 840 357 785 q 275 929 310 894 q 211 967 246 958 q 144 971 176 976 q 85 949 111 965 q 45 910 58 932 q 35 864 32 888 q 65 821 39 840 q 144 742 115 785 q 190 654 172 700 q 220 560 208 608 q 249 467 232 513 q 215 387 232 429 q 178 302 199 344 q 133 221 158 260 q 69 154 107 182 q 41 110 43 135 q 53 64 39 86 q 95 25 68 42 q 155 3 122 8 q 221 9 188 -1 q 282 51 254 19 q 326 116 304 79 q 368 196 347 153 q 405 119 385 157 q 453 44 425 82 q 510 5 476 14 q 578 3 543 -4 q 645 28 614 10 q 694 71 676 47 q 713 120 713 94 q 688 165 714 146 m 769 113 q 804 50 804 86 q 787 0 804 25 q 742 -45 769 -25 q 682 -78 715 -65 q 615 -90 649 -90 q 556 -76 585 -90 q 506 -37 526 -62 q 493 -21 499 -29 q 482 -6 488 -12 q 436 32 454 8 q 428 42 432 38 q 421 51 425 46 q 367 -32 393 3 q 308 -76 340 -64 q 246 -89 276 -89 q 153 -62 196 -89 q 96 0 111 -36 q 41 46 63 18 q 19 103 19 74 q 28 138 19 121 q 57 171 38 156 q 142 274 110 211 q 199 401 174 338 q 213 435 207 421 q 226 468 218 450 q 213 508 219 488 q 200 553 207 529 q 172 645 188 600 q 125 732 156 690 q 122 735 125 732 q 90 774 99 751 q 73 789 82 781 q 53 804 64 797 q 24 838 33 819 q 14 874 14 856 q 27 917 14 896 q 62 956 40 939 q 112 984 83 974 q 171 994 140 994 q 233 983 203 994 q 290 944 263 972 q 322 903 310 924 q 360 875 339 893 q 374 858 367 867 q 388 839 381 850 q 408 884 396 863 q 438 933 419 906 q 492 983 461 968 q 556 999 524 999 q 655 969 607 999 q 724 899 703 939 q 783 846 760 876 q 807 783 807 815 q 799 750 807 767 q 774 719 790 733 q 713 655 743 696 q 658 567 683 614 q 611 472 632 519 q 578 388 590 425 q 597 349 583 374 q 626 296 610 325 q 664 235 643 267 q 707 175 685 203 q 725 154 719 164 q 769 113 744 131 z "},"Y":{"ha":840,"x_min":14,"x_max":825,"o":"m 710 874 q 675 931 701 908 q 615 966 649 954 q 547 978 582 978 q 488 965 513 978 q 451 926 463 951 q 451 863 439 901 q 499 698 481 775 q 513 564 517 621 q 482 474 510 507 q 392 443 454 442 q 311 461 339 443 q 272 510 283 479 q 263 582 261 540 q 271 672 264 624 q 287 771 278 719 q 300 874 296 822 q 286 938 303 913 q 242 976 269 964 q 183 988 215 989 q 123 975 151 988 q 74 937 94 963 q 53 874 54 911 q 44 769 51 828 q 35 647 36 710 q 43 521 33 583 q 83 406 53 458 q 172 317 114 354 q 325 269 229 281 q 317 222 322 240 q 305 189 311 204 q 295 156 299 174 q 293 111 292 139 q 315 48 296 72 q 362 12 335 24 q 419 0 389 0 q 470 11 449 0 q 502 44 492 22 q 500 96 513 65 q 482 190 481 149 q 485 272 483 232 q 598 322 551 286 q 674 409 644 358 q 718 521 704 460 q 734 644 732 582 q 729 765 736 706 q 710 874 722 825 m 799 810 q 818 713 811 765 q 825 606 825 660 q 813 469 825 538 q 773 344 801 401 q 696 244 744 286 q 574 185 647 201 l 574 172 q 572 151 572 161 q 572 129 572 140 q 575 85 572 108 q 589 33 578 61 l 589 35 q 597 -18 601 6 q 578 -58 593 -42 q 538 -82 563 -74 q 488 -90 514 -90 q 408 -70 447 -90 q 351 -7 368 -50 q 297 35 319 7 q 272 110 275 64 q 275 163 269 143 q 288 201 281 182 q 289 204 288 201 q 205 249 240 222 q 146 311 169 276 q 81 374 107 338 q 41 451 56 410 q 20 536 26 492 q 14 625 14 581 q 17 712 14 669 q 25 790 21 754 q 29 835 28 814 q 32 875 31 857 q 47 933 33 908 q 83 975 61 958 q 131 1001 104 992 q 185 1010 157 1010 q 263 990 226 1010 q 314 929 299 969 q 371 883 349 914 q 390 803 393 851 q 383 730 388 767 q 371 657 378 693 q 358 577 364 617 q 353 507 353 538 q 353 486 353 496 q 356 467 353 476 q 372 465 364 465 q 392 464 381 464 q 470 494 447 463 q 493 579 493 525 q 475 704 493 632 q 432 856 457 776 q 426 917 421 890 q 450 963 432 944 q 494 990 468 981 q 550 999 521 999 q 649 974 600 999 q 719 903 697 950 q 769 865 747 888 q 799 810 790 842 z "},"Z":{"ha":832,"x_min":15,"x_max":818,"o":"m 554 297 q 499 272 531 285 q 432 249 468 258 q 358 239 396 240 q 282 249 319 238 q 267 294 249 264 q 335 364 286 325 q 449 448 383 403 q 576 539 515 493 q 679 628 636 585 q 725 706 722 671 q 715 801 729 760 q 674 873 701 842 q 607 926 646 904 q 521 963 568 947 q 442 981 485 974 q 353 985 400 988 q 256 971 307 983 q 154 933 206 958 q 72 855 100 900 q 38 764 44 810 q 44 678 32 718 q 83 616 57 638 q 145 598 108 594 q 224 642 182 601 q 302 702 257 674 q 390 747 347 731 q 465 765 432 764 q 510 743 499 765 q 501 691 519 718 q 447 634 483 664 q 363 572 411 604 q 264 505 314 539 q 168 434 214 471 q 91 358 122 397 q 50 278 60 319 q 61 196 40 238 q 145 99 92 140 q 266 33 199 57 q 411 2 333 8 q 568 11 489 -4 q 665 69 628 32 q 717 148 701 107 q 727 229 732 189 q 701 294 722 269 q 642 322 679 318 q 554 297 604 326 m 543 315 q 635 344 594 344 q 701 323 675 344 q 739 269 726 301 q 798 222 778 257 q 818 142 818 186 q 808 79 818 111 q 775 17 797 47 q 719 -37 753 -12 q 639 -79 686 -62 q 524 -90 579 -90 q 301 -46 403 -90 q 138 78 199 -1 q 84 128 108 101 q 43 186 60 154 q 26 253 26 221 q 44 322 26 288 q 93 388 63 356 q 162 452 124 421 q 242 513 200 483 q 203 507 224 507 q 142 528 168 507 q 101 582 117 549 q 38 638 61 596 q 15 735 15 681 q 44 851 15 792 q 143 951 74 911 q 263 994 204 982 q 374 1006 321 1006 q 454 999 414 1006 q 528 982 494 993 q 628 933 583 963 q 703 860 674 904 q 787 767 756 822 q 815 635 818 711 q 788 574 813 606 q 726 508 764 542 q 641 440 688 474 q 547 372 594 406 q 464 314 503 342 q 397 263 425 286 q 478 285 440 269 q 544 315 517 300 l 543 315 m 311 561 q 363 597 338 579 q 410 631 388 614 q 357 598 382 615 q 311 561 332 581 z "},"!":{"ha":488,"x_min":58,"x_max":442,"o":"m 79 871 q 97 598 82 747 q 128 297 113 449 q 158 221 132 249 q 216 192 185 193 q 274 216 247 190 q 306 299 300 242 q 317 435 311 363 q 328 582 322 507 q 338 731 333 657 q 349 874 343 806 q 333 930 351 907 q 283 965 314 953 q 217 979 253 978 q 150 969 181 981 q 99 934 119 958 q 79 871 78 910 m 215 165 q 160 140 179 165 q 140 83 140 114 q 158 26 140 51 q 215 0 176 0 q 274 26 254 0 q 295 83 294 51 q 276 140 296 114 q 215 165 257 165 m 58 871 q 71 928 58 904 q 105 969 83 953 q 154 992 126 985 q 211 1000 182 1000 q 306 977 261 1000 q 364 913 350 954 q 420 869 399 897 q 439 803 442 842 q 431 699 435 753 q 424 588 428 644 q 410 401 417 494 q 396 228 403 307 q 372 149 390 179 q 326 108 353 119 q 372 70 357 97 q 386 15 386 43 q 360 -57 386 -24 q 285 -90 335 -90 q 223 -69 246 -90 q 192 -18 200 -49 q 138 18 156 -11 q 119 81 119 47 q 135 140 119 111 q 181 179 150 168 q 132 221 153 192 q 107 294 111 250 q 100 367 104 331 q 92 439 96 403 q 70 665 79 554 q 58 871 61 775 z "},"#":{"ha":614,"x_min":51,"x_max":563,"o":"m 292 585 q 265 584 278 585 q 239 583 253 583 q 247 619 243 601 q 253 656 250 638 l 306 656 q 299 619 303 638 q 292 585 294 601 m 397 660 q 450 676 431 663 q 472 706 469 690 q 458 734 474 721 q 408 749 443 747 q 396 792 407 776 q 370 809 385 808 q 342 795 356 810 q 321 746 328 781 l 264 746 q 253 792 264 775 q 226 811 242 810 q 197 797 211 813 q 176 746 182 782 l 164 746 q 108 732 128 744 q 88 704 89 719 q 103 675 86 689 q 161 657 121 661 q 153 619 157 638 q 146 583 150 601 q 95 570 114 582 q 73 544 76 558 q 83 516 69 529 q 131 497 97 503 q 139 451 129 468 q 163 433 149 435 q 192 444 176 431 q 218 493 207 458 l 275 493 q 284 447 274 464 q 309 429 294 431 q 339 444 324 428 q 364 497 354 460 q 383 499 376 497 q 437 516 418 501 q 456 547 456 531 q 440 575 457 563 q 385 588 422 588 q 391 624 388 606 q 397 660 394 642 m 482 739 q 487 730 485 735 q 492 721 489 725 q 497 699 494 713 q 546 676 529 692 q 563 640 563 660 q 542 598 563 618 q 485 571 522 578 q 482 553 483 563 q 479 538 481 544 q 531 515 514 532 q 547 479 547 499 q 523 434 547 456 q 454 408 499 413 q 451 407 449 407 q 449 407 454 407 q 418 355 436 371 q 381 339 400 339 q 345 356 361 339 q 325 403 329 372 l 301 403 q 272 356 289 369 q 236 342 254 342 q 199 360 215 342 q 179 410 182 378 q 174 411 175 410 l 167 411 q 129 429 146 411 q 110 479 113 447 q 68 506 85 489 q 51 539 51 522 q 70 579 51 561 q 129 603 89 597 q 131 617 131 610 q 133 631 132 624 q 135 635 135 635 q 135 635 135 635 q 135 635 135 635 q 136 638 135 635 l 136 639 q 85 665 103 647 q 67 701 67 682 q 90 744 67 725 q 158 767 114 764 q 187 816 169 800 q 224 832 204 832 q 262 815 244 832 q 283 767 279 799 l 304 767 q 332 815 315 799 q 368 831 349 831 q 406 815 389 831 q 428 768 424 800 q 471 750 456 761 q 473 747 472 749 q 476 744 474 746 l 478 743 l 482 739 z "},"$":{"ha":858,"x_min":78,"x_max":781,"o":"m 354 163 q 363 199 358 181 q 372 236 368 217 q 382 232 376 235 q 421 206 410 219 q 428 182 432 193 q 404 165 424 171 q 354 163 385 160 m 261 464 q 269 508 263 485 q 289 551 276 531 q 320 586 301 571 q 364 606 339 601 q 341 488 353 549 q 318 365 329 428 q 274 405 290 382 q 261 464 258 428 m 531 531 q 588 513 557 506 q 643 550 618 521 q 682 622 668 579 q 688 707 696 664 q 647 787 681 750 q 544 842 614 824 q 530 845 538 844 q 514 849 522 846 q 498 878 510 867 q 472 890 486 889 q 444 883 458 892 q 418 853 429 874 q 288 812 346 846 q 189 727 231 778 q 125 612 147 676 q 101 481 103 547 q 112 401 100 433 q 149 347 124 369 q 212 305 174 324 q 300 265 250 286 q 292 222 296 243 q 285 179 288 200 q 249 194 268 186 q 210 213 229 201 q 165 210 188 224 q 129 172 142 196 q 120 118 117 147 q 156 69 124 89 q 209 40 182 51 q 264 19 236 28 q 279 -31 265 -25 q 313 8 293 -36 q 426 6 371 -1 q 522 35 481 14 q 590 90 564 57 q 617 165 615 124 q 599 232 618 206 q 547 276 579 258 q 474 307 514 294 q 396 332 435 319 q 428 459 411 394 q 460 585 444 524 q 531 531 493 568 m 585 446 q 563 466 574 457 q 543 482 553 475 q 522 401 532 440 q 500 318 511 361 q 577 281 543 303 q 626 224 611 260 q 685 174 663 204 q 707 94 708 143 q 685 21 706 54 q 628 -36 664 -12 q 546 -74 593 -60 q 446 -87 499 -87 q 419 -87 432 -87 q 394 -85 407 -86 q 351 -122 375 -122 q 313 -65 317 -122 q 297 -59 304 -62 q 281 -53 289 -56 q 258 -43 271 -53 q 236 -30 247 -36 q 214 -17 225 -24 l 214 -18 q 171 36 179 4 q 158 44 164 40 q 144 53 151 47 l 144 51 q 109 89 119 67 q 99 132 99 111 q 110 178 99 156 q 139 215 121 200 q 178 235 157 231 q 219 231 199 240 q 242 220 228 226 q 267 208 256 214 l 267 218 q 208 256 232 236 q 169 303 183 275 q 100 371 122 331 q 81 481 78 411 q 105 616 82 550 q 170 735 128 682 q 272 826 213 789 q 406 872 332 863 q 468 913 432 913 q 506 901 489 913 q 531 867 522 890 q 533 866 532 867 q 535 865 533 865 l 533 867 l 550 863 q 636 822 603 847 q 689 764 669 796 q 759 695 738 736 q 781 610 781 654 q 769 540 781 574 q 737 479 757 506 q 692 437 717 453 q 643 421 668 421 q 586 446 615 421 l 585 446 z "},"&":{"ha":850,"x_min":67,"x_max":783,"o":"m 249 215 q 261 274 249 239 q 300 349 274 310 q 344 259 322 303 q 390 181 367 215 q 344 160 369 169 q 299 152 319 151 q 263 167 278 153 q 249 215 249 181 m 429 756 q 419 710 429 736 q 393 656 408 683 q 362 603 378 628 q 335 564 346 578 q 308 640 324 599 q 293 726 293 682 q 319 781 293 765 q 374 796 344 796 q 412 787 394 796 q 429 756 429 778 m 693 332 q 689 348 693 338 q 669 358 685 358 q 628 344 653 358 q 576 312 603 331 q 526 274 550 293 q 489 246 503 256 q 457 290 476 261 q 419 349 438 319 q 388 404 401 379 q 372 436 374 429 q 387 459 375 439 q 415 508 399 479 q 449 571 431 536 q 485 638 468 606 q 514 697 501 671 q 532 735 526 722 q 552 823 550 779 q 538 901 554 867 q 486 956 521 935 q 399 976 451 976 q 310 960 353 976 q 235 915 268 944 q 182 843 201 886 q 163 746 163 800 q 172 696 164 729 q 190 621 179 663 q 216 534 201 579 q 249 451 231 489 q 189 378 218 411 q 138 312 160 344 q 101 244 115 279 q 88 167 88 210 q 100 100 88 131 q 140 48 113 69 q 213 14 168 26 q 324 1 258 1 q 445 22 404 6 q 497 46 486 39 q 514 40 501 46 q 543 26 526 33 q 578 12 560 18 q 614 6 597 6 q 660 20 642 6 q 678 60 678 35 q 656 100 678 89 q 613 96 635 111 q 603 110 610 96 q 590 132 597 125 q 627 181 608 156 q 660 231 646 206 q 684 281 675 256 q 693 332 693 307 m 783 263 q 756 168 783 214 q 696 78 729 122 q 699 60 699 67 l 699 54 q 747 42 725 58 q 768 -10 768 25 q 744 -65 768 -44 q 683 -85 719 -85 q 632 -74 658 -85 q 585 -53 606 -64 l 571 -46 q 511 -69 554 -54 q 393 -89 468 -85 q 233 -61 290 -89 q 153 13 176 -33 q 86 77 106 38 q 67 167 67 117 q 75 234 67 204 q 99 291 83 264 q 133 344 114 318 q 176 397 153 369 q 199 423 190 413 q 224 453 208 433 q 193 535 207 490 q 168 620 179 579 q 150 694 157 661 q 142 743 143 728 q 163 850 142 803 q 220 930 185 897 q 302 980 256 963 q 399 997 349 997 q 499 973 460 997 q 557 908 538 949 q 622 848 600 888 q 643 760 643 808 q 621 657 643 707 q 592 597 613 638 q 547 510 571 556 q 499 423 522 464 q 465 363 476 382 q 483 330 471 350 q 510 286 494 310 l 514 290 q 552 319 532 304 q 593 348 572 335 q 633 370 614 361 q 669 379 653 379 q 692 374 683 379 q 706 360 701 368 q 713 344 711 353 q 714 332 714 336 q 713 318 714 325 q 711 304 713 311 q 725 308 718 307 q 739 310 732 310 q 762 304 753 310 q 776 291 771 299 q 782 275 781 283 q 783 263 783 267 m 351 201 q 348 192 349 196 q 344 182 347 188 q 352 185 349 185 q 360 189 356 186 l 351 201 z "},"'":{"ha":526,"x_min":56,"x_max":421,"o":"m 319 904 q 276 919 297 931 q 232 876 256 907 q 177 807 208 846 q 103 740 146 768 q 187 740 140 726 q 270 782 233 754 q 324 844 307 810 q 319 904 342 878 m 404 849 q 416 802 421 828 q 391 751 411 776 q 339 704 371 726 q 271 669 307 682 q 196 653 235 656 q 125 667 157 651 q 207 708 182 689 q 247 750 232 726 q 189 723 215 731 q 140 716 163 715 q 96 723 117 717 q 56 736 75 729 q 149 808 119 776 q 199 868 179 840 q 233 911 217 892 q 267 940 250 931 q 300 944 283 949 q 336 918 317 940 l 335 918 q 346 874 350 899 q 406 849 376 885 l 404 849 z "},"(":{"ha":518,"x_min":57,"x_max":454,"o":"m 144 850 q 108 751 122 808 q 85 629 93 694 q 78 494 78 564 q 84 355 78 424 q 103 223 90 286 q 136 108 117 160 q 192 27 157 54 q 257 0 228 0 q 300 26 286 0 q 292 106 314 53 q 244 273 261 176 q 229 473 226 369 q 258 676 232 576 q 339 851 283 775 q 362 931 374 899 q 314 969 350 964 q 230 948 278 975 q 144 850 182 921 m 126 860 q 212 961 164 931 q 300 992 260 992 q 359 973 336 992 q 385 921 382 954 q 435 897 417 917 q 454 846 454 878 q 425 769 454 808 q 346 585 372 690 q 319 376 319 481 q 336 197 319 283 q 381 44 353 111 q 392 10 389 25 q 394 -19 394 -6 q 376 -73 394 -56 q 328 -90 357 -90 q 266 -68 300 -90 q 204 -4 232 -46 q 156 38 179 11 q 117 101 132 64 q 72 280 88 178 q 57 483 57 382 q 74 692 57 593 q 126 860 92 792 z "},")":{"ha":508,"x_min":54,"x_max":451,"o":"m 382 790 q 434 623 417 722 q 451 414 451 524 q 436 210 451 313 q 392 32 421 108 q 325 -58 367 -26 q 250 -90 283 -90 q 202 -73 221 -90 q 183 -21 183 -56 l 181 -21 q 133 -3 151 -21 q 114 50 114 14 q 117 79 114 64 q 128 114 119 94 q 172 267 156 181 q 189 446 189 353 q 163 655 189 550 q 83 839 136 760 q 54 915 54 878 q 78 972 54 951 q 139 992 101 992 q 214 969 174 992 q 290 894 254 947 q 339 853 315 879 q 382 790 363 828 m 294 850 q 209 948 257 921 q 125 969 161 975 q 77 931 89 964 q 100 851 65 899 q 181 676 156 775 q 210 473 207 576 q 195 273 213 369 q 147 106 178 176 q 139 26 125 53 q 182 0 153 0 q 247 27 211 0 q 303 108 282 54 q 335 223 322 160 q 355 355 349 286 q 361 494 361 424 q 353 629 361 564 q 331 751 346 694 q 294 850 317 808 z "},"?":{"ha":997,"x_min":131,"x_max":890,"o":"m 351 165 q 296 140 315 165 q 276 83 276 114 q 294 26 276 51 q 351 0 313 0 q 410 26 389 0 q 431 83 431 51 q 413 140 432 114 q 351 165 393 165 m 306 933 q 197 851 232 894 q 153 769 161 808 q 160 697 146 729 q 201 647 175 664 q 261 631 228 629 q 325 664 294 633 q 433 738 385 724 q 517 736 482 751 q 574 686 553 721 q 599 613 594 651 q 580 542 603 564 q 520 506 557 519 q 440 482 483 493 q 359 446 396 471 q 299 374 322 421 q 281 243 275 326 q 312 191 288 207 q 361 177 336 175 q 405 198 386 179 q 419 249 424 217 q 439 328 414 301 q 505 372 464 356 q 596 403 546 389 q 690 440 646 417 q 764 506 733 464 q 797 621 794 547 q 763 794 801 714 q 656 923 724 874 q 498 979 589 972 q 306 933 407 986 m 296 951 q 481 1000 392 1000 q 630 964 563 1000 q 742 867 697 928 q 851 731 813 814 q 888 550 890 647 q 863 448 885 489 q 806 380 840 407 q 731 336 772 353 q 651 307 690 319 q 595 288 622 297 q 548 264 568 278 q 517 231 528 250 q 510 182 507 211 q 503 134 513 154 q 475 103 493 114 q 510 66 499 89 q 521 17 521 43 q 515 -22 521 -3 q 496 -56 508 -40 q 465 -81 483 -71 q 421 -90 446 -90 q 359 -69 382 -90 q 328 -18 336 -49 q 274 18 292 -11 q 256 81 256 47 q 267 131 256 107 q 301 171 278 156 q 275 197 286 181 q 260 238 264 214 q 272 361 254 313 q 322 440 290 410 q 392 485 353 469 q 468 511 431 500 q 512 525 490 518 q 549 543 533 532 q 572 570 564 554 q 578 611 581 586 q 568 651 575 632 q 558 653 563 653 q 546 654 553 654 q 484 637 518 654 q 410 579 450 619 q 367 550 390 560 q 322 540 344 540 q 256 561 286 540 q 211 618 226 582 q 153 665 176 632 q 131 743 131 699 q 167 847 131 792 q 296 951 204 903 z "},"=":{"ha":743,"x_min":101,"x_max":658,"o":"m 232 260 q 349 258 297 257 q 467 264 401 260 q 542 298 515 268 q 568 361 568 328 q 541 420 568 394 q 457 442 514 446 q 337 439 390 439 q 226 438 283 439 q 151 410 178 436 q 122 351 124 383 q 147 290 121 318 q 232 260 174 263 m 457 185 q 337 181 390 181 q 226 181 283 182 q 151 152 178 179 q 122 93 124 125 q 147 33 121 61 q 232 3 174 6 q 349 0 297 -1 q 467 7 401 1 q 542 40 515 11 q 568 103 568 69 q 541 163 568 136 q 457 185 514 189 m 101 90 q 128 160 101 128 q 208 200 156 193 q 175 250 183 221 q 119 291 138 264 q 101 347 101 318 q 134 422 101 388 q 225 458 167 456 q 276 460 249 460 q 325 460 303 460 q 388 460 356 460 q 456 463 419 460 q 546 442 514 465 q 586 386 578 419 q 640 349 622 375 q 658 292 658 322 q 632 221 658 254 q 557 176 606 188 q 586 129 579 158 q 640 92 622 118 q 658 35 658 65 q 651 -6 658 14 q 627 -42 643 -25 q 589 -69 611 -58 q 538 -83 567 -81 q 460 -88 496 -86 q 389 -90 425 -90 q 346 -90 368 -90 q 300 -87 324 -89 q 214 -61 244 -85 q 175 -7 183 -37 q 119 34 138 7 q 101 90 101 61 z "},";":{"ha":368,"x_min":47,"x_max":314,"o":"m 143 100 q 99 80 114 101 q 77 26 83 58 q 72 -44 71 -6 q 78 -119 74 -83 q 88 -183 82 -156 q 97 -218 94 -210 q 122 -228 106 -242 q 153 -178 138 -214 q 183 -95 169 -143 q 198 -4 196 -47 q 188 69 200 39 q 143 100 176 100 m 143 174 q 202 199 182 174 q 223 256 222 225 q 204 313 224 288 q 143 339 185 339 q 88 313 107 339 q 68 256 68 288 q 86 199 68 225 q 143 174 104 174 m 206 83 q 211 68 208 76 q 215 51 214 60 q 272 17 256 49 q 289 -58 289 -14 q 272 -167 289 -111 q 231 -261 254 -222 q 183 -313 207 -300 q 147 -294 160 -326 q 132 -229 140 -276 q 101 -247 115 -246 q 78 -225 86 -247 q 71 -197 75 -217 q 63 -151 67 -178 q 55 -94 58 -125 q 51 -35 51 -64 q 56 22 51 -6 q 69 72 60 50 q 94 106 78 93 q 136 121 111 119 q 119 154 125 135 q 65 192 83 163 q 47 254 47 221 q 72 326 47 293 q 143 360 96 360 q 208 338 183 360 q 240 286 233 317 q 295 249 276 276 q 314 189 314 221 q 288 117 314 150 q 213 83 263 83 l 206 83 z "},":":{"ha":400,"x_min":71,"x_max":336,"o":"m 167 246 q 225 272 204 246 q 247 328 246 297 q 228 385 247 360 q 167 411 208 411 q 111 385 131 411 q 92 328 92 360 q 110 272 92 297 q 167 246 128 246 m 167 165 q 111 140 131 165 q 92 83 92 114 q 110 26 92 51 q 167 0 128 0 q 225 26 204 0 q 247 83 246 51 q 228 140 247 114 q 167 165 208 165 m 71 81 q 94 151 71 118 q 164 186 118 185 q 143 226 150 203 q 89 264 107 235 q 71 326 71 293 q 95 399 71 365 q 167 432 119 432 q 233 410 208 432 q 264 360 257 389 q 318 323 300 351 q 336 263 336 294 q 312 192 336 225 q 242 156 288 158 q 264 114 257 138 q 318 77 300 106 q 336 17 336 49 q 330 -22 336 -3 q 311 -56 324 -40 q 280 -81 299 -71 q 236 -90 261 -90 q 174 -69 197 -90 q 143 -18 151 -49 q 89 18 107 -11 q 71 81 71 47 z "},"/":{"ha":703,"x_min":33,"x_max":668,"o":"m 368 913 q 329 815 353 874 q 277 685 306 756 q 217 538 249 615 q 158 388 186 461 q 104 248 129 314 q 63 133 79 182 q 58 52 47 86 q 94 6 69 18 q 151 8 119 -7 q 207 75 182 24 q 251 169 224 111 q 313 299 279 228 q 381 447 346 369 q 451 597 417 524 q 515 733 485 669 q 567 839 546 796 q 576 895 582 868 q 553 942 571 922 q 510 974 536 963 q 458 984 485 986 q 406 965 431 982 q 368 913 382 949 m 349 919 q 397 985 365 965 q 464 1006 429 1006 q 540 982 504 1006 q 590 922 575 958 q 645 878 622 907 q 668 813 668 849 q 654 760 668 790 q 609 667 635 722 q 554 549 583 613 q 493 418 525 486 q 431 285 461 350 q 353 117 390 194 q 296 -3 317 40 q 244 -69 274 -47 q 188 -90 215 -90 q 137 -71 158 -90 q 107 -19 115 -51 q 54 12 75 -15 q 33 83 33 39 q 43 139 33 110 q 87 263 60 190 q 145 415 114 335 q 210 578 176 496 q 272 732 243 660 q 316 838 296 790 q 349 919 336 886 z "},".":{"ha":401,"x_min":68,"x_max":335,"o":"m 164 165 q 108 140 128 165 q 89 83 89 114 q 107 26 89 51 q 164 0 125 0 q 223 26 203 0 q 244 83 243 51 q 225 140 244 114 q 164 165 206 165 m 164 186 q 229 165 204 186 q 261 113 254 143 q 316 75 297 103 q 335 15 335 47 q 309 -57 335 -24 q 233 -90 283 -90 q 172 -69 194 -90 q 140 -18 149 -49 q 86 18 104 -11 q 68 81 68 47 q 92 153 68 119 q 164 186 117 186 z "},"-":{"ha":742,"x_min":99,"x_max":656,"o":"m 454 271 q 334 267 388 267 q 224 267 281 268 q 148 239 175 265 q 119 180 121 213 q 144 119 118 147 q 229 89 171 92 q 347 87 294 85 q 464 93 399 89 q 539 126 513 97 q 565 189 565 156 q 538 249 565 222 q 454 271 511 275 m 453 292 q 543 272 511 294 q 583 215 575 249 q 638 178 619 204 q 656 121 656 151 q 648 81 656 100 q 624 44 640 61 q 586 17 608 28 q 535 3 564 6 q 453 -2 490 0 q 379 -4 417 -4 q 340 -3 360 -4 q 297 -1 319 -3 q 211 24 242 1 q 172 79 181 47 q 117 120 135 93 q 99 176 99 147 q 131 252 99 218 q 224 288 163 286 l 297 288 q 371 288 333 288 q 453 292 408 289 z "},",":{"ha":317,"x_min":42,"x_max":279,"o":"m 133 144 q 89 124 104 146 q 67 71 74 103 q 63 0 61 39 q 69 -75 64 -39 q 79 -138 74 -111 q 88 -174 85 -165 q 112 -183 96 -197 q 144 -134 128 -169 q 173 -51 160 -99 q 189 40 186 -3 q 179 114 192 83 q 133 144 167 144 m 133 165 q 183 146 165 165 q 206 96 200 126 q 263 62 246 93 q 279 -14 279 31 q 261 -124 279 -68 q 219 -220 243 -181 q 172 -272 196 -260 q 138 -250 149 -285 q 131 -227 135 -243 q 124 -187 128 -211 q 91 -206 106 -206 q 68 -181 76 -206 q 61 -154 65 -174 q 53 -108 57 -135 q 45 -50 49 -81 q 42 11 42 -19 q 46 70 42 42 q 60 120 50 99 q 88 154 71 142 q 133 165 106 167 z "},"−":{"ha":747,"x_min":99,"x_max":656,"o":"m 454 271 q 334 267 388 267 q 224 267 281 268 q 148 239 175 265 q 119 180 121 213 q 144 119 118 147 q 229 89 171 92 q 347 87 294 85 q 464 93 399 89 q 539 126 513 97 q 565 189 565 156 q 538 249 565 222 q 454 271 511 275 m 453 292 q 543 272 511 294 q 583 215 575 249 q 638 178 619 204 q 656 121 656 151 q 648 81 656 100 q 624 44 640 61 q 586 17 608 28 q 535 3 564 6 q 453 -2 490 0 q 379 -4 417 -4 q 340 -3 360 -4 q 297 -1 319 -3 q 211 24 242 1 q 172 79 181 47 q 117 120 135 93 q 99 176 99 147 q 131 252 99 218 q 224 288 163 286 l 297 288 q 371 288 333 288 q 453 292 408 289 z "},"+":{"ha":646,"x_min":44,"x_max":601,"o":"m 400 317 q 388 315 393 315 q 378 315 383 315 q 378 328 378 322 q 376 342 378 335 q 349 417 375 390 q 290 446 322 444 q 229 421 257 447 q 199 338 201 394 q 199 325 199 331 q 197 313 199 319 q 183 312 190 313 q 169 311 176 311 q 94 283 121 310 q 65 224 67 257 q 90 164 64 192 q 175 133 117 136 q 188 133 182 133 q 201 132 194 133 q 203 117 203 125 q 204 101 203 110 q 238 26 208 53 q 300 0 267 0 q 359 27 333 0 q 382 113 385 54 q 381 124 381 119 q 381 136 381 129 q 395 137 388 136 q 410 139 403 138 q 485 172 458 143 q 511 235 511 201 q 484 294 511 268 q 400 317 457 319 m 286 467 q 346 447 318 467 q 388 392 374 428 q 453 332 431 376 q 503 304 485 324 q 528 261 521 285 q 583 224 565 250 q 601 165 601 197 q 570 90 601 125 q 481 49 539 54 q 476 47 474 47 q 472 47 479 47 l 472 46 q 443 -58 475 -25 q 369 -90 411 -90 q 308 -71 338 -90 q 264 -14 279 -51 q 196 50 217 1 q 144 81 164 61 q 118 124 125 100 q 63 165 81 138 q 44 221 44 192 q 76 297 44 263 q 169 332 108 331 l 178 332 l 178 338 q 214 435 181 404 q 286 467 247 467 z "},"Æ":{"ha":1267,"x_min":19,"x_max":1247,"o":"m 213 329 q 227 451 215 394 q 260 548 239 507 q 310 612 281 589 q 375 635 339 635 q 438 609 410 635 q 485 536 465 583 q 516 422 506 489 q 528 272 526 356 q 469 270 506 269 q 388 277 432 271 q 298 296 344 283 q 213 329 251 308 m 1040 272 q 985 229 1017 247 q 916 199 953 211 q 840 179 879 186 q 763 172 800 172 q 747 249 751 210 q 740 331 743 289 q 807 321 776 322 q 854 324 838 319 q 914 370 896 335 q 931 442 932 406 q 912 506 931 479 q 863 528 893 533 q 738 515 783 515 q 734 629 736 572 q 721 744 732 686 q 794 733 758 743 q 861 710 829 724 q 920 678 893 696 q 968 642 947 660 q 1048 600 1011 603 q 1111 619 1085 597 q 1149 680 1138 640 q 1155 765 1161 719 q 1120 856 1149 811 q 1038 935 1092 901 q 1033 936 1035 935 q 915 976 975 965 q 796 981 854 988 q 683 951 738 974 q 582 892 628 929 q 488 955 542 932 q 363 976 435 978 q 233 942 288 975 q 142 856 179 910 q 84 733 106 803 q 52 588 63 663 q 40 436 42 513 q 42 294 39 360 q 52 177 46 228 q 64 101 58 126 q 105 28 74 54 q 168 1 136 3 q 222 23 200 -1 q 233 100 243 47 q 221 175 225 138 q 286 160 247 167 q 367 153 325 154 q 449 154 408 151 q 522 168 490 157 q 518 140 519 153 q 514 111 517 126 q 517 42 507 68 q 546 5 526 15 q 590 -1 565 -6 q 638 21 615 4 q 760 2 690 4 q 900 10 831 0 q 1028 44 969 21 q 1118 99 1088 67 q 1153 176 1149 132 q 1143 253 1157 219 q 1101 297 1129 286 q 1040 272 1074 307 m 1025 286 q 1089 319 1056 319 q 1135 300 1115 319 q 1167 249 1156 281 q 1223 208 1201 244 q 1244 126 1244 172 q 1235 69 1244 99 q 1203 15 1225 39 q 1141 -28 1179 -10 q 1056 -61 1103 -47 q 956 -82 1008 -75 q 853 -89 903 -89 q 778 -85 815 -89 q 711 -72 742 -81 q 678 -87 696 -83 q 646 -92 661 -92 q 594 -74 617 -92 q 563 -21 571 -57 q 515 3 535 -18 q 490 63 494 24 l 467 63 q 388 67 428 63 q 315 78 347 71 q 319 56 317 68 q 324 35 321 44 q 309 -60 336 -29 q 242 -90 282 -90 q 176 -69 210 -90 q 125 -10 143 -49 q 74 30 97 3 q 43 97 50 57 q 28 213 36 132 q 19 394 19 293 q 25 531 19 461 q 45 668 31 601 q 85 794 60 735 q 148 899 110 854 q 239 969 186 943 q 363 997 292 996 q 487 977 431 999 q 583 919 543 956 q 704 982 638 960 q 842 1004 771 1004 q 1049 951 947 1004 l 1044 956 q 1133 874 1103 919 q 1221 774 1194 831 q 1247 665 1247 718 q 1238 605 1247 633 q 1214 555 1229 576 q 1176 521 1199 533 q 1128 508 1154 508 q 1024 557 1079 508 q 933 615 989 588 q 817 651 876 643 q 825 543 822 600 q 841 545 832 544 q 860 549 850 546 l 858 549 q 915 535 892 556 q 947 481 938 514 q 1002 444 982 478 q 1022 368 1022 410 q 1000 286 1022 326 q 929 233 978 246 q 889 230 914 231 q 832 235 864 229 q 833 216 832 225 q 835 197 833 207 q 942 228 892 207 q 1025 286 992 250 m 507 290 q 492 436 504 372 q 461 542 481 500 q 444 544 450 544 q 353 480 389 544 q 307 314 318 415 q 401 295 354 300 q 483 290 447 290 q 498 290 497 290 q 507 290 499 289 z "},"Ç":{"ha":825,"x_min":18,"x_max":807,"o":"m 417 579 q 439 524 417 546 q 494 492 461 503 q 564 483 526 482 q 635 497 601 485 q 691 533 668 510 q 715 593 714 557 q 714 655 717 617 q 700 735 711 693 q 667 820 689 778 q 610 897 646 863 q 520 952 574 931 q 392 974 467 974 q 224 931 292 974 q 115 818 156 888 q 56 661 74 749 q 40 485 39 574 q 53 316 40 397 q 96 169 65 235 q 179 58 126 103 q 315 -1 232 13 q 318 -60 315 -31 q 325 -114 321 -89 q 333 -157 329 -139 q 340 -182 338 -175 q 361 -194 347 -204 q 390 -156 375 -185 q 419 -85 406 -126 q 439 -1 432 -43 q 550 46 501 10 q 633 133 599 82 q 686 243 668 183 q 706 363 704 303 q 681 391 706 382 q 628 398 657 400 q 574 383 599 396 q 549 347 549 371 q 523 250 547 294 q 463 181 499 206 q 385 155 426 156 q 308 186 343 154 q 251 289 274 218 q 229 478 228 360 q 259 645 231 578 q 322 732 288 713 q 386 717 357 751 q 417 579 415 682 m 392 994 q 559 958 494 994 q 663 868 624 921 q 740 785 711 833 q 785 688 769 738 q 803 594 800 639 q 806 522 807 550 q 773 447 803 476 q 700 404 743 418 q 726 363 726 389 q 726 356 726 360 q 725 349 725 351 q 775 331 754 346 q 796 293 796 317 q 776 171 794 232 q 722 57 757 110 q 637 -35 686 4 q 526 -89 588 -74 q 499 -184 518 -139 q 460 -257 481 -229 q 421 -288 440 -285 q 390 -258 401 -292 q 384 -237 388 -251 q 378 -203 381 -222 q 345 -218 360 -219 q 321 -189 331 -217 q 310 -143 318 -178 q 297 -65 303 -108 q 185 29 229 -31 q 106 112 138 63 q 55 221 74 161 q 28 348 36 281 q 19 485 19 415 q 37 668 18 576 q 99 832 56 760 q 215 949 143 904 q 392 994 286 994 m 396 579 q 394 610 396 596 q 392 638 393 625 q 342 557 364 617 q 319 408 321 497 q 328 272 318 328 q 357 179 339 215 q 386 175 371 175 q 438 188 413 175 q 483 225 463 201 q 515 280 503 249 q 528 347 528 311 q 538 378 528 365 q 564 401 549 392 q 504 430 529 411 q 469 479 479 449 q 417 518 438 493 q 396 579 396 543 z "},"@":{"ha":1258,"x_min":101,"x_max":1151,"o":"m 592 168 q 469 193 526 168 q 369 262 413 218 q 302 365 326 306 q 278 490 278 424 q 302 616 278 557 q 369 719 326 675 q 469 788 413 763 q 592 813 526 813 q 714 788 657 813 q 814 719 771 763 q 881 616 857 675 q 906 490 906 557 q 881 365 906 424 q 814 262 857 306 q 714 193 771 218 q 592 168 657 168 m 592 981 q 406 942 493 981 q 255 838 319 904 q 153 681 190 771 q 115 490 115 592 q 153 300 115 389 q 255 144 190 211 q 406 40 319 78 q 592 1 493 1 q 777 40 690 1 q 928 144 864 78 q 1031 300 993 211 q 1068 490 1068 389 q 1031 681 1068 592 q 928 838 993 771 q 777 942 864 904 q 592 981 690 981 m 629 478 q 601 431 621 444 q 559 419 581 417 q 522 440 538 422 q 506 486 506 457 q 527 535 507 518 q 571 551 547 551 q 613 532 594 550 q 629 478 631 514 m 632 604 q 568 630 606 626 q 497 619 531 633 q 439 571 463 604 q 415 486 415 538 q 441 388 415 424 q 503 338 467 351 q 579 331 540 325 q 646 360 618 338 q 669 336 654 343 q 698 331 683 329 q 724 346 713 333 q 738 383 735 358 q 742 438 740 415 q 744 480 743 460 q 747 524 746 500 q 751 581 749 547 q 738 615 753 601 q 703 631 724 628 q 662 628 682 635 q 632 604 642 622 m 592 994 q 801 947 704 994 q 965 815 899 899 q 1101 644 1051 746 q 1151 421 1151 542 q 1113 225 1151 317 q 1008 65 1075 133 q 852 -42 942 -3 q 661 -82 763 -82 q 449 -33 546 -82 q 283 99 351 15 q 151 270 200 169 q 101 490 101 371 q 140 687 101 594 q 244 847 178 779 q 400 955 311 915 q 592 994 489 994 m 592 182 q 693 201 644 182 q 781 251 742 219 q 761 247 769 247 q 735 253 749 247 q 713 271 722 260 q 671 253 694 260 q 624 246 647 246 q 546 265 583 246 q 488 329 508 285 q 426 383 451 346 q 401 486 401 421 q 415 555 401 525 q 450 605 428 585 q 499 635 472 625 q 554 644 526 644 q 629 624 597 644 q 656 640 640 635 q 688 646 672 646 q 743 628 718 646 q 765 579 768 611 l 765 576 q 815 557 793 574 q 835 510 838 540 q 831 453 832 476 q 828 411 829 431 q 825 367 826 390 q 821 313 824 344 q 814 283 819 299 q 871 377 850 324 q 892 490 892 431 q 876 588 892 542 q 832 674 860 635 q 753 715 796 700 q 661 729 710 729 q 544 705 599 729 q 449 639 490 681 q 385 541 408 597 q 361 421 361 485 q 377 322 361 368 q 421 238 393 276 q 500 197 457 211 q 592 182 543 182 z "},"©":{"ha":882,"x_min":42,"x_max":824,"o":"m 750 224 q 724 218 733 231 q 735 240 724 233 q 758 238 747 247 q 747 238 754 239 q 736 233 739 236 q 750 224 744 233 m 613 285 q 602 309 601 296 q 613 333 603 322 q 606 344 607 336 q 611 354 604 353 q 652 355 631 357 q 681 335 674 353 q 676 336 678 336 q 671 338 674 336 l 674 335 q 681 308 682 322 q 668 285 679 294 q 677 287 671 285 q 686 292 683 289 q 681 284 685 288 q 672 278 676 281 q 641 272 658 272 q 613 285 624 272 m 622 335 q 610 315 614 328 q 615 290 606 301 q 642 277 628 275 q 666 290 657 279 q 674 314 675 300 q 657 339 674 328 q 641 338 650 339 q 622 335 632 338 m 599 246 q 581 233 593 236 q 568 238 572 233 q 564 243 565 240 q 553 240 557 243 q 543 239 550 236 q 538 252 536 242 q 542 261 539 263 q 542 251 542 254 q 546 242 542 247 q 553 244 550 240 q 567 249 557 249 q 581 238 569 233 q 597 251 592 242 q 613 250 607 246 q 613 264 617 254 q 615 247 621 257 q 599 246 607 238 m 585 275 q 573 315 574 290 q 571 364 572 339 q 571 371 571 367 q 572 376 571 375 q 575 358 575 367 q 575 338 575 349 q 585 275 578 299 m 531 329 q 538 303 540 318 q 526 276 535 288 q 500 257 517 265 q 468 251 483 249 q 501 265 490 257 q 469 274 483 263 q 461 308 456 286 q 490 338 465 326 q 470 336 479 338 q 454 335 461 335 q 477 352 458 346 q 511 356 496 358 q 522 353 515 356 q 532 349 529 351 q 534 340 535 346 q 531 329 533 333 m 496 272 q 517 278 508 271 q 530 294 526 285 q 531 313 533 303 q 521 328 529 324 q 515 331 518 331 q 507 333 513 333 q 485 326 496 331 q 472 313 475 321 q 472 283 464 293 q 496 272 481 272 m 367 175 q 367 191 363 185 q 380 199 372 197 q 395 199 388 201 q 404 188 403 196 q 390 182 397 185 q 383 164 383 179 q 383 178 378 171 q 393 189 388 186 q 376 192 386 199 q 367 175 367 186 m 814 394 q 817 364 824 382 q 804 338 810 346 q 788 322 797 329 q 769 308 778 315 q 718 276 750 294 q 719 274 718 275 q 719 271 719 272 q 742 276 731 278 q 763 265 754 274 q 775 238 775 253 q 767 210 775 222 q 747 191 760 197 q 719 192 733 185 q 682 142 713 161 q 619 115 651 122 q 568 110 594 111 q 517 110 542 108 q 459 125 482 111 q 421 161 436 139 q 388 136 408 140 q 354 147 365 132 q 343 179 343 161 q 353 213 343 197 q 383 226 364 228 q 380 240 381 233 q 376 253 379 247 q 338 267 357 260 q 304 285 319 275 q 290 314 289 297 q 299 331 292 325 q 315 335 306 336 q 331 328 324 335 q 340 310 339 322 q 335 306 339 303 q 327 314 332 308 q 317 322 322 319 q 306 318 311 325 q 304 303 300 311 q 318 289 308 296 q 342 277 329 282 q 371 267 356 272 q 369 270 369 268 q 368 275 369 272 q 378 285 378 278 q 371 300 378 293 q 356 308 364 307 q 344 317 349 310 q 346 328 342 322 q 354 338 350 333 q 362 349 358 343 q 361 361 365 354 q 339 379 354 374 q 317 400 324 385 q 319 420 314 411 q 332 439 325 429 q 336 460 340 451 q 322 477 332 469 q 301 490 313 485 q 283 503 289 496 q 261 553 263 524 q 271 603 260 582 q 283 617 275 610 q 299 633 292 625 q 308 651 306 642 q 303 668 311 660 q 288 675 299 676 q 254 657 269 669 q 221 633 239 644 q 167 615 194 617 q 114 621 139 614 q 74 642 94 628 q 47 682 53 657 q 50 741 42 710 q 82 793 58 772 q 108 811 94 803 q 133 826 122 819 q 164 842 147 833 q 183 878 181 851 q 183 881 183 879 q 182 886 182 883 l 182 892 q 199 872 189 886 q 201 844 208 858 q 189 829 199 838 q 171 815 179 821 q 144 797 158 807 q 116 776 129 788 q 95 752 103 765 q 90 722 88 739 q 114 697 93 699 q 150 699 135 694 q 192 719 175 704 q 223 751 210 733 q 249 787 236 768 q 278 819 261 806 q 305 842 289 831 q 338 857 321 853 q 379 861 357 861 q 422 853 401 861 q 462 831 443 846 q 492 790 481 815 q 492 735 504 763 q 460 679 481 708 q 447 663 453 669 q 443 643 440 657 q 455 628 446 633 q 471 621 464 624 q 503 623 486 618 q 538 636 521 628 q 585 663 561 647 q 631 675 610 678 q 654 666 640 672 q 681 649 668 660 q 705 626 694 639 q 718 599 715 613 q 716 542 724 568 q 708 490 708 517 q 721 465 708 479 q 733 438 733 451 q 724 424 733 431 q 717 410 715 417 q 722 397 718 403 q 726 388 725 392 q 719 368 728 378 q 715 353 711 358 q 728 335 722 342 q 728 317 735 328 q 718 289 721 307 q 778 328 757 311 q 806 371 799 346 q 806 381 807 375 q 803 388 806 386 q 788 381 793 393 q 784 371 786 376 q 779 365 782 365 q 776 376 774 365 q 779 390 778 388 q 797 403 786 403 q 814 394 808 403 m 703 511 q 711 543 706 524 q 710 579 717 563 q 693 600 706 594 q 669 601 681 606 q 647 586 658 597 q 629 567 635 575 q 585 492 606 531 q 563 418 565 454 q 590 451 575 432 q 620 487 604 469 q 651 515 636 504 q 676 525 665 526 q 703 511 689 525 m 308 833 q 271 801 288 818 q 243 764 254 783 q 275 790 258 776 q 309 812 292 803 q 344 823 326 821 q 379 815 363 825 q 405 794 390 808 q 418 744 419 779 q 408 713 417 728 q 388 685 400 699 q 363 658 376 672 q 340 629 350 644 q 335 616 338 625 q 331 601 332 607 q 334 578 331 592 q 343 557 338 564 q 355 549 347 553 q 369 544 363 544 q 402 544 385 542 q 439 550 419 547 q 463 552 450 551 q 483 550 475 553 q 535 502 519 539 q 556 426 550 465 q 571 471 561 449 q 590 511 581 493 q 609 542 600 529 q 621 561 618 556 q 640 585 629 574 q 663 602 651 596 q 688 606 675 608 q 710 589 700 604 q 699 624 707 611 q 672 646 689 635 q 639 663 654 657 q 582 653 613 672 q 529 624 557 638 q 474 614 501 610 q 450 623 463 615 q 432 646 438 631 q 438 667 429 656 q 454 686 447 678 q 480 726 468 703 q 489 768 492 749 q 474 806 486 789 q 444 833 461 822 q 407 848 426 843 q 372 853 388 853 q 341 849 357 853 q 308 833 325 844 m 354 379 q 373 429 354 404 q 418 465 392 454 q 431 471 425 468 q 449 474 438 474 q 501 461 476 468 q 550 431 526 454 q 537 488 547 460 q 503 536 526 517 q 461 548 483 551 q 415 542 439 544 q 363 542 386 538 q 335 564 344 546 q 326 601 325 582 q 338 632 328 617 q 362 662 349 647 q 388 690 375 676 q 408 719 401 704 q 412 765 418 743 q 400 793 406 786 q 369 816 385 808 q 336 818 354 824 q 308 806 324 815 q 278 786 293 797 q 249 763 263 775 q 228 742 236 751 q 187 707 211 722 q 140 689 163 692 q 121 688 132 688 q 103 690 110 688 q 87 708 93 697 q 81 726 81 718 q 91 762 81 747 q 117 788 101 776 q 151 811 133 800 q 183 835 169 822 q 197 853 194 844 q 188 878 199 863 q 178 848 189 860 q 151 826 168 836 q 116 806 135 815 q 82 782 97 796 q 63 754 69 771 q 54 722 56 738 q 58 680 53 701 q 82 643 63 658 q 147 623 110 625 q 214 640 185 621 q 236 656 224 646 q 262 673 249 665 q 287 683 275 681 q 307 675 299 685 q 316 654 317 664 q 310 636 315 644 q 296 619 304 628 q 282 603 288 611 q 269 557 269 585 q 289 507 269 529 q 303 497 294 501 q 322 487 313 493 q 338 473 331 481 q 344 453 344 465 q 333 430 344 440 q 324 404 321 419 q 337 388 326 394 q 354 379 347 382 m 381 264 q 394 260 388 261 q 408 256 401 258 q 418 318 411 288 q 444 376 425 349 q 422 422 422 397 q 433 467 422 447 q 385 436 406 460 q 360 390 365 413 q 360 376 357 381 q 367 365 363 372 q 369 347 374 356 q 358 333 365 339 q 357 317 346 321 q 376 304 368 313 q 383 275 392 292 q 378 271 379 271 q 379 267 379 268 q 381 264 379 267 m 407 207 q 407 225 407 215 q 408 246 407 235 q 396 248 401 247 q 385 250 390 249 q 389 233 388 242 q 393 214 390 224 q 407 207 397 207 m 690 161 q 706 178 699 168 q 713 200 713 188 q 710 213 711 207 q 706 226 708 219 q 703 240 703 235 q 699 253 700 247 q 696 265 699 258 q 656 244 676 254 q 619 226 636 235 q 609 226 611 224 q 615 233 607 229 q 654 254 635 244 q 694 276 674 264 q 694 290 694 283 q 693 304 693 297 q 692 317 692 311 q 692 329 692 324 q 690 342 690 336 q 689 354 690 347 q 685 379 689 368 q 658 407 676 397 q 670 439 676 419 q 656 478 664 458 q 623 456 638 467 q 590 432 608 446 q 577 422 583 428 q 567 414 571 417 q 554 417 561 410 q 515 447 539 436 q 471 463 490 457 q 446 465 451 467 q 433 451 440 463 q 432 414 426 433 q 450 375 438 394 q 424 317 431 347 q 415 254 418 286 q 429 251 426 251 q 490 240 456 244 q 556 229 524 236 q 567 224 567 228 q 561 221 568 221 q 488 228 525 224 q 415 242 451 233 l 415 231 q 416 213 415 225 q 411 197 417 200 q 400 200 408 196 q 389 208 392 204 q 385 221 385 213 q 355 199 363 221 q 358 160 347 176 q 378 149 365 150 q 400 153 390 147 q 408 161 403 156 q 421 176 414 167 q 424 173 422 179 q 429 164 426 167 q 515 122 458 126 q 611 126 564 117 q 690 161 658 135 m 721 263 q 724 256 722 260 q 725 250 725 253 q 717 242 722 244 q 708 238 711 240 q 714 221 710 229 q 719 204 718 213 q 744 203 733 197 q 761 219 756 208 q 766 243 767 231 q 754 263 765 256 q 737 266 746 267 q 721 263 728 265 m 718 253 q 714 264 715 260 q 711 274 713 268 q 704 268 706 271 l 707 247 q 713 251 710 250 q 718 253 717 251 m 715 308 q 719 316 717 313 q 722 325 721 319 q 717 337 724 333 q 708 347 711 340 q 708 360 704 354 q 718 375 711 367 q 717 392 724 386 q 708 410 710 399 q 717 424 708 417 q 724 440 725 432 q 714 462 724 451 q 701 485 704 472 q 701 494 700 489 q 703 503 703 500 q 689 517 700 513 q 669 519 678 522 q 648 508 661 518 q 622 483 635 497 q 597 453 608 468 q 578 429 585 439 q 606 454 593 444 q 635 475 619 464 q 656 488 644 481 q 672 489 667 496 q 668 486 669 488 q 665 481 665 483 q 677 443 674 463 q 669 407 681 424 q 694 364 693 388 q 700 317 696 340 q 701 298 701 307 q 703 279 701 289 q 706 282 706 281 q 710 285 707 283 q 715 308 710 297 m 511 308 q 515 306 514 308 q 517 300 517 303 q 510 292 517 292 q 504 294 507 292 q 501 300 501 297 q 511 308 501 308 m 517 301 q 514 300 515 300 q 511 301 511 301 q 514 304 511 304 q 517 301 517 304 m 646 300 q 638 308 638 300 q 646 315 638 315 q 653 306 653 313 q 646 300 653 296 m 649 313 q 646 311 646 313 q 649 308 646 308 q 650 311 650 308 q 649 313 650 313 m 607 215 q 604 213 608 213 q 593 211 600 214 q 583 207 586 210 q 578 208 579 204 q 590 221 578 215 q 607 215 606 224 m 596 208 q 606 210 601 210 q 611 208 611 210 q 596 204 611 210 q 581 200 581 199 q 596 208 581 206 m 428 104 q 431 103 431 104 q 432 100 432 103 l 432 57 q 431 51 432 53 q 428 50 431 51 q 426 51 426 50 q 425 51 426 51 q 424 57 424 53 l 424 58 q 421 53 421 56 q 419 52 419 53 q 415 51 418 51 q 413 51 414 51 q 411 50 413 50 q 408 51 408 50 q 406 51 407 51 q 400 57 401 53 q 397 60 397 58 q 396 63 397 61 l 396 71 q 400 86 396 79 q 411 90 404 90 q 419 89 415 90 l 424 85 l 424 99 q 425 103 424 103 q 428 104 425 104 m 422 64 q 424 71 424 65 q 422 76 424 75 q 419 82 419 82 q 414 83 418 83 q 410 82 411 83 q 407 76 407 82 q 406 71 406 75 q 407 64 406 65 q 410 60 407 63 q 412 59 411 60 q 414 58 413 58 q 417 59 415 58 q 419 60 418 60 q 421 62 421 61 q 422 64 421 63 m 472 67 q 475 65 474 67 q 476 64 475 64 q 476 63 476 64 q 475 60 476 61 q 472 54 475 60 q 469 53 471 53 q 465 51 468 53 q 463 51 464 51 q 458 50 461 50 q 444 57 451 50 q 440 71 440 61 q 443 82 440 74 q 449 88 444 86 q 460 90 457 90 q 465 89 464 90 q 472 86 469 89 l 475 83 l 475 79 l 475 76 q 472 75 474 75 l 468 75 q 467 78 468 76 q 464 82 463 82 q 460 83 463 83 q 453 79 454 83 q 449 71 449 75 q 449 68 449 69 q 450 65 450 67 q 451 63 450 64 q 453 61 453 63 q 454 60 454 61 q 456 60 454 60 q 460 58 457 58 q 464 60 463 58 q 467 64 467 63 q 468 65 468 64 q 472 67 471 67 m 514 85 q 518 78 517 82 q 519 75 518 76 q 519 71 519 74 q 519 67 519 68 q 518 63 518 65 q 514 57 517 60 q 508 51 513 53 q 505 51 507 51 q 500 50 503 50 q 497 51 497 50 q 493 51 496 51 q 490 53 492 53 q 488 57 489 54 q 483 63 483 58 q 482 71 482 65 q 483 78 482 76 q 488 85 483 82 q 493 89 489 86 q 500 90 496 90 q 508 89 507 90 q 514 85 511 88 m 508 61 q 510 71 510 64 q 508 79 510 78 q 500 83 507 83 q 496 82 497 83 q 493 76 493 82 q 492 71 492 75 q 493 64 492 65 q 496 60 493 63 q 500 58 497 58 q 508 61 506 58 m 553 60 q 553 58 553 58 q 554 56 554 57 l 554 54 l 554 51 q 552 51 553 51 q 550 50 551 50 l 549 51 q 546 54 549 51 l 538 65 l 532 54 q 529 51 529 51 q 526 50 529 51 q 525 51 525 50 q 524 51 525 51 q 522 53 524 53 q 521 54 521 53 q 522 57 521 57 q 525 60 524 57 l 532 72 l 525 83 q 524 86 524 85 q 525 89 524 89 q 528 90 525 90 q 531 89 529 90 q 532 86 531 89 l 538 78 l 544 86 l 547 89 q 550 90 549 90 q 553 89 551 90 q 554 86 553 89 l 553 85 q 551 83 553 85 l 544 72 l 553 60 m 590 89 q 593 88 593 89 q 594 86 594 88 q 593 85 594 86 l 593 82 l 581 49 q 578 40 578 43 q 572 38 578 40 q 567 36 571 36 q 560 38 561 36 q 558 40 560 38 q 560 44 558 42 l 563 44 l 564 44 l 565 44 l 567 44 q 568 46 568 44 q 569 48 569 47 q 571 50 569 49 l 571 51 l 560 82 l 560 86 l 560 88 q 561 89 560 89 q 564 90 563 90 q 567 89 565 90 q 567 88 567 88 q 568 86 568 88 l 576 61 l 583 83 q 584 85 583 85 q 585 86 585 85 l 585 88 q 586 90 586 89 l 589 90 q 590 89 589 90 m 600 61 q 604 60 603 61 q 606 57 604 60 q 605 53 606 54 q 604 51 604 53 q 602 51 603 51 q 600 50 601 50 q 599 51 599 50 q 597 51 599 51 q 596 57 596 53 q 597 60 596 60 q 600 61 597 61 m 647 67 q 649 65 647 67 q 650 63 650 64 l 650 60 q 646 54 647 57 q 640 51 640 51 q 637 51 638 51 q 633 50 636 50 q 619 57 624 50 q 615 71 615 61 q 617 82 615 78 q 619 85 618 85 q 622 88 621 86 q 633 90 628 90 q 640 89 638 90 q 646 86 640 89 q 649 83 649 86 q 649 82 649 82 q 650 81 650 82 l 650 79 q 649 76 650 76 q 646 75 649 75 l 643 75 q 642 78 642 76 q 638 82 638 82 q 633 83 636 83 q 628 79 629 83 q 624 71 624 76 l 624 65 q 625 63 625 64 q 628 61 625 63 q 631 60 628 61 q 633 58 631 58 q 638 60 636 58 q 640 61 639 61 q 642 64 640 61 l 643 65 q 647 67 643 67 m 689 85 q 692 78 692 82 q 693 71 693 76 q 692 63 693 65 q 689 57 692 60 q 686 53 688 54 q 683 51 685 53 q 679 51 681 51 q 675 50 678 50 q 671 51 672 50 q 668 51 669 51 q 663 57 664 53 q 657 63 660 58 q 656 71 656 65 q 657 78 656 76 q 663 85 658 83 q 668 89 664 86 q 675 90 669 90 q 683 89 681 90 q 686 87 685 88 q 689 85 688 86 m 682 61 q 685 71 685 67 q 682 79 685 76 q 675 83 681 83 q 669 82 671 83 q 667 76 669 82 q 666 74 667 75 q 665 71 665 74 q 666 67 665 69 q 667 64 667 65 q 668 62 668 63 q 669 60 668 61 q 675 58 671 58 q 682 61 679 58 m 754 85 l 754 76 l 754 57 l 754 51 q 752 51 753 51 q 750 50 751 50 l 747 50 q 746 51 746 50 q 744 57 744 53 l 744 74 l 744 78 q 743 81 744 78 l 743 82 q 740 83 742 83 q 736 82 738 83 q 735 81 735 82 l 735 78 q 733 71 733 76 l 733 57 q 731 51 733 53 q 729 51 729 51 q 728 50 729 50 q 726 51 726 50 q 724 51 725 51 q 723 53 724 53 q 722 57 722 54 l 722 72 l 722 78 q 721 82 722 82 q 718 83 721 83 q 711 79 713 83 q 710 71 710 76 l 710 57 q 708 51 710 53 q 706 50 708 51 q 703 51 704 50 q 701 57 701 53 l 701 85 l 701 89 q 706 90 703 90 q 708 89 706 90 q 709 88 708 88 q 710 86 710 88 l 710 85 q 715 89 713 88 q 721 90 717 90 q 726 89 725 90 l 731 85 q 736 89 733 86 q 742 90 739 90 q 746 90 744 90 q 750 89 747 89 l 754 85 z "},"÷":{"ha":404,"x_min":71,"x_max":336,"o":"m 167 246 q 225 272 204 246 q 247 328 246 297 q 228 385 247 360 q 167 411 208 411 q 111 385 131 411 q 92 328 92 360 q 110 272 92 297 q 167 246 128 246 m 167 165 q 111 140 131 165 q 92 83 92 114 q 110 26 92 51 q 167 0 128 0 q 225 26 204 0 q 247 83 246 51 q 228 140 247 114 q 167 165 208 165 m 71 81 q 94 151 71 118 q 164 186 118 185 q 143 226 150 203 q 89 264 107 235 q 71 326 71 293 q 95 399 71 365 q 167 432 119 432 q 233 410 208 432 q 264 360 257 389 q 318 323 300 351 q 336 263 336 294 q 312 192 336 225 q 242 156 288 158 q 264 114 257 138 q 318 77 300 106 q 336 17 336 49 q 330 -22 336 -3 q 311 -56 324 -40 q 280 -81 299 -71 q 236 -90 261 -90 q 174 -69 197 -90 q 143 -18 151 -49 q 89 18 107 -11 q 71 81 71 47 z "},"×":{"ha":614,"x_min":61,"x_max":553,"o":"m 415 182 q 407 190 411 186 q 399 197 403 193 q 408 206 404 201 q 418 217 413 211 q 453 292 453 253 q 431 355 453 331 q 369 380 408 379 q 286 342 329 381 q 276 333 281 338 q 267 325 271 329 q 256 335 261 331 q 246 344 251 340 q 171 380 210 379 q 108 358 132 381 q 82 296 83 335 q 121 213 81 257 q 130 202 125 207 q 139 192 135 197 q 128 181 133 186 q 118 168 124 175 q 90 116 96 143 q 91 65 85 89 q 114 25 97 42 q 153 3 131 8 q 201 8 175 -1 q 254 47 228 18 q 263 57 258 53 q 271 65 267 61 q 283 57 278 61 q 294 46 289 53 q 377 -1 336 -1 q 441 28 418 0 q 462 99 464 56 q 415 182 460 143 m 499 128 q 540 75 526 103 q 553 19 553 47 q 523 -58 553 -25 q 450 -90 493 -90 q 400 -78 426 -90 q 346 -33 374 -65 q 346 -37 349 -40 q 342 -33 343 -35 l 339 -36 q 288 -76 314 -64 q 239 -89 263 -89 q 179 -68 206 -89 q 142 -15 153 -47 q 88 25 110 -4 q 67 92 67 54 q 101 182 67 139 q 106 187 104 185 q 110 192 107 189 q 104 201 107 197 l 106 199 q 72 250 82 225 q 61 299 61 275 q 92 372 61 343 q 165 400 122 400 q 212 391 188 400 q 258 361 236 382 q 263 357 261 358 q 268 353 265 356 l 274 358 q 325 392 299 382 q 372 401 351 401 q 433 381 408 401 q 468 328 458 360 q 523 291 503 319 q 543 226 543 263 q 533 179 543 204 q 503 132 524 154 l 499 128 l 500 128 l 499 128 m 114 186 l 113 188 l 114 186 z "},"€":{"ha":1056,"x_min":72,"x_max":978,"o":"m 588 586 q 610 531 588 553 q 665 499 632 510 q 735 490 697 489 q 806 504 772 492 q 862 540 839 517 q 886 600 885 564 q 885 662 888 624 q 871 742 882 700 q 838 827 860 785 q 781 903 817 869 q 691 959 744 938 q 563 981 638 981 q 413 947 475 981 q 308 858 350 914 q 244 731 267 803 q 214 582 221 658 l 197 582 q 122 563 149 581 q 93 523 94 544 q 118 483 92 501 q 203 461 144 464 q 207 460 206 461 q 211 460 208 460 q 215 389 211 424 l 197 389 q 122 369 149 388 q 93 330 94 351 q 118 290 92 308 q 203 268 144 271 q 219 267 211 267 q 235 267 226 267 q 274 159 249 208 q 338 74 300 110 q 431 19 376 39 q 557 0 485 0 q 690 33 631 0 q 790 119 749 67 q 853 238 831 172 q 876 369 875 304 q 852 397 876 388 q 799 404 828 406 q 744 390 769 403 q 719 354 719 378 q 702 274 718 311 q 660 210 686 236 q 603 171 635 183 q 539 163 571 158 q 478 194 507 168 q 429 271 449 219 q 438 272 432 272 q 513 297 486 276 q 539 340 539 317 q 512 380 539 363 q 428 393 485 397 q 415 392 421 393 q 403 392 410 392 q 401 426 401 408 q 400 463 400 443 q 419 464 410 464 q 438 465 428 464 q 513 490 486 469 q 539 533 539 510 q 512 573 539 556 q 428 586 485 590 q 410 585 415 586 q 453 698 424 656 q 511 745 482 740 q 563 713 540 750 q 588 586 586 675 m 563 1001 q 730 965 665 1001 q 833 875 794 928 q 911 792 882 840 q 956 695 940 744 q 974 601 971 646 q 976 529 978 557 q 944 454 974 483 q 871 411 914 425 q 897 369 897 396 q 897 362 897 365 q 896 354 896 358 q 946 338 925 351 q 967 300 967 324 q 942 161 965 231 q 874 36 918 92 q 768 -55 831 -19 q 626 -90 706 -90 q 461 -57 528 -90 q 353 35 394 -24 q 288 99 315 63 q 240 181 260 136 q 167 210 192 188 q 142 257 142 232 q 90 288 107 268 q 72 328 72 307 q 95 375 72 353 q 163 406 118 397 q 142 450 142 426 q 89 481 106 461 q 72 521 72 500 q 104 575 72 550 q 194 603 136 600 q 228 753 203 681 q 297 880 253 825 q 406 968 340 935 q 563 1001 472 1001 m 640 486 q 619 496 626 490 q 629 464 629 479 q 607 415 629 439 q 543 381 585 392 q 560 340 560 361 l 560 339 q 613 313 596 331 q 629 271 629 294 q 604 219 629 243 q 532 185 579 194 q 544 183 539 183 q 556 182 549 182 q 608 195 582 182 q 653 232 633 208 q 685 287 672 256 q 699 354 697 318 q 709 386 699 374 q 735 408 719 399 q 675 437 700 418 q 640 486 650 456 m 567 586 q 565 617 567 603 q 563 644 564 632 q 525 589 543 629 q 560 533 560 568 l 560 532 q 589 522 579 526 q 567 586 567 549 z "},"¢":{"ha":789,"x_min":49,"x_max":744,"o":"m 240 582 q 252 649 240 621 q 281 696 264 678 q 294 581 288 640 q 308 458 300 521 q 260 507 279 476 q 240 582 240 538 m 513 572 q 501 510 513 536 q 470 468 489 485 q 428 444 451 451 q 379 438 404 436 q 368 576 375 504 q 357 717 361 647 q 388 686 375 708 q 401 625 400 664 q 422 594 401 607 q 465 583 442 582 q 504 603 488 585 q 515 665 521 621 q 460 778 507 738 q 350 829 413 818 q 333 883 347 864 q 304 903 319 903 q 277 885 289 904 q 267 828 265 867 q 190 802 226 821 q 126 752 154 783 q 83 678 99 721 q 69 582 67 636 q 96 465 72 514 q 156 385 119 417 q 237 335 192 353 q 331 313 282 318 q 360 258 343 261 q 382 310 378 254 l 386 310 q 472 322 426 310 q 555 364 517 335 q 620 442 593 393 q 651 563 647 490 q 633 622 654 604 q 585 640 611 640 q 535 621 558 639 q 513 572 513 603 m 417 831 q 508 749 474 806 q 554 711 533 733 q 588 660 575 689 q 640 642 617 660 q 671 589 664 625 q 723 562 701 585 q 742 492 744 539 q 710 370 738 421 q 644 288 683 319 q 559 239 606 256 q 469 219 513 222 q 431 168 460 168 q 406 183 419 168 q 382 224 392 197 q 265 265 319 235 q 172 349 210 294 q 89 440 122 383 q 49 581 56 497 q 65 678 49 633 q 108 758 81 724 q 170 815 135 793 q 246 846 206 838 q 267 903 250 882 q 303 925 283 925 q 341 908 322 925 q 368 856 360 890 l 372 856 q 417 831 397 856 m 460 488 q 469 499 464 493 q 476 511 474 504 q 456 535 463 521 q 456 519 456 528 q 458 504 457 511 q 460 488 458 493 z "},"–":{"ha":921,"x_min":110,"x_max":836,"o":"m 635 271 q 545 267 601 268 q 430 267 489 267 q 317 267 371 267 q 235 267 264 267 q 159 239 186 265 q 131 180 132 213 q 156 119 129 147 q 240 89 182 92 q 328 86 274 86 q 442 87 383 86 q 556 89 501 88 q 644 93 611 90 q 719 126 693 97 q 746 189 746 156 q 719 249 746 222 q 635 271 692 275 m 633 292 q 724 272 692 294 q 764 215 756 249 q 818 178 800 204 q 836 121 836 151 q 828 81 836 100 q 805 44 821 61 q 767 17 789 28 q 715 3 744 6 q 660 0 693 1 q 590 -2 628 -1 q 511 -3 551 -3 q 433 -4 471 -4 q 363 -3 396 -4 q 308 -1 331 -3 q 222 24 253 1 q 183 79 192 47 q 128 120 146 93 q 110 176 110 147 q 142 252 110 218 q 235 288 174 286 l 353 288 q 430 288 390 288 q 508 288 469 288 q 578 290 546 289 q 633 292 611 290 z "},"—":{"ha":1188,"x_min":121,"x_max":1101,"o":"m 900 271 q 826 269 878 269 q 708 267 774 268 q 568 267 642 267 q 429 267 494 267 q 315 267 364 267 q 246 267 265 267 q 170 239 197 265 q 142 180 143 213 q 167 119 140 147 q 251 89 193 92 q 324 87 274 88 q 441 86 375 86 q 581 87 507 86 q 720 88 654 88 q 837 90 786 89 q 910 93 888 92 q 985 126 958 97 q 1011 189 1011 156 q 984 249 1011 222 q 900 271 957 275 m 899 292 q 989 272 957 294 q 1029 215 1021 249 q 1083 178 1065 204 q 1101 121 1101 151 q 1094 81 1101 100 q 1070 44 1086 61 q 1032 17 1054 28 q 981 3 1010 6 q 907 0 958 1 q 790 -2 856 -1 q 650 -3 724 -3 q 511 -4 576 -4 q 393 -3 444 -4 q 319 -1 342 -3 q 233 24 264 1 q 194 79 203 47 q 139 120 157 93 q 121 176 121 147 q 153 252 121 218 q 246 288 185 286 l 429 288 q 567 288 494 288 q 706 288 640 288 q 824 290 772 289 q 899 292 876 290 z "},"_":{"ha":1442,"x_min":126,"x_max":1333,"o":"m 1132 185 q 1072 183 1115 183 q 967 182 1028 182 q 834 181 907 182 q 687 181 761 181 q 540 181 613 181 q 409 181 468 181 q 308 181 350 181 q 251 181 265 181 q 176 153 203 179 q 147 94 149 126 q 172 33 146 61 q 257 3 199 6 q 347 1 279 1 q 506 0 415 0 q 699 1 597 0 q 892 2 801 1 q 1051 4 983 3 q 1142 7 1119 6 q 1217 40 1190 11 q 1243 103 1243 69 q 1216 163 1243 136 q 1132 185 1189 189 m 1131 206 q 1221 185 1189 208 q 1261 129 1253 163 q 1315 92 1297 118 q 1333 35 1333 65 q 1326 -6 1333 14 q 1302 -42 1318 -25 q 1264 -69 1286 -58 q 1213 -83 1242 -81 q 1122 -86 1190 -85 q 963 -88 1054 -87 q 769 -90 872 -89 q 575 -90 667 -90 q 415 -90 483 -90 q 325 -87 347 -89 q 239 -61 269 -85 q 200 -7 208 -37 q 144 34 163 7 q 126 90 126 61 q 158 166 126 132 q 251 201 190 200 l 494 201 q 688 201 585 201 q 881 202 790 201 q 1040 203 972 203 q 1131 206 1108 204 z "},"`":{"ha":556,"x_min":113,"x_max":518,"o":"m 500 1100 q 511 1078 518 1090 q 481 1054 504 1065 q 419 1035 457 1043 q 339 1028 382 1028 q 265 1035 300 1028 q 210 1060 231 1043 q 140 1088 167 1067 q 117 1144 113 1108 q 147 1194 124 1181 q 201 1208 169 1208 q 280 1194 238 1208 q 358 1163 322 1179 q 406 1144 383 1154 q 449 1126 429 1135 q 481 1109 468 1117 q 500 1100 494 1101 m 421 1110 q 392 1124 414 1113 q 340 1149 371 1136 q 276 1174 310 1163 q 214 1187 243 1185 q 163 1179 185 1189 q 138 1140 142 1169 q 156 1099 133 1114 q 213 1079 178 1085 q 288 1076 247 1074 q 362 1083 329 1078 q 413 1097 394 1089 q 421 1110 432 1104 z "},"´":{"ha":556,"x_min":103,"x_max":514,"o":"m 138 1107 q 145 1094 126 1101 q 197 1081 164 1086 q 270 1073 229 1075 q 346 1076 311 1071 q 403 1097 381 1082 q 421 1138 425 1111 q 395 1176 417 1167 q 344 1184 374 1186 q 282 1171 315 1182 q 218 1147 249 1160 q 165 1122 188 1133 q 138 1107 143 1110 m 128 1125 q 160 1142 135 1129 q 218 1169 185 1154 q 289 1194 251 1183 q 357 1206 326 1206 q 426 1178 404 1206 q 481 1164 458 1178 q 511 1114 504 1150 q 502 1073 514 1090 q 468 1045 490 1056 q 417 1030 446 1035 q 358 1025 389 1025 q 260 1036 304 1025 q 197 1063 217 1047 q 125 1092 147 1074 q 128 1125 103 1110 z "},"ˆ":{"ha":572,"x_min":86,"x_max":474,"o":"m 246 1182 q 212 1169 235 1182 q 165 1140 189 1157 q 124 1104 142 1122 q 108 1074 107 1086 q 128 1067 108 1068 q 172 1069 147 1067 q 218 1077 196 1072 q 246 1089 240 1082 q 283 1077 260 1082 q 329 1069 307 1072 q 367 1066 351 1065 q 383 1074 383 1067 q 366 1104 383 1086 q 326 1140 349 1122 q 280 1169 303 1157 q 246 1182 257 1182 m 315 1175 q 354 1160 328 1175 q 407 1125 381 1146 q 453 1082 433 1104 q 474 1046 474 1060 q 456 1030 474 1035 q 413 1025 438 1025 q 360 1028 388 1025 q 314 1039 332 1032 q 271 1031 297 1033 q 219 1030 244 1029 q 176 1034 194 1031 q 157 1044 157 1038 q 160 1057 157 1053 q 110 1061 132 1057 q 88 1072 88 1065 q 106 1108 86 1086 q 153 1151 126 1131 q 207 1188 181 1172 q 246 1203 233 1203 q 272 1194 256 1203 q 307 1174 288 1186 q 311 1174 310 1174 q 315 1175 313 1175 z "},"¨":{"ha":554,"x_min":117,"x_max":464,"o":"m 310 1143 q 310 1115 310 1128 q 314 1092 310 1101 q 329 1079 318 1083 q 361 1075 340 1075 q 408 1095 400 1076 q 415 1147 415 1114 q 398 1181 415 1169 q 361 1193 381 1193 q 326 1181 342 1193 q 310 1143 310 1169 m 138 1143 q 138 1115 138 1128 q 142 1094 138 1103 q 156 1080 146 1085 q 188 1075 167 1075 q 235 1094 226 1075 q 243 1147 243 1113 q 226 1181 243 1169 q 189 1193 208 1193 q 153 1181 169 1193 q 138 1143 138 1169 m 289 1143 q 311 1197 289 1179 q 361 1214 333 1214 q 400 1204 381 1214 q 429 1175 419 1194 q 454 1153 444 1167 q 464 1119 464 1139 q 463 1081 464 1099 q 454 1052 461 1064 q 432 1033 447 1040 q 389 1026 417 1026 q 340 1034 354 1025 q 319 1058 325 1043 q 299 1071 306 1063 q 290 1090 293 1079 q 274 1042 288 1058 q 215 1026 260 1026 q 165 1035 179 1026 q 147 1058 151 1043 q 120 1085 124 1067 q 117 1131 117 1103 l 117 1143 q 139 1197 117 1179 q 189 1214 161 1214 q 228 1204 208 1214 q 257 1175 247 1194 q 289 1138 281 1163 l 289 1143 z "},"˜":{"ha":557,"x_min":117,"x_max":507,"o":"m 436 1171 q 488 1162 468 1183 q 507 1108 507 1140 q 493 1062 507 1085 q 449 1032 479 1039 l 450 1032 q 398 1027 418 1024 q 358 1038 378 1031 q 342 1042 350 1040 q 322 1044 333 1044 q 256 1029 296 1044 l 257 1029 q 224 1032 240 1022 q 196 1061 207 1042 q 191 1059 193 1060 q 186 1057 189 1058 l 188 1057 q 163 1056 175 1051 q 140 1072 150 1061 q 123 1098 129 1082 q 117 1131 117 1114 q 128 1172 117 1153 q 165 1201 139 1190 q 221 1210 197 1214 q 268 1199 244 1206 l 267 1199 q 291 1191 279 1194 q 318 1188 303 1188 q 365 1199 336 1188 l 367 1199 q 407 1198 390 1207 q 431 1169 424 1189 q 435 1171 433 1169 l 436 1171 m 374 1179 q 313 1167 338 1164 q 266 1178 288 1171 q 223 1189 244 1185 q 172 1182 201 1193 q 142 1153 149 1172 q 139 1115 135 1133 q 155 1083 143 1096 q 179 1076 167 1071 q 245 1092 221 1093 q 288 1087 269 1092 q 324 1077 306 1082 q 375 1081 343 1072 q 408 1105 399 1086 q 416 1142 418 1124 q 403 1174 414 1161 q 374 1179 392 1186 z "},"«":{"ha":513,"x_min":47,"x_max":467,"o":"m 218 851 q 193 796 189 832 q 221 726 197 760 q 281 669 244 692 q 356 650 318 646 q 313 728 326 685 q 288 805 299 771 q 262 855 276 839 q 218 851 247 871 m 93 851 q 68 796 64 832 q 96 726 72 760 q 156 669 119 692 q 231 650 193 646 q 188 728 201 685 q 163 805 174 771 q 137 855 151 839 q 93 851 122 871 m 207 868 q 245 885 229 883 q 272 878 261 886 q 291 852 283 869 q 306 813 299 835 q 334 811 322 817 q 354 792 346 806 q 369 760 363 779 q 383 718 376 740 q 408 651 392 689 q 467 564 425 614 q 373 578 419 557 q 294 631 326 599 q 342 564 313 597 q 281 567 311 560 q 223 590 250 575 q 173 625 196 604 q 136 669 150 646 q 72 732 97 696 q 47 801 47 768 q 54 838 47 821 q 81 868 61 856 l 82 868 q 142 881 122 896 q 175 828 161 865 q 186 849 179 839 q 206 868 193 860 l 207 868 z "},"»":{"ha":503,"x_min":35,"x_max":454,"o":"m 421 799 q 447 769 440 786 q 454 732 454 751 q 434 671 454 703 q 382 613 414 639 q 310 573 350 588 q 229 564 269 558 q 256 599 244 582 q 276 631 267 615 q 197 578 243 599 q 104 564 151 557 q 146 622 131 596 q 171 671 161 647 q 106 639 140 650 q 35 633 71 628 q 93 721 76 683 q 118 788 110 758 q 135 838 126 815 q 154 872 143 860 q 183 885 165 885 q 225 868 200 885 l 226 868 q 256 828 249 851 q 290 881 269 865 q 350 868 310 896 l 351 868 q 374 843 367 857 q 383 814 381 829 q 419 799 397 813 l 421 799 m 214 851 q 170 855 185 871 q 144 805 156 839 q 119 728 133 771 q 76 650 106 685 q 151 669 114 646 q 211 726 188 692 q 239 796 235 760 q 214 851 243 832 m 339 851 q 295 855 310 871 q 269 805 281 839 q 244 728 258 771 q 201 650 231 685 q 276 669 239 646 q 336 726 313 692 q 364 796 360 760 q 339 851 368 832 z "},"Ø":{"ha":810,"x_min":10,"x_max":796,"o":"m 339 200 q 430 376 381 281 q 526 563 479 471 q 542 439 546 507 q 513 315 538 371 q 443 224 488 258 q 339 200 399 189 m 374 674 q 292 495 335 589 q 211 314 250 401 q 197 426 193 365 q 224 542 201 488 q 285 633 247 596 q 374 674 324 669 m 642 782 q 648 794 644 789 q 654 804 651 799 q 665 877 675 842 q 628 935 654 913 q 569 961 603 957 q 506 940 535 965 q 369 979 444 978 q 219 936 283 981 q 112 819 154 892 q 49 653 69 746 q 31 464 29 560 q 58 278 33 368 q 131 122 82 189 l 126 114 q 116 34 110 69 q 142 -17 122 -1 q 190 -25 161 -33 q 246 25 218 -17 q 298 7 271 14 q 356 0 325 0 q 503 36 439 -1 q 610 137 567 74 q 678 282 654 200 q 705 451 701 364 q 692 624 708 539 q 642 782 676 710 m 561 982 q 629 960 597 982 q 676 901 661 938 q 733 855 710 886 q 757 785 757 824 q 754 754 757 769 q 742 724 751 739 q 738 718 739 721 q 735 713 736 715 q 781 571 765 647 q 796 415 796 494 q 773 228 796 319 q 703 65 750 136 q 588 -49 657 -6 q 425 -90 518 -92 q 322 -71 369 -90 q 282 -107 303 -96 q 242 -118 261 -118 q 193 -99 214 -118 q 165 -49 172 -81 q 113 -19 133 -46 q 93 53 93 8 q 96 84 93 68 q 106 119 99 100 q 33 288 57 193 q 10 482 10 382 q 33 673 10 579 q 101 840 56 767 q 213 957 146 913 q 369 1000 281 1001 q 440 990 406 999 q 504 965 475 981 q 561 982 531 982 z "},"Ð":{"ha":856,"x_min":21,"x_max":835,"o":"m 382 519 q 367 518 375 518 q 353 518 360 518 q 355 582 354 550 q 357 646 356 614 q 452 599 408 636 q 515 488 496 563 q 531 371 533 421 q 513 285 529 321 q 467 226 496 249 q 404 193 439 203 q 403 196 403 194 q 376 266 386 231 q 361 339 367 301 q 376 340 368 340 q 392 342 383 340 q 467 375 440 346 q 493 438 493 404 q 466 497 493 471 q 382 519 439 524 m 713 603 q 601 816 672 732 q 447 941 531 900 q 275 980 364 982 q 110 933 186 978 q 56 874 71 911 q 42 795 40 836 q 58 714 43 754 q 93 644 72 674 q 137 603 114 615 q 178 604 160 590 q 195 616 186 611 q 214 626 204 621 q 203 571 208 599 q 193 515 199 543 l 151 515 q 76 488 103 514 q 47 428 49 461 q 72 368 46 396 q 157 338 99 340 q 162 337 160 338 q 167 336 164 336 q 163 286 164 311 q 165 238 163 261 q 142 257 153 247 q 119 278 131 267 q 84 299 100 299 q 59 286 68 299 q 48 253 50 274 q 56 215 46 233 q 156 88 94 140 q 290 15 217 36 q 440 4 363 -7 q 592 68 518 15 q 698 190 664 119 q 740 335 732 261 q 739 481 749 410 q 713 603 729 551 m 801 539 q 824 442 814 496 q 835 331 835 389 q 827 237 835 285 q 801 143 819 189 q 751 56 782 97 q 674 -18 719 15 q 566 -73 621 -56 q 457 -90 511 -90 q 291 -50 369 -90 q 154 63 213 -10 q 90 126 119 90 q 38 206 60 161 q 28 244 28 224 q 34 281 28 264 q 53 308 40 297 q 83 319 67 319 q 104 314 94 319 q 100 328 101 322 q 44 369 63 342 q 26 425 26 396 q 58 501 26 467 q 151 536 90 535 l 174 536 q 135 585 156 553 q 94 617 114 594 q 57 669 74 639 q 31 733 40 699 q 21 804 21 768 q 38 888 21 849 q 99 951 56 926 q 283 1000 183 1000 q 456 959 371 1000 q 613 835 542 918 q 721 713 672 786 q 801 540 769 640 l 801 539 m 488 506 q 472 538 482 521 q 459 544 465 542 q 446 550 453 547 q 444 532 444 543 q 469 521 458 528 q 488 506 479 514 m 456 242 q 461 247 458 244 q 467 251 464 249 l 463 251 q 458 251 460 251 q 454 250 457 250 q 456 242 456 247 z "},"˚":{"ha":522,"x_min":117,"x_max":479,"o":"m 261 1179 q 214 1201 229 1179 q 199 1248 199 1222 q 215 1295 199 1274 q 261 1317 231 1317 q 313 1295 296 1317 q 328 1248 329 1274 q 310 1201 328 1222 q 261 1179 293 1179 m 260 1382 q 193 1362 219 1382 q 152 1313 167 1342 q 137 1248 138 1283 q 149 1183 136 1213 q 190 1134 163 1154 q 260 1114 218 1114 q 330 1134 301 1114 q 374 1183 358 1154 q 390 1248 389 1213 q 376 1313 390 1283 q 333 1362 363 1342 q 260 1382 304 1382 m 260 1403 q 347 1379 313 1403 q 396 1321 381 1356 q 459 1264 439 1301 q 479 1183 479 1226 q 469 1126 479 1154 q 441 1074 460 1097 q 394 1038 422 1051 q 329 1024 367 1024 q 247 1046 279 1024 q 200 1104 215 1068 q 137 1161 157 1122 q 117 1244 117 1200 q 126 1302 117 1274 q 153 1353 135 1331 q 197 1389 171 1375 q 260 1403 224 1403 z "},"¡":{"ha":503,"x_min":58,"x_max":442,"o":"m 79 -50 q 97 223 82 74 q 128 524 113 372 q 158 600 132 572 q 216 629 185 628 q 274 605 247 631 q 306 522 300 579 q 317 386 311 458 q 328 239 322 314 q 338 90 333 164 q 349 -53 343 15 q 333 -109 351 -86 q 283 -144 314 -132 q 217 -158 253 -157 q 150 -149 181 -160 q 99 -113 119 -137 q 79 -50 78 -89 m 215 656 q 160 681 179 656 q 140 738 140 707 q 158 795 140 769 q 215 821 176 821 q 274 795 254 821 q 295 738 294 769 q 276 681 296 707 q 215 656 257 656 m 58 -50 q 71 -108 58 -83 q 105 -148 83 -132 q 154 -171 126 -164 q 211 -179 182 -179 q 306 -156 261 -179 q 364 -92 350 -133 q 420 -49 399 -76 q 439 18 442 -21 q 431 122 435 68 q 424 233 428 176 q 410 420 417 326 q 396 593 403 514 q 372 672 390 642 q 326 713 353 701 q 372 751 357 724 q 386 806 386 778 q 360 878 386 844 q 285 911 335 911 q 223 890 246 911 q 192 839 200 869 q 138 803 156 832 q 119 740 119 774 q 135 681 119 710 q 181 642 150 653 q 132 600 153 629 q 107 526 111 571 q 100 454 104 490 q 92 382 96 418 q 70 156 79 267 q 58 -50 61 46 z "},"¿":{"ha":910,"x_min":76,"x_max":836,"o":"m 615 656 q 671 681 651 656 q 690 738 690 707 q 672 795 690 769 q 615 821 654 821 q 557 795 578 821 q 535 738 536 769 q 554 681 535 707 q 615 656 574 656 m 661 -112 q 770 -31 735 -74 q 813 52 806 13 q 806 124 821 92 q 765 174 792 157 q 706 190 739 192 q 642 157 672 188 q 533 83 582 97 q 449 85 485 69 q 393 135 414 100 q 368 208 372 169 q 387 279 364 257 q 447 315 410 301 q 527 339 483 328 q 608 375 571 350 q 668 447 644 400 q 686 578 692 494 q 655 630 679 614 q 606 644 631 646 q 562 623 581 642 q 547 572 543 604 q 528 492 553 519 q 462 449 503 465 q 371 418 421 432 q 277 381 321 404 q 203 315 233 357 q 169 200 172 274 q 204 27 165 107 q 310 -102 243 -53 q 469 -158 378 -151 q 661 -112 560 -165 m 671 -130 q 486 -179 575 -179 q 337 -143 404 -179 q 225 -46 269 -107 q 115 90 154 7 q 79 271 76 174 q 104 373 82 332 q 160 441 126 414 q 235 485 194 468 q 315 514 276 501 q 372 533 344 524 q 419 557 399 543 q 449 590 439 571 q 457 639 460 610 q 464 687 454 667 q 492 718 474 707 q 457 755 468 732 q 446 804 446 778 q 452 842 446 824 q 471 876 458 861 q 502 901 483 892 q 546 911 521 911 q 608 890 585 911 q 639 839 631 869 q 693 803 675 832 q 711 740 711 774 q 700 690 711 714 q 665 650 689 665 q 692 624 681 640 q 707 583 703 607 q 694 460 713 508 q 645 381 676 411 q 575 336 614 351 q 499 310 536 321 q 455 296 476 303 q 418 278 433 289 q 394 251 403 267 q 389 210 386 235 q 399 169 392 189 q 409 167 404 168 q 421 167 414 167 q 483 184 449 167 q 557 242 517 201 q 599 271 576 261 q 644 281 622 281 q 710 260 681 281 q 756 203 740 239 q 813 156 790 189 q 836 78 836 122 q 799 -26 836 29 q 671 -130 763 -82 z "},"…":{"ha":1057,"x_min":68,"x_max":993,"o":"m 164 165 q 108 140 128 165 q 89 83 89 114 q 107 26 89 51 q 164 0 125 0 q 223 26 203 0 q 244 83 243 51 q 225 140 244 114 q 164 165 206 165 m 164 186 q 229 165 204 186 q 261 113 254 143 q 316 75 297 103 q 335 15 335 47 q 309 -57 335 -24 q 233 -90 283 -90 q 172 -69 194 -90 q 140 -18 149 -49 q 86 18 104 -11 q 68 81 68 47 q 92 153 68 119 q 164 186 117 186 m 493 165 q 438 140 457 165 q 418 83 418 114 q 436 26 418 51 q 493 0 454 0 q 552 26 532 0 q 573 83 572 51 q 554 140 574 114 q 493 165 535 165 m 493 186 q 558 165 533 186 q 590 113 583 143 q 645 75 626 103 q 664 15 664 47 q 638 -57 664 -24 q 563 -90 613 -90 q 501 -69 524 -90 q 469 -18 478 -49 q 415 18 433 -11 q 397 81 397 47 q 422 153 397 119 q 493 186 446 186 m 822 165 q 767 140 786 165 q 747 83 747 114 q 765 26 747 51 q 822 0 783 0 q 881 26 861 0 q 902 83 901 51 q 883 140 903 114 q 822 165 864 165 m 822 186 q 888 165 863 186 q 919 113 913 143 q 974 75 956 103 q 993 15 993 47 q 967 -57 993 -24 q 892 -90 942 -90 q 830 -69 853 -90 q 799 -18 807 -49 q 744 18 763 -11 q 726 81 726 47 q 751 153 726 119 q 822 186 775 186 z "},"œ":{"ha":1260,"x_min":14,"x_max":1246,"o":"m 324 206 q 238 269 267 222 q 202 372 208 315 q 210 489 196 429 q 256 594 225 549 q 331 663 286 640 q 429 669 375 686 q 508 608 481 653 q 544 506 536 563 q 539 388 551 449 q 498 281 526 328 q 425 212 469 235 q 324 206 381 189 m 1039 271 q 915 197 992 222 q 761 171 838 171 q 746 248 750 208 q 739 328 742 288 q 806 318 775 319 q 853 322 836 317 q 898 348 881 329 q 923 390 915 367 q 930 440 931 414 q 921 485 929 465 q 897 517 913 506 q 861 526 882 529 q 790 516 821 519 q 736 513 760 513 q 733 627 735 569 q 719 743 731 685 q 792 732 757 742 q 860 708 828 722 q 919 676 892 693 q 967 640 946 658 q 1047 597 1010 600 q 1110 616 1083 594 q 1148 678 1136 638 q 1153 763 1160 718 q 1119 853 1147 808 q 1036 932 1090 899 q 1032 933 1035 933 q 913 975 974 964 q 792 978 851 986 q 677 947 732 971 q 576 886 622 924 q 486 954 538 929 q 372 981 435 979 q 227 941 290 982 q 122 832 164 900 q 58 676 79 764 q 35 496 36 588 q 53 316 33 404 q 113 158 72 228 q 215 46 153 89 q 360 1 276 3 q 467 19 418 0 q 554 72 515 39 q 558 68 557 69 q 561 65 558 67 l 561 64 q 624 23 582 38 q 720 3 667 8 q 833 1 774 -3 q 948 18 893 6 q 1047 50 1003 31 q 1117 96 1092 69 q 1151 174 1147 129 q 1142 251 1156 218 q 1100 295 1128 285 q 1039 271 1072 306 m 1024 285 q 1088 317 1054 317 q 1134 297 1114 317 q 1165 246 1154 278 q 1222 206 1200 242 q 1243 124 1243 169 q 1233 65 1243 94 q 1201 13 1224 36 q 1140 -31 1178 -11 q 1054 -63 1101 -50 q 954 -83 1007 -76 q 851 -90 901 -90 q 716 -75 778 -90 q 621 -25 654 -60 q 533 -73 581 -56 q 429 -89 486 -90 q 294 -54 353 -87 q 193 35 236 -21 q 115 117 149 68 q 58 224 81 165 q 25 350 36 283 q 14 485 14 417 q 37 675 14 582 q 104 841 60 768 q 216 958 149 914 q 372 1001 283 1003 q 485 977 433 1000 q 578 915 538 954 q 701 980 635 957 q 840 1003 768 1003 q 1036 954 942 1003 q 1050 947 1040 954 q 1098 910 1078 931 q 1133 868 1118 890 q 1220 772 1194 826 q 1246 663 1246 717 q 1237 602 1246 631 q 1213 553 1228 574 q 1175 519 1197 532 q 1126 507 1153 507 q 1022 556 1078 507 q 930 613 986 585 q 814 650 874 642 q 819 595 817 622 q 824 540 822 568 q 839 543 831 542 q 857 547 847 544 q 913 532 890 553 q 946 478 936 511 q 1001 441 981 475 q 1021 365 1021 407 q 999 284 1021 324 q 928 232 976 244 l 928 233 q 885 228 913 228 q 831 232 858 228 q 831 213 831 222 q 833 196 832 204 q 940 227 889 206 q 1024 285 990 249 m 329 225 q 349 221 339 222 q 368 219 358 219 q 435 241 406 219 q 484 297 464 263 q 515 374 504 331 q 525 463 525 418 q 501 578 525 526 q 497 579 499 579 q 493 581 496 579 q 474 585 483 583 q 456 586 465 586 q 388 564 418 586 q 336 506 358 542 q 302 426 314 471 q 290 336 290 381 q 311 231 290 276 q 329 225 318 228 z "},"ñ":{"ha":851,"x_min":15,"x_max":847,"o":"m 469 878 q 497 939 472 915 q 557 973 522 963 q 630 981 592 983 q 697 967 668 979 q 739 933 725 954 q 739 881 753 911 q 683 681 693 782 q 678 481 672 581 q 694 379 685 425 q 710 290 703 333 q 722 201 718 246 q 722 104 726 157 q 707 57 719 76 q 676 25 694 38 q 635 6 658 13 q 590 0 613 0 q 500 35 546 1 q 397 156 454 68 q 310 308 353 224 q 226 478 267 392 q 329 104 250 293 q 332 45 343 68 q 294 11 321 22 q 232 1 268 0 q 162 13 196 1 q 101 47 128 25 q 65 101 74 69 q 45 217 51 150 q 37 359 39 285 q 37 510 35 433 q 43 657 39 588 q 51 784 47 726 q 58 878 56 842 q 95 953 63 928 q 165 983 128 979 q 235 969 203 986 q 272 921 268 953 q 294 822 272 889 q 351 674 315 756 q 433 507 386 592 q 531 356 479 422 q 531 382 531 369 q 529 407 531 394 q 510 526 522 465 q 487 647 497 586 q 471 765 476 707 q 469 878 465 824 m 449 879 q 447 856 447 868 q 447 832 447 843 q 459 698 447 772 q 482 561 471 624 q 488 528 485 544 q 494 496 492 511 q 442 607 465 551 q 400 710 418 663 q 372 796 382 758 q 363 854 363 833 q 339 900 358 882 q 292 928 319 918 q 251 984 285 964 q 178 1004 218 1004 q 131 997 154 1004 q 87 975 107 990 q 53 936 67 960 q 38 879 40 913 q 31 797 35 847 q 24 687 28 747 q 18 558 21 626 q 15 422 15 490 q 22 244 15 329 q 46 96 28 158 l 44 96 q 72 45 51 67 q 119 8 92 24 q 151 -33 131 -15 q 196 -64 171 -51 q 249 -83 221 -76 q 304 -89 276 -89 q 362 -81 335 -89 q 406 -58 389 -74 q 428 -17 424 -42 q 418 43 432 8 q 397 96 407 71 q 378 146 386 121 q 379 144 378 144 q 435 67 408 99 q 489 17 463 36 q 576 -65 535 -42 q 660 -90 618 -89 q 712 -83 686 -90 q 759 -61 738 -76 q 795 -22 781 -46 q 813 33 810 1 q 814 60 814 47 q 814 86 814 74 q 808 185 814 140 q 792 278 801 231 q 779 342 785 310 q 768 413 774 375 q 766 451 767 432 q 765 489 765 469 q 778 647 765 568 q 828 803 792 725 q 827 874 847 844 q 767 919 807 904 q 750 954 764 939 q 716 981 736 969 q 670 997 696 992 q 618 1003 644 1003 q 560 996 589 1003 q 506 974 531 989 q 467 935 482 958 q 449 879 451 911 m 524 1171 q 575 1162 556 1183 q 594 1108 594 1140 q 581 1062 594 1085 q 536 1032 567 1039 l 538 1032 q 485 1027 506 1024 q 446 1038 465 1031 q 429 1042 438 1040 q 410 1044 421 1044 q 343 1029 383 1044 l 344 1029 q 311 1032 328 1022 q 283 1061 294 1042 q 278 1059 281 1060 q 274 1057 276 1058 l 275 1057 q 250 1056 263 1051 q 227 1072 238 1061 q 210 1098 217 1082 q 204 1131 204 1114 q 215 1172 204 1153 q 253 1201 226 1190 q 308 1210 285 1214 q 356 1199 332 1206 l 354 1199 q 378 1191 367 1194 q 406 1188 390 1188 q 453 1199 424 1188 l 454 1199 q 494 1198 478 1207 q 518 1169 511 1189 q 522 1171 521 1169 l 524 1171 m 461 1179 q 400 1167 425 1164 q 353 1178 375 1171 q 310 1189 332 1185 q 260 1182 289 1193 q 229 1153 236 1172 q 226 1115 222 1133 q 242 1083 231 1096 q 267 1076 254 1071 q 333 1092 308 1093 q 375 1087 357 1092 q 412 1077 393 1082 q 463 1081 431 1072 q 496 1105 486 1086 q 503 1142 506 1124 q 490 1174 501 1161 q 461 1179 479 1186 z "},"ò":{"ha":811,"x_min":13,"x_max":797,"o":"m 322 204 q 424 210 379 188 q 497 280 468 233 q 538 387 525 326 q 543 504 550 447 q 508 606 536 561 q 429 668 481 651 q 331 662 375 685 q 255 593 286 639 q 209 488 224 547 q 201 370 194 428 q 236 267 207 313 q 322 204 265 221 m 372 979 q 519 935 456 978 q 624 822 582 892 q 687 665 665 753 q 708 485 708 576 q 685 306 707 393 q 620 150 664 218 q 511 40 576 82 q 358 0 446 -1 q 213 44 275 1 q 111 157 151 88 q 51 315 71 226 q 33 494 32 403 q 57 674 35 586 q 122 830 79 761 q 226 940 164 899 q 372 979 289 981 m 372 1000 q 215 957 282 1001 q 103 840 147 913 q 35 673 58 767 q 13 482 13 579 q 24 347 13 414 q 57 222 35 281 q 113 115 79 164 q 192 33 147 67 q 293 -56 235 -22 q 428 -90 351 -89 q 590 -48 521 -92 q 706 67 660 -4 q 774 230 751 139 q 797 417 797 321 q 786 551 797 485 q 752 678 775 618 q 695 788 729 738 q 615 871 661 838 q 510 963 571 929 q 372 1000 450 997 m 328 224 q 310 229 317 226 q 289 333 289 275 q 301 423 289 378 q 336 504 314 468 q 389 563 358 540 q 457 585 419 585 q 476 583 468 585 q 493 579 485 582 q 497 578 496 578 q 501 576 499 578 q 519 522 514 551 q 525 463 525 493 q 515 374 525 418 q 483 296 504 331 q 433 240 463 261 q 367 218 404 218 q 347 219 357 218 q 328 224 338 221 m 601 1100 q 613 1078 619 1090 q 582 1054 606 1065 q 521 1035 558 1043 q 440 1028 483 1028 q 367 1035 401 1028 q 311 1060 332 1043 q 241 1088 268 1067 q 218 1144 214 1108 q 248 1194 225 1181 q 303 1208 271 1208 q 381 1194 339 1208 q 460 1163 424 1179 q 508 1144 485 1154 q 550 1126 531 1135 q 583 1109 569 1117 q 601 1100 596 1101 m 522 1110 q 494 1124 515 1113 q 442 1149 472 1136 q 378 1174 411 1163 q 315 1187 344 1185 q 264 1179 285 1189 q 239 1140 243 1169 q 257 1099 235 1114 q 314 1079 279 1085 q 390 1076 349 1074 q 463 1083 431 1078 q 514 1097 496 1089 q 522 1110 532 1104 z "},"ó":{"ha":821,"x_min":18,"x_max":803,"o":"m 328 204 q 242 267 271 221 q 206 370 213 313 q 215 488 200 428 q 260 593 229 547 q 336 662 292 639 q 435 668 381 685 q 514 606 486 651 q 549 504 542 561 q 543 387 556 447 q 502 280 531 326 q 429 210 474 233 q 328 204 385 188 m 378 979 q 232 940 294 981 q 127 830 169 899 q 63 674 85 761 q 39 494 40 586 q 57 315 38 403 q 117 157 76 226 q 219 44 157 88 q 364 0 281 1 q 517 40 451 -1 q 626 150 582 82 q 691 306 669 218 q 713 485 713 393 q 692 665 714 576 q 629 822 671 753 q 524 935 588 892 q 378 979 461 978 m 378 1000 q 516 963 456 997 q 621 871 576 929 q 701 788 667 838 q 758 678 735 738 q 792 551 781 618 q 803 417 803 485 q 780 230 803 321 q 711 67 757 139 q 596 -48 665 -4 q 433 -90 526 -92 q 299 -56 357 -89 q 197 33 240 -22 q 119 115 153 67 q 63 222 85 164 q 29 347 40 281 q 18 482 18 414 q 41 673 18 579 q 108 840 64 767 q 220 957 153 913 q 378 1000 288 1001 m 333 224 q 353 219 343 221 q 372 218 363 218 q 439 240 410 218 q 489 296 468 261 q 520 374 510 331 q 531 463 531 418 q 525 522 531 493 q 507 576 519 551 q 503 578 504 578 q 499 579 501 578 q 482 583 490 582 q 463 585 474 585 q 394 563 425 585 q 342 504 364 540 q 307 423 319 468 q 294 333 294 378 q 315 229 294 275 q 333 224 322 226 m 211 1107 q 219 1094 201 1101 q 270 1081 238 1086 q 344 1073 303 1075 q 419 1076 385 1071 q 476 1097 454 1082 q 494 1138 499 1111 q 469 1176 490 1167 q 419 1184 449 1186 q 356 1171 389 1182 q 292 1147 322 1160 q 239 1122 261 1133 q 211 1107 217 1110 m 201 1125 q 233 1142 208 1129 q 292 1169 258 1154 q 363 1194 325 1183 q 431 1206 400 1206 q 500 1178 478 1206 q 555 1164 532 1178 q 585 1114 578 1150 q 576 1073 588 1090 q 542 1045 564 1056 q 491 1030 519 1035 q 432 1025 463 1025 q 334 1036 378 1025 q 271 1063 290 1047 q 199 1092 221 1074 q 201 1125 176 1110 z "},"ô":{"ha":819,"x_min":17,"x_max":801,"o":"m 326 204 q 240 267 269 221 q 205 370 211 313 q 213 488 199 428 q 259 593 228 547 q 335 662 290 639 q 433 668 379 685 q 513 606 485 651 q 547 504 540 561 q 542 387 554 447 q 501 280 529 326 q 428 210 472 233 q 326 204 383 188 m 376 979 q 231 940 293 981 q 126 830 168 899 q 61 674 83 761 q 38 494 39 586 q 56 315 36 403 q 115 157 75 226 q 217 44 156 88 q 363 0 279 1 q 515 40 450 -1 q 624 150 581 82 q 690 306 668 218 q 712 485 711 393 q 691 665 713 576 q 628 822 669 753 q 523 935 586 892 q 376 979 460 978 m 376 1000 q 515 963 454 997 q 619 871 575 929 q 699 788 665 838 q 756 678 733 738 q 790 551 779 618 q 801 417 801 485 q 778 230 801 321 q 710 67 756 139 q 594 -48 664 -4 q 432 -90 525 -92 q 297 -56 356 -89 q 196 33 239 -22 q 117 115 151 67 q 61 222 83 164 q 28 347 39 281 q 17 482 17 414 q 40 673 17 579 q 107 840 63 767 q 219 957 151 913 q 376 1000 286 1001 m 332 224 q 351 219 342 221 q 371 218 361 218 q 438 240 408 218 q 488 296 467 261 q 519 374 508 331 q 529 463 529 418 q 524 522 529 493 q 506 576 518 551 q 501 578 503 578 q 497 579 500 578 q 481 583 489 582 q 461 585 472 585 q 393 563 424 585 q 340 504 363 540 q 306 423 318 468 q 293 333 293 378 q 314 229 293 275 q 332 224 321 226 m 361 1182 q 327 1169 350 1182 q 281 1140 304 1157 q 240 1104 257 1122 q 224 1074 222 1086 q 243 1067 224 1068 q 287 1069 263 1067 q 333 1077 311 1072 q 361 1089 356 1082 q 399 1077 375 1082 q 444 1069 422 1072 q 483 1066 467 1065 q 499 1074 499 1067 q 481 1104 499 1086 q 441 1140 464 1122 q 395 1169 418 1157 q 361 1182 372 1182 m 431 1175 q 469 1160 443 1175 q 522 1125 496 1146 q 569 1082 549 1104 q 589 1046 589 1060 q 571 1030 589 1035 q 528 1025 553 1025 q 475 1028 503 1025 q 429 1039 447 1032 q 386 1031 413 1033 q 335 1030 360 1029 q 291 1034 310 1031 q 272 1044 272 1038 q 275 1057 272 1053 q 225 1061 247 1057 q 203 1072 203 1065 q 222 1108 201 1086 q 269 1151 242 1131 q 322 1188 296 1172 q 361 1203 349 1203 q 387 1194 371 1203 q 422 1174 403 1186 q 426 1174 425 1174 q 431 1175 428 1175 z "},"õ":{"ha":829,"x_min":19,"x_max":804,"o":"m 329 204 q 431 210 386 188 q 503 280 475 233 q 544 387 532 326 q 550 504 557 447 q 515 606 543 561 q 436 668 488 651 q 338 662 382 685 q 262 593 293 639 q 216 488 231 547 q 208 370 201 428 q 243 267 214 313 q 329 204 272 221 m 379 979 q 526 935 463 978 q 631 822 589 892 q 694 665 672 753 q 715 485 715 576 q 692 306 714 393 q 627 150 671 218 q 518 40 583 82 q 365 0 453 -1 q 220 44 282 1 q 118 157 158 88 q 58 315 78 226 q 40 494 39 403 q 64 674 42 586 q 128 830 86 761 q 233 940 171 899 q 379 979 296 981 m 379 1000 q 222 957 289 1001 q 110 840 154 913 q 42 673 65 767 q 19 482 19 579 q 31 347 19 414 q 64 222 42 281 q 120 115 86 164 q 199 33 154 67 q 300 -56 242 -22 q 435 -90 358 -89 q 597 -48 528 -92 q 713 67 667 -4 q 781 230 758 139 q 804 417 804 321 q 793 551 804 485 q 759 678 782 618 q 702 788 736 738 q 622 871 668 838 q 517 963 578 929 q 379 1000 457 997 m 335 224 q 317 229 324 226 q 296 333 296 275 q 308 423 296 378 q 343 504 321 468 q 396 563 365 540 q 464 585 426 585 q 483 583 475 585 q 500 579 492 582 q 504 578 503 578 q 508 576 506 578 q 526 522 521 551 q 532 463 532 493 q 522 374 532 418 q 490 296 511 331 q 440 240 469 261 q 374 218 411 218 q 354 219 364 218 q 335 224 344 221 m 515 1171 q 567 1162 547 1183 q 586 1108 586 1140 q 572 1062 586 1085 q 528 1032 558 1039 l 529 1032 q 477 1027 497 1024 q 438 1038 457 1031 q 421 1042 429 1040 q 401 1044 413 1044 q 335 1029 375 1044 l 336 1029 q 303 1032 319 1022 q 275 1061 286 1042 q 270 1059 272 1060 q 265 1057 268 1058 l 267 1057 q 242 1056 254 1051 q 219 1072 229 1061 q 202 1098 208 1082 q 196 1131 196 1114 q 207 1172 196 1153 q 244 1201 218 1190 q 300 1210 276 1214 q 347 1199 324 1206 l 346 1199 q 370 1191 358 1194 q 397 1188 382 1188 q 444 1199 415 1188 l 446 1199 q 486 1198 469 1207 q 510 1169 503 1189 q 514 1171 513 1169 l 515 1171 m 453 1179 q 392 1167 417 1164 q 345 1178 367 1171 q 302 1189 324 1185 q 251 1182 281 1193 q 221 1153 228 1172 q 218 1115 214 1133 q 234 1083 222 1096 q 258 1076 246 1071 q 324 1092 300 1093 q 367 1087 349 1092 q 403 1077 385 1082 q 454 1081 422 1072 q 488 1105 478 1086 q 495 1142 497 1124 q 482 1174 493 1161 q 453 1179 471 1186 z "},"ö":{"ha":818,"x_min":17,"x_max":801,"o":"m 326 204 q 240 267 269 221 q 205 370 211 313 q 213 488 199 428 q 259 593 228 547 q 335 662 290 639 q 433 668 379 685 q 513 606 485 651 q 547 504 540 561 q 542 387 554 447 q 501 280 529 326 q 428 210 472 233 q 326 204 383 188 m 376 979 q 231 940 293 981 q 126 830 168 899 q 61 674 83 761 q 38 494 39 586 q 56 315 36 403 q 115 157 75 226 q 217 44 156 88 q 363 0 279 1 q 515 40 450 -1 q 624 150 581 82 q 690 306 668 218 q 712 485 711 393 q 691 665 713 576 q 628 822 669 753 q 523 935 586 892 q 376 979 460 978 m 376 1000 q 515 963 454 997 q 619 871 575 929 q 699 788 665 838 q 756 678 733 738 q 790 551 779 618 q 801 417 801 485 q 778 230 801 321 q 710 67 756 139 q 594 -48 664 -4 q 432 -90 525 -92 q 297 -56 356 -89 q 196 33 239 -22 q 117 115 151 67 q 61 222 83 164 q 28 347 39 281 q 17 482 17 414 q 40 673 17 579 q 107 840 63 767 q 219 957 151 913 q 376 1000 286 1001 m 332 224 q 351 219 342 221 q 371 218 361 218 q 438 240 408 218 q 488 296 467 261 q 519 374 508 331 q 529 463 529 418 q 524 522 529 493 q 506 576 518 551 q 501 578 503 578 q 497 579 500 578 q 481 583 489 582 q 461 585 472 585 q 393 563 424 585 q 340 504 363 540 q 306 423 318 468 q 293 333 293 378 q 314 229 293 275 q 332 224 321 226 m 408 1143 q 408 1115 408 1128 q 413 1092 408 1101 q 428 1079 417 1083 q 460 1075 439 1075 q 506 1095 499 1076 q 514 1147 514 1114 q 497 1181 514 1169 q 460 1193 479 1193 q 424 1181 440 1193 q 408 1143 408 1169 m 236 1143 q 236 1115 236 1128 q 240 1094 236 1103 q 255 1080 244 1085 q 286 1075 265 1075 q 333 1094 325 1075 q 342 1147 342 1113 q 324 1181 342 1169 q 288 1193 307 1193 q 252 1181 268 1193 q 236 1143 236 1169 m 388 1143 q 410 1197 388 1179 q 460 1214 432 1214 q 499 1204 479 1214 q 528 1175 518 1194 q 553 1153 543 1167 q 563 1119 563 1139 q 561 1081 563 1099 q 553 1052 560 1064 q 531 1033 546 1040 q 488 1026 515 1026 q 438 1034 453 1025 q 418 1058 424 1043 q 398 1071 404 1063 q 389 1090 392 1079 q 372 1042 386 1058 q 314 1026 358 1026 q 264 1035 278 1026 q 246 1058 250 1043 q 219 1085 222 1067 q 215 1131 215 1103 l 215 1143 q 238 1197 215 1179 q 288 1214 260 1214 q 326 1204 307 1214 q 356 1175 346 1194 q 388 1138 379 1163 l 388 1143 z "},"a":{"ha":832,"x_min":21,"x_max":810,"o":"m 214 331 q 228 452 217 396 q 261 549 240 508 q 311 613 282 590 q 376 636 340 636 q 440 608 411 636 q 490 531 469 579 q 520 415 510 482 q 529 274 531 349 q 472 271 508 271 q 390 277 435 271 q 299 297 346 283 q 214 331 253 310 m 364 978 q 235 944 289 976 q 144 858 181 911 q 85 734 107 804 q 53 589 64 664 q 42 438 43 514 q 44 295 40 361 q 53 178 47 229 q 65 103 60 128 q 106 30 75 56 q 169 2 138 4 q 223 24 201 0 q 235 101 244 49 q 222 176 226 139 q 288 162 249 168 q 368 154 326 156 q 451 156 410 153 q 524 169 492 158 q 519 141 521 154 q 515 113 518 128 q 526 26 504 53 q 581 0 549 -1 q 645 28 613 1 q 689 103 678 54 q 704 191 696 136 q 717 314 713 246 q 719 458 721 382 q 706 609 718 535 q 670 751 694 683 q 606 869 646 818 q 506 949 565 919 q 364 978 446 979 m 364 999 q 522 965 457 1000 q 629 871 586 929 q 717 774 682 832 q 772 645 751 715 q 801 499 793 575 q 810 349 810 422 q 807 249 810 297 q 800 160 804 201 q 790 85 796 118 q 779 29 785 51 q 726 -60 765 -29 q 647 -90 688 -90 q 594 -73 618 -90 q 564 -19 571 -56 q 516 5 536 -15 q 492 64 496 25 l 468 64 q 389 68 429 64 q 317 79 349 72 q 320 58 318 69 q 325 36 322 46 q 310 -58 338 -28 q 243 -89 283 -89 q 178 -68 211 -89 q 126 -8 144 -47 q 75 31 99 4 q 44 99 51 58 q 29 214 38 133 q 21 396 21 294 q 26 533 21 463 q 47 669 32 603 q 86 796 61 736 q 149 900 111 856 q 240 971 188 944 q 364 999 293 997 m 508 292 q 496 434 508 369 q 461 543 483 499 q 446 546 453 546 q 355 481 390 546 q 308 315 319 417 q 401 297 356 303 q 483 292 447 292 q 499 291 499 292 q 508 292 500 290 z "},"b":{"ha":901,"x_min":11,"x_max":879,"o":"m 332 224 q 322 263 326 239 q 315 313 318 286 q 311 364 313 339 q 311 408 310 389 q 399 424 350 421 q 492 416 449 428 q 567 374 536 404 q 597 292 597 344 q 569 225 597 251 q 499 189 540 199 q 413 187 458 179 q 332 224 367 194 m 539 663 q 522 602 538 626 q 482 563 506 578 q 431 540 458 547 q 378 528 403 532 q 335 525 353 525 q 315 525 318 525 q 313 590 315 557 q 303 651 310 624 q 358 707 319 688 q 438 728 397 726 q 510 714 479 731 q 539 663 540 697 m 596 496 q 667 533 639 508 q 710 586 694 557 q 732 646 726 615 q 738 700 738 676 q 716 815 735 764 q 658 903 697 867 q 559 960 619 940 q 415 979 499 979 q 253 951 325 979 q 131 869 181 922 q 56 740 81 815 q 39 574 32 665 q 62 507 42 531 q 109 488 82 483 q 164 531 136 493 q 210 650 192 568 q 205 573 210 608 q 193 503 200 538 q 177 432 186 468 q 160 354 168 396 q 113 368 133 379 q 86 326 93 357 q 87 250 79 294 q 122 164 94 206 q 257 45 171 90 q 449 0 343 0 q 701 74 617 0 q 789 279 786 149 q 736 430 790 375 q 596 496 682 485 m 415 1000 q 599 967 528 1000 q 710 875 671 935 q 797 774 768 836 q 828 631 825 713 q 811 539 828 592 q 749 447 794 486 q 763 430 757 439 q 776 410 769 421 q 852 331 825 381 q 879 210 879 281 q 787 -10 876 69 q 518 -90 697 -90 q 325 -48 413 -90 q 185 65 238 -6 q 104 153 135 106 l 106 153 q 72 223 82 188 q 61 290 61 258 q 85 376 61 344 q 146 390 110 407 q 149 400 146 394 q 93 467 110 413 q 43 498 64 469 q 18 572 22 526 q 37 749 11 669 q 115 883 63 828 q 244 969 167 939 q 415 1000 321 1000 m 576 292 q 572 321 576 306 q 531 331 553 328 q 488 335 510 335 q 442 332 463 335 q 401 324 421 329 q 403 267 401 299 q 410 208 406 236 q 453 204 431 204 q 538 227 501 204 q 576 292 575 250 m 399 553 q 469 579 435 560 q 514 639 503 599 q 444 624 479 639 q 394 582 410 610 l 399 553 z "},"c":{"ha":824,"x_min":17,"x_max":806,"o":"m 414 586 q 436 531 414 553 q 491 499 458 510 q 562 490 524 489 q 633 504 600 492 q 689 540 667 517 q 714 600 711 564 q 713 662 715 624 q 698 742 710 700 q 665 827 686 785 q 607 903 643 869 q 517 959 571 938 q 390 981 464 981 q 222 938 290 981 q 113 825 154 894 q 55 668 72 756 q 38 492 38 581 q 53 307 38 396 q 106 149 68 218 q 212 40 144 81 q 383 0 279 -1 q 517 33 458 0 q 617 119 575 67 q 681 238 658 172 q 704 369 703 304 q 680 397 704 388 q 626 404 656 406 q 572 390 597 403 q 547 354 547 378 q 521 256 546 300 q 460 188 496 213 q 383 162 424 163 q 306 193 342 161 q 248 296 271 225 q 226 485 225 367 q 257 652 228 585 q 320 739 286 719 q 383 724 354 758 q 414 586 413 689 m 390 1001 q 556 965 492 1001 q 660 875 621 928 q 738 792 708 840 q 782 696 767 744 q 801 602 797 647 q 804 529 806 557 q 771 454 801 483 q 697 411 740 425 q 725 369 725 394 q 724 362 725 365 q 724 354 724 358 q 774 338 753 351 q 794 300 794 324 q 769 161 793 231 q 701 36 744 92 q 594 -55 657 -19 q 453 -90 532 -90 q 286 -58 353 -92 q 178 35 219 -24 q 100 117 131 68 q 51 226 69 167 q 24 353 32 285 q 17 492 17 421 q 35 675 17 583 q 97 839 53 767 q 213 956 140 911 q 390 1001 285 1001 m 393 586 q 389 644 393 619 q 340 563 361 624 q 317 415 318 503 q 326 278 315 335 q 354 186 336 222 q 383 182 368 182 q 435 195 410 182 q 481 232 461 208 q 513 287 500 256 q 526 354 525 318 q 537 386 526 374 q 563 408 547 399 q 503 436 528 417 q 467 486 478 456 q 414 525 435 500 q 393 586 393 550 z "},"d":{"ha":851,"x_min":17,"x_max":831,"o":"m 400 193 q 399 196 399 194 q 365 302 375 247 q 351 415 354 357 q 349 531 347 472 q 353 646 351 589 q 448 599 404 636 q 511 488 492 563 q 527 371 529 421 q 508 285 525 321 q 463 226 492 249 q 400 193 435 203 m 708 603 q 597 816 668 732 q 443 941 526 900 q 271 980 360 982 q 106 933 182 978 q 51 874 67 911 q 38 795 36 836 q 53 714 39 754 q 89 644 68 674 q 133 603 110 615 q 174 604 156 590 q 191 616 182 611 q 210 626 200 621 q 174 428 192 528 q 161 238 156 329 q 138 257 149 247 q 115 278 126 267 q 80 299 96 299 q 55 286 64 299 q 44 253 46 274 q 51 215 42 233 q 151 88 90 140 q 285 15 213 36 q 436 4 358 -7 q 588 68 514 15 q 694 190 660 119 q 736 335 728 261 q 735 481 744 410 q 708 603 725 551 m 797 539 q 820 442 810 496 q 831 331 831 389 q 823 237 831 285 q 797 143 815 189 q 747 56 778 97 q 669 -18 715 15 q 562 -73 617 -56 q 453 -90 507 -90 q 287 -50 365 -90 q 150 63 208 -10 q 85 126 115 90 q 33 206 56 161 q 24 244 24 224 q 30 281 24 264 q 49 308 36 297 q 79 319 63 319 q 131 292 103 319 q 133 288 132 289 q 135 286 133 286 q 139 283 136 285 q 151 407 142 342 q 171 535 160 472 q 131 585 149 557 q 90 617 110 594 q 53 669 69 639 q 26 733 36 699 q 17 804 17 768 q 34 888 17 849 q 94 951 51 926 q 279 1000 179 1000 q 452 959 367 1000 q 608 835 538 918 q 717 713 668 786 q 797 540 765 640 l 797 539 m 492 482 q 481 513 488 499 q 468 539 475 526 q 456 544 461 542 q 443 550 450 547 q 442 531 443 540 q 442 513 442 522 q 440 460 440 486 q 439 408 439 435 q 442 324 439 365 q 453 243 444 283 q 491 299 476 265 q 506 379 506 332 q 492 482 506 431 z "},"e":{"ha":829,"x_min":11,"x_max":813,"o":"m 606 271 q 551 227 582 246 q 483 196 519 208 q 406 177 446 183 q 329 171 367 171 q 313 248 318 208 q 306 328 308 288 q 372 318 342 319 q 421 322 403 317 q 466 348 449 329 q 491 390 483 367 q 497 440 499 414 q 488 485 496 465 q 464 517 479 506 q 428 526 449 529 q 357 516 388 519 q 303 513 326 513 q 300 627 303 569 q 288 743 297 685 q 359 732 324 742 q 427 708 394 722 q 487 676 460 693 q 535 640 514 658 q 615 597 578 600 q 677 616 651 594 q 715 678 703 638 q 721 763 728 718 q 685 853 714 808 q 603 932 657 899 q 600 933 601 933 q 435 981 519 975 q 274 960 350 986 q 135 879 197 933 q 38 747 72 825 q 31 709 29 729 q 41 675 32 689 q 66 660 50 661 q 103 678 82 658 q 122 694 113 686 q 143 708 132 701 q 133 538 144 617 q 108 385 121 458 q 92 244 96 313 q 107 104 88 175 q 128 65 113 82 q 129 64 129 65 q 192 23 150 38 q 288 3 235 8 q 401 1 342 -3 q 515 18 460 6 q 614 50 569 31 q 683 96 658 69 q 718 174 714 129 q 708 251 722 218 q 667 295 694 285 q 606 271 639 306 m 590 285 q 654 317 621 317 q 701 297 681 317 q 732 246 721 278 q 788 206 767 242 q 810 124 810 169 q 801 67 810 96 q 768 13 792 38 q 707 -31 746 -11 q 621 -63 668 -50 q 521 -83 574 -76 q 418 -90 468 -90 q 277 -72 342 -90 q 181 -17 213 -54 q 161 15 169 -3 q 133 32 146 22 q 111 53 121 42 q 88 99 94 72 q 74 162 78 131 q 71 225 71 193 q 78 328 71 278 q 94 431 85 378 q 107 501 101 465 q 117 574 113 536 q 92 600 101 582 q 81 640 82 618 q 67 639 75 639 q 38 650 50 639 q 18 678 25 661 q 11 717 11 696 q 18 756 11 738 q 86 855 44 810 q 179 933 128 900 q 288 985 231 967 q 406 1003 346 1003 q 613 950 513 1003 q 662 913 640 933 q 699 869 683 892 q 786 772 760 828 q 813 663 813 715 q 804 602 813 631 q 780 553 796 574 q 742 519 764 532 q 694 507 721 507 q 590 556 646 507 q 498 613 554 585 q 382 650 442 642 q 388 595 385 622 q 392 542 390 568 q 406 544 399 543 q 424 547 414 544 q 480 532 457 553 q 513 478 503 511 q 567 441 547 475 q 588 365 588 407 q 566 284 588 324 q 496 232 544 244 l 496 233 q 397 232 457 222 q 398 215 397 224 q 400 196 399 206 q 508 227 457 206 q 590 285 558 249 z "},"f":{"ha":838,"x_min":15,"x_max":818,"o":"m 608 931 q 606 932 607 932 q 604 933 606 932 q 440 980 525 975 q 279 958 356 985 q 140 878 203 932 q 43 747 78 824 q 36 708 35 728 q 47 674 38 688 q 72 659 56 661 q 108 676 88 657 q 128 693 118 686 q 149 707 138 700 q 145 575 151 636 q 129 456 139 514 q 107 463 117 457 q 72 460 89 471 q 45 428 54 449 q 38 382 36 407 q 58 336 39 357 q 79 319 67 326 q 107 304 92 311 q 101 203 101 253 q 113 103 101 154 q 145 42 119 65 q 203 8 171 18 q 268 0 235 -1 q 326 14 301 1 q 363 48 351 26 q 360 100 374 69 q 332 178 342 138 q 317 264 322 219 q 385 263 356 261 q 429 268 415 265 q 492 312 471 279 q 515 379 513 344 q 501 439 517 414 q 454 458 485 464 q 382 449 419 451 q 308 444 344 446 q 307 592 308 517 q 293 742 306 667 q 365 731 329 740 q 433 706 400 721 q 492 674 465 692 q 539 639 519 657 q 619 597 582 600 q 682 615 656 593 q 720 676 708 636 q 726 762 732 717 q 691 852 719 807 q 608 931 663 897 m 617 949 q 619 948 618 949 q 621 947 619 947 q 619 949 621 947 q 669 910 647 931 q 706 868 690 890 q 792 770 765 826 q 818 661 818 714 q 809 601 818 629 q 785 551 800 572 q 747 518 769 531 q 699 506 725 506 q 649 517 675 506 q 594 554 622 528 q 506 613 561 585 q 388 649 450 640 q 395 560 393 604 q 399 471 397 515 q 424 475 411 474 q 450 479 438 476 q 506 465 485 486 q 533 411 526 443 q 587 382 568 410 q 606 317 606 354 q 581 233 606 275 q 503 178 556 192 q 474 174 493 175 q 426 172 454 172 q 419 172 417 172 q 410 172 421 171 q 449 39 421 99 q 457 -15 463 8 q 433 -56 451 -39 q 388 -81 415 -72 q 328 -90 360 -90 q 238 -67 282 -90 q 171 0 193 -44 q 122 40 143 15 q 92 99 100 64 q 83 156 85 126 q 81 214 81 186 q 85 292 81 254 q 62 306 74 299 q 43 322 50 314 q 15 390 15 354 q 24 432 15 413 q 46 465 32 451 q 77 483 60 478 q 111 482 94 489 q 117 526 114 503 q 122 574 119 550 q 96 599 106 581 q 85 640 86 617 q 72 639 81 639 q 42 650 54 639 q 22 678 29 661 q 15 716 15 696 q 24 756 15 736 q 91 859 50 814 q 183 936 132 904 q 293 985 235 968 q 413 1001 351 1001 q 615 950 513 1001 q 613 951 614 950 q 608 951 611 951 l 617 949 m 689 879 l 686 879 q 685 881 686 881 q 689 879 686 879 m 617 949 q 615 950 617 949 q 619 949 617 949 l 617 949 z "},"g":{"ha":856,"x_min":15,"x_max":846,"o":"m 713 371 q 553 423 632 418 q 400 406 475 428 q 350 358 363 393 q 346 290 338 324 q 379 236 354 257 q 440 229 404 215 q 476 242 458 236 q 515 247 493 247 q 467 191 496 214 q 406 163 438 168 q 344 170 375 157 q 290 221 314 183 q 251 322 265 258 q 238 483 236 386 q 266 651 239 585 q 325 738 293 718 q 385 724 357 758 q 414 586 413 689 q 436 531 414 553 q 491 499 458 510 q 561 490 524 489 q 632 503 599 490 q 688 540 665 517 q 713 600 711 564 q 711 662 714 624 q 697 742 708 700 q 665 827 686 785 q 607 903 643 869 q 517 959 571 938 q 389 981 464 981 q 221 938 289 981 q 112 825 153 894 q 53 668 71 756 q 38 492 36 581 q 53 307 38 396 q 106 149 68 218 q 212 40 144 81 q 383 0 279 -1 q 479 16 435 0 q 559 59 524 32 q 621 123 594 86 q 665 201 647 160 q 713 217 690 199 q 747 264 736 236 q 752 322 758 292 q 713 371 746 351 m 793 319 q 833 280 821 303 q 846 232 846 257 q 838 188 846 210 q 817 150 831 167 q 785 122 803 133 q 749 111 768 111 q 701 31 729 68 q 635 -33 672 -6 q 553 -75 599 -60 q 453 -90 507 -90 q 286 -58 353 -92 q 178 35 219 -24 q 100 117 131 68 q 51 226 69 167 q 24 353 32 285 q 17 492 17 421 q 34 675 15 583 q 97 839 53 767 q 212 956 140 911 q 389 1001 283 1001 q 556 965 492 1001 q 660 875 621 928 q 738 792 708 840 q 782 695 767 744 q 801 601 797 646 q 803 529 804 557 q 767 450 800 481 q 688 407 733 419 q 724 389 706 399 q 755 363 743 378 q 772 331 767 347 q 783 325 778 328 q 793 319 788 322 m 393 425 q 442 437 417 432 q 493 443 468 442 q 467 486 472 464 q 414 525 435 500 q 393 586 393 550 q 389 640 393 617 q 347 558 365 617 q 328 414 329 499 l 328 360 q 351 398 335 381 q 393 425 367 415 m 399 204 q 343 244 363 213 q 351 212 347 226 q 363 185 356 197 q 386 182 376 182 q 407 183 400 182 q 402 194 404 189 q 399 204 400 199 z "},"h":{"ha":829,"x_min":19,"x_max":824,"o":"m 654 481 q 659 681 649 581 q 715 881 669 782 q 715 933 729 911 q 672 967 701 954 q 606 981 643 979 q 533 973 568 983 q 473 939 499 963 q 444 878 447 915 q 445 774 440 828 q 460 665 450 721 q 481 552 469 608 q 500 442 492 496 q 378 446 435 435 q 267 481 321 457 q 294 683 282 581 q 300 878 307 786 q 274 939 297 915 q 221 973 251 963 q 156 981 190 983 q 97 967 122 979 q 61 932 72 954 q 64 881 50 910 q 106 724 100 803 q 107 564 111 644 q 99 569 104 567 q 67 560 82 579 q 44 510 51 542 q 43 440 38 478 q 72 374 49 403 l 83 363 q 61 238 71 297 q 58 104 51 179 q 86 42 61 65 q 145 8 111 18 q 216 1 179 -1 q 281 15 253 3 q 323 49 310 28 q 322 101 336 71 q 283 200 299 151 q 261 300 268 249 q 385 291 321 292 q 506 296 449 290 q 494 199 503 247 q 463 101 485 150 q 460 50 449 72 q 496 15 471 28 q 554 1 521 3 q 618 8 588 -1 q 672 42 649 18 q 697 104 694 65 q 695 229 703 174 q 676 343 688 285 q 713 393 703 365 q 718 443 722 421 q 697 477 714 465 q 654 479 681 489 l 654 481 m 594 1003 q 692 981 649 1003 q 742 919 735 960 q 803 874 782 904 q 804 803 824 844 q 755 647 768 725 q 742 489 742 568 q 742 461 742 474 q 743 435 742 449 q 792 413 775 436 q 810 358 810 390 q 801 311 810 335 q 769 267 793 288 q 785 182 779 222 q 790 90 790 142 q 790 63 790 76 q 788 33 789 49 q 770 -23 785 0 q 734 -61 756 -46 q 686 -83 713 -76 q 633 -90 660 -90 q 547 -69 585 -90 q 503 -11 510 -49 q 442 34 463 3 q 443 110 422 65 q 474 201 463 153 l 469 201 q 411 203 439 201 q 356 207 383 204 q 377 124 363 165 q 411 40 392 83 q 418 -15 425 10 q 390 -56 411 -39 q 339 -81 369 -72 q 274 -90 308 -90 q 178 -69 224 -90 q 114 -3 132 -49 q 61 37 82 11 q 38 103 40 63 q 35 132 36 118 q 35 158 35 146 q 42 256 35 211 q 58 346 49 301 l 60 356 q 19 471 19 408 q 40 555 19 519 q 88 592 60 590 q 88 618 88 606 q 89 644 89 631 q 80 760 89 703 q 44 872 71 817 q 36 927 31 903 q 60 968 42 951 q 107 994 79 985 q 167 1003 135 1003 q 253 982 211 1003 q 311 917 294 961 q 365 876 343 903 q 390 810 388 850 q 392 778 392 794 q 393 746 393 761 q 385 608 393 678 q 367 469 378 539 q 410 462 388 464 q 456 460 432 460 q 465 459 465 460 q 476 460 465 458 q 467 509 472 486 q 457 560 463 532 q 433 697 443 629 q 422 832 422 765 q 422 856 422 843 q 424 879 422 868 q 442 935 426 911 q 483 974 458 958 q 536 996 507 989 q 594 1003 565 1003 z "},"i":{"ha":846,"x_min":14,"x_max":826,"o":"m 663 304 q 582 251 625 271 q 494 222 539 231 q 480 332 483 275 q 476 448 476 389 q 476 569 476 507 q 469 693 475 631 q 547 639 517 667 q 627 597 590 600 q 690 616 664 594 q 728 678 717 638 q 734 763 740 718 q 699 853 728 808 q 617 932 671 899 q 615 933 615 932 q 613 933 614 933 q 449 980 533 975 q 288 959 364 985 q 149 878 211 933 q 51 747 86 824 q 44 708 43 728 q 55 674 46 688 q 80 659 64 661 q 117 676 96 657 q 213 732 161 718 q 315 740 264 746 q 312 601 318 667 q 296 476 306 536 q 278 358 286 415 q 269 246 269 301 q 211 282 236 260 q 133 329 168 322 q 74 321 97 336 q 40 274 50 306 q 39 202 31 242 q 77 122 47 163 q 161 49 107 81 q 165 47 164 49 q 329 1 244 6 q 490 22 414 -4 q 628 102 567 49 q 726 233 690 156 q 733 272 735 251 q 724 306 732 293 q 699 321 715 319 q 663 304 683 322 m 649 319 q 692 344 672 340 q 725 339 711 347 q 747 313 739 331 q 756 274 756 294 q 792 271 776 281 q 817 243 808 261 q 825 201 825 225 q 815 156 825 178 q 748 52 789 97 q 656 -25 707 7 q 546 -74 604 -57 q 426 -90 488 -90 q 219 -37 321 -90 l 224 -42 q 124 47 158 -3 q 40 142 65 92 q 14 238 14 193 q 40 319 14 286 q 111 353 67 353 q 165 340 136 353 q 225 297 193 326 q 249 279 236 286 q 257 361 251 319 q 269 444 263 403 q 283 541 276 490 q 293 644 290 592 q 200 592 242 629 q 150 569 174 569 q 110 591 125 569 q 93 640 94 613 q 81 639 89 639 q 50 650 63 639 q 31 678 38 661 q 24 716 24 696 q 32 756 24 736 q 99 859 58 814 q 192 936 140 904 q 301 985 243 968 q 421 1001 360 1001 q 633 946 526 1001 q 713 871 683 913 q 800 772 774 828 q 826 663 826 715 q 818 602 826 631 q 794 552 810 574 q 756 518 778 531 q 707 506 733 506 q 657 517 683 506 q 603 554 631 529 q 564 585 586 569 q 567 503 567 544 q 567 421 567 461 q 567 342 567 381 q 569 267 567 304 q 649 319 610 285 m 633 946 q 624 953 625 951 q 632 950 631 953 q 633 946 633 947 m 693 883 q 703 876 694 882 q 701 881 703 878 q 693 883 700 883 z "},"j":{"ha":899,"x_min":14,"x_max":881,"o":"m 783 743 q 686 874 749 819 q 547 955 624 929 q 386 976 471 981 q 222 929 301 971 q 221 928 221 929 q 219 928 221 928 q 137 850 165 896 q 101 759 108 804 q 106 674 94 714 q 144 612 118 633 q 208 593 171 590 q 288 635 244 596 q 390 701 326 671 q 524 738 453 732 l 524 496 q 493 328 522 396 q 430 242 464 261 q 367 257 396 222 q 336 394 338 292 q 314 449 336 428 q 259 481 292 471 q 188 490 226 492 q 117 476 150 489 q 60 440 83 464 q 36 381 38 415 q 38 318 35 356 q 52 238 40 281 q 85 153 64 196 q 143 77 107 111 q 232 22 179 43 q 360 0 285 0 q 528 43 460 0 q 637 156 596 86 q 695 313 678 225 q 713 489 713 400 l 713 679 q 716 676 715 678 q 719 674 717 675 q 756 656 740 654 q 781 671 772 657 q 791 705 790 685 q 783 743 792 725 m 871 683 q 880 644 879 665 q 874 606 881 624 q 855 577 868 589 q 825 565 842 565 q 815 565 819 565 q 803 568 810 565 l 803 419 q 784 236 803 328 q 722 72 765 144 q 606 -45 678 0 q 429 -90 535 -90 q 263 -54 328 -90 q 160 35 197 -18 q 81 117 110 69 q 37 215 51 165 q 18 309 22 264 q 15 382 14 354 q 33 438 17 414 q 75 478 50 463 q 132 503 100 494 q 196 511 164 511 q 213 510 204 511 q 229 508 221 510 q 164 576 186 525 q 101 633 124 590 q 78 728 78 675 q 108 845 78 786 q 211 947 139 904 q 312 985 260 972 q 415 997 364 997 q 602 956 514 997 q 751 836 690 914 q 821 767 790 806 q 872 682 851 729 l 871 683 m 429 265 q 478 347 457 288 q 503 496 500 407 l 503 626 q 428 592 463 613 q 371 550 394 571 q 317 513 343 525 q 267 501 290 501 l 264 501 q 319 472 296 490 q 351 425 342 453 q 404 386 383 411 q 426 325 425 361 q 427 293 426 308 q 429 265 428 278 z "},"k":{"ha":829,"x_min":14,"x_max":813,"o":"m 478 365 q 569 436 525 392 q 648 544 614 481 q 701 692 682 607 q 717 886 719 778 q 692 938 715 915 q 635 971 669 960 q 562 982 601 982 q 490 967 522 982 q 436 922 457 953 q 418 843 415 892 q 424 780 418 819 q 431 694 429 740 q 428 603 433 649 q 402 521 422 557 q 344 465 382 485 q 240 451 306 444 q 258 560 249 506 q 274 670 267 615 q 283 778 281 725 q 282 879 286 831 q 256 940 279 917 q 203 974 233 964 q 139 983 172 985 q 81 968 106 981 q 44 933 56 956 q 47 882 33 911 q 79 783 69 833 q 91 683 89 733 q 90 581 93 632 q 85 481 88 531 q 69 380 78 425 q 52 291 60 335 q 41 203 44 247 q 42 106 38 158 q 67 43 44 67 q 121 10 90 19 q 185 2 151 0 q 243 17 218 4 q 279 51 268 29 q 276 103 290 72 q 243 208 253 154 q 232 314 233 261 q 333 286 283 304 q 421 240 383 268 q 479 172 458 211 q 494 81 500 132 q 523 23 490 44 q 597 0 556 1 q 676 22 639 -1 q 717 97 713 44 q 703 183 721 143 q 652 256 685 222 q 574 317 619 290 q 478 365 529 344 m 565 1003 q 670 978 622 1003 q 733 913 718 954 q 785 873 765 897 q 807 817 806 849 q 795 642 810 721 q 753 503 781 564 q 690 395 726 442 q 614 317 654 349 q 658 279 638 299 q 694 238 679 260 q 781 143 749 196 q 807 26 813 90 q 792 -26 804 -4 q 760 -62 779 -49 q 718 -83 742 -76 q 671 -90 694 -90 q 592 -67 628 -90 q 546 -10 557 -44 q 494 28 514 3 q 474 83 474 53 q 456 167 478 126 q 392 198 426 185 q 322 219 358 211 q 365 42 326 129 q 374 -13 379 11 q 350 -54 368 -37 q 303 -80 332 -71 q 244 -89 275 -89 q 158 -69 200 -89 q 99 -4 117 -49 q 46 36 68 10 q 21 104 24 63 q 19 133 19 119 q 18 161 18 147 q 25 259 18 214 q 42 351 32 304 q 54 415 49 382 q 64 483 60 447 q 65 503 64 493 q 67 522 65 513 q 70 583 69 550 q 71 643 71 615 q 63 759 71 701 q 28 874 54 817 q 19 928 14 904 q 43 969 25 953 q 89 995 61 986 q 149 1004 117 1004 q 233 983 192 1004 q 293 918 274 963 q 346 878 324 904 q 372 811 368 851 q 374 784 374 800 q 374 757 374 768 q 366 628 374 694 q 349 494 358 561 q 397 567 385 521 q 410 665 410 614 q 407 728 410 696 q 401 788 404 761 q 398 816 399 801 q 397 842 397 831 q 408 915 394 885 q 446 965 422 946 q 501 994 469 985 q 565 1003 532 1003 z "},"l":{"ha":835,"x_min":15,"x_max":815,"o":"m 550 299 q 497 273 528 286 q 429 251 465 260 q 355 240 393 242 q 279 250 317 239 q 246 290 254 258 q 239 365 238 322 q 247 453 240 407 q 258 540 254 500 q 276 639 265 599 q 294 715 286 679 q 307 788 303 750 q 307 881 311 826 q 280 942 304 918 q 222 976 256 965 q 152 984 189 986 q 88 969 115 982 q 48 935 61 957 q 49 883 35 913 q 78 782 71 835 q 81 667 85 729 q 65 533 76 606 q 43 369 54 460 q 40 282 36 331 q 58 197 43 233 q 142 94 89 136 q 263 28 196 51 q 408 1 331 4 q 565 13 486 -3 q 662 71 625 33 q 714 149 699 108 q 724 231 729 190 q 698 295 719 271 q 638 324 676 319 q 550 299 600 328 m 539 317 q 632 346 590 346 q 698 324 672 346 q 736 271 724 303 q 795 223 775 258 q 815 143 815 188 q 805 81 815 113 q 772 19 794 49 q 717 -36 750 -11 q 636 -78 683 -61 q 508 -90 571 -90 q 297 -49 394 -90 q 139 72 200 -8 q 82 125 107 96 q 39 190 57 154 q 23 248 28 215 q 18 314 18 281 q 19 344 18 329 q 22 372 19 360 q 30 431 26 401 q 38 485 33 460 q 54 610 47 551 q 61 717 61 669 q 54 799 61 760 q 29 874 47 838 q 22 928 15 904 q 48 970 28 953 q 99 997 68 988 q 163 1006 129 1006 q 256 984 211 1006 q 319 918 301 963 q 373 877 351 903 q 397 813 394 851 q 399 785 399 799 q 400 761 400 772 q 393 678 400 714 q 376 607 386 643 q 361 543 369 578 q 349 468 353 508 q 347 444 347 457 q 343 421 346 432 q 333 349 338 385 q 329 282 329 313 l 329 261 l 349 261 q 457 279 406 261 q 540 317 508 297 l 539 317 z "},"m":{"ha":882,"x_min":17,"x_max":863,"o":"m 749 876 q 710 952 744 926 q 634 981 675 978 q 558 968 593 985 q 518 919 522 951 q 510 812 514 875 q 497 681 507 749 q 467 551 486 614 q 413 443 447 488 q 355 547 376 483 q 320 678 333 610 q 299 810 307 746 q 285 919 292 875 q 265 955 282 940 q 224 976 247 969 q 172 981 200 983 q 121 967 144 979 q 80 932 97 954 q 60 876 63 910 q 53 783 57 840 q 44 656 49 725 q 38 509 40 586 q 38 358 36 432 q 47 216 40 283 q 67 100 53 149 q 102 46 75 68 q 163 12 129 24 q 233 -1 197 0 q 296 10 269 -1 q 333 44 322 21 q 331 103 344 67 q 258 319 286 211 q 221 532 229 428 q 256 456 235 496 q 303 381 278 415 q 357 324 329 346 q 411 301 385 301 q 463 325 435 301 q 518 383 492 349 q 567 458 544 418 q 601 531 589 499 q 583 430 596 485 q 554 318 571 375 q 518 206 538 261 q 479 103 499 150 q 476 44 464 67 q 514 10 488 21 q 576 -1 540 -1 q 646 12 611 0 q 708 46 681 24 q 743 100 735 68 q 763 216 757 149 q 771 358 769 283 q 770 509 772 432 q 764 656 768 586 q 756 783 760 725 q 749 876 751 840 m 839 808 q 846 726 842 776 q 853 613 850 675 q 860 483 857 551 q 863 344 863 414 q 856 170 863 253 q 832 25 849 88 q 804 -24 824 -3 q 758 -60 785 -46 q 701 -83 731 -75 q 642 -90 671 -90 q 560 -71 594 -90 q 521 -14 526 -51 q 460 28 481 -3 q 460 111 440 60 q 497 214 478 154 q 481 211 486 211 q 417 236 449 211 q 357 300 386 261 q 344 309 350 304 q 332 319 339 314 q 419 42 358 185 q 429 -18 433 7 q 408 -59 425 -43 q 363 -83 390 -75 q 306 -90 336 -90 q 250 -84 278 -90 q 197 -65 222 -78 q 152 -35 172 -53 q 121 7 132 -17 q 73 44 93 22 q 46 94 53 65 l 47 94 q 23 242 29 157 q 17 421 17 328 q 19 557 17 489 q 26 685 22 625 q 33 796 29 746 q 39 878 36 846 q 56 935 42 911 q 90 974 69 958 q 136 996 111 989 q 186 1003 161 1003 q 263 982 228 1003 q 304 925 297 961 q 351 898 332 917 q 375 854 371 879 q 381 817 378 838 q 386 774 383 796 q 403 648 393 715 q 433 518 414 581 q 460 599 450 556 q 476 687 469 642 q 485 776 482 732 q 492 857 489 819 q 494 890 493 875 q 497 921 496 906 q 539 981 503 960 q 619 1003 575 1003 q 701 983 661 1003 q 760 918 742 963 q 813 878 792 904 q 839 808 835 851 z "},"n":{"ha":851,"x_min":15,"x_max":847,"o":"m 469 878 q 471 765 465 824 q 487 647 476 707 q 510 526 497 586 q 529 407 522 465 q 531 382 531 394 q 531 356 531 369 q 433 507 479 422 q 351 674 386 592 q 294 822 315 756 q 272 921 272 889 q 235 969 268 953 q 165 983 203 986 q 95 953 128 979 q 58 878 63 928 q 51 784 56 842 q 43 657 47 726 q 37 510 39 588 q 37 359 35 433 q 45 217 39 285 q 65 101 51 150 q 101 47 74 69 q 162 13 128 25 q 232 1 196 1 q 294 11 268 0 q 332 45 321 22 q 329 104 343 68 q 226 478 250 293 q 310 308 267 392 q 397 156 353 224 q 500 35 454 68 q 590 0 546 1 q 635 6 613 0 q 676 25 658 13 q 707 57 694 38 q 722 104 719 76 q 722 201 726 157 q 710 290 718 246 q 694 379 703 333 q 678 481 685 425 q 683 681 672 581 q 739 881 693 782 q 739 933 753 911 q 697 967 725 954 q 630 981 668 979 q 557 973 592 983 q 497 939 522 963 q 469 878 472 915 m 449 879 q 467 935 451 911 q 506 974 482 958 q 560 996 531 989 q 618 1003 589 1003 q 670 997 644 1003 q 716 981 696 992 q 750 954 736 969 q 767 919 764 939 q 827 874 807 904 q 828 803 847 844 q 778 647 792 725 q 765 489 765 568 q 766 451 765 469 q 768 413 767 432 q 779 342 774 375 q 792 278 785 310 q 808 185 801 231 q 814 86 814 140 q 814 60 814 74 q 813 33 814 47 q 795 -22 810 1 q 759 -61 781 -46 q 712 -83 738 -76 q 660 -90 686 -90 q 576 -65 618 -89 q 489 17 535 -42 q 435 67 463 36 q 379 144 408 99 q 378 146 378 144 q 397 96 386 121 q 418 43 407 71 q 428 -17 432 8 q 406 -58 424 -42 q 362 -81 389 -74 q 304 -89 335 -89 q 249 -83 276 -89 q 196 -64 221 -76 q 151 -33 171 -51 q 119 8 131 -15 q 72 45 92 24 q 44 96 51 67 l 46 96 q 22 244 28 158 q 15 422 15 329 q 18 558 15 490 q 24 687 21 626 q 31 797 28 747 q 38 879 35 847 q 53 936 40 913 q 87 975 67 960 q 131 997 107 990 q 178 1004 154 1004 q 251 984 218 1004 q 292 928 285 964 q 339 900 319 918 q 363 854 358 882 q 372 796 363 833 q 400 710 382 758 q 442 607 418 663 q 494 496 465 551 q 488 528 492 511 q 482 561 485 544 q 459 698 471 624 q 447 832 447 772 q 447 856 447 843 q 449 879 447 868 z "},"o":{"ha":813,"x_min":14,"x_max":799,"o":"m 324 204 q 238 267 267 221 q 202 370 208 313 q 210 488 196 428 q 256 593 225 547 q 332 662 288 639 q 431 668 376 685 q 510 606 482 651 q 544 504 538 561 q 539 387 551 447 q 498 280 526 326 q 425 210 469 233 q 324 204 381 188 m 374 979 q 228 940 290 981 q 123 830 165 899 q 58 674 81 761 q 35 494 36 586 q 53 315 33 403 q 113 157 72 226 q 215 44 153 88 q 360 0 276 1 q 513 40 447 -1 q 622 150 578 82 q 687 306 665 218 q 709 485 708 393 q 688 665 710 576 q 625 822 667 753 q 520 935 583 892 q 374 979 457 978 m 374 1000 q 512 963 451 997 q 617 871 572 929 q 697 788 663 838 q 753 678 731 738 q 788 551 776 618 q 799 417 799 485 q 776 230 799 321 q 707 67 753 139 q 592 -48 661 -4 q 429 -90 522 -92 q 294 -56 353 -89 q 193 33 236 -22 q 115 115 149 67 q 58 222 81 164 q 25 347 36 281 q 14 482 14 414 q 37 673 14 579 q 104 840 60 767 q 216 957 149 913 q 374 1000 283 1001 m 329 224 q 349 219 339 221 q 368 218 358 218 q 435 240 406 218 q 485 296 464 261 q 516 374 506 331 q 526 463 526 418 q 521 522 526 493 q 503 576 515 551 q 499 578 500 578 q 494 579 497 578 q 478 583 486 582 q 458 585 469 585 q 390 563 421 585 q 338 504 360 540 q 303 423 315 468 q 290 333 290 378 q 311 229 290 275 q 329 224 318 226 z "},"p":{"ha":849,"x_min":10,"x_max":832,"o":"m 303 394 q 310 555 306 475 q 300 711 315 635 q 371 724 335 724 q 437 710 407 724 q 488 671 467 697 q 513 606 508 644 q 503 493 521 538 q 455 424 486 449 q 383 392 424 399 q 303 394 343 386 m 414 981 q 251 949 324 981 q 129 862 179 917 q 55 733 79 807 q 38 575 31 660 q 58 528 40 546 q 97 508 75 511 q 138 515 118 504 q 164 554 157 526 q 176 593 168 575 q 194 628 183 611 q 170 501 186 567 q 140 367 154 435 q 115 233 125 300 q 111 104 106 167 q 137 42 114 65 q 190 8 160 18 q 254 1 221 -1 q 313 15 288 3 q 349 49 338 28 q 346 101 360 71 q 314 197 325 149 q 472 197 394 182 q 609 261 549 213 q 706 394 669 310 q 742 606 742 479 q 735 676 742 636 q 712 758 728 717 q 671 840 696 800 q 609 911 646 879 q 524 962 572 943 q 414 981 475 981 m 414 1001 q 569 964 506 1001 q 672 872 632 926 q 746 797 715 840 q 796 706 776 753 q 824 615 815 660 q 832 536 832 571 q 802 337 832 419 q 722 201 772 254 q 604 124 671 149 q 464 100 538 100 q 437 100 450 100 q 411 101 424 100 q 435 40 419 72 q 443 -15 449 10 q 419 -56 438 -39 q 373 -81 401 -72 q 314 -90 344 -90 q 228 -69 269 -90 q 169 -4 188 -49 q 116 36 138 10 q 90 103 94 63 q 99 264 85 176 q 132 428 114 351 q 106 452 117 438 q 89 488 94 467 q 40 516 61 494 q 17 574 19 538 q 35 740 10 663 q 113 876 61 818 q 242 968 165 935 q 414 1001 319 1001 m 492 603 q 486 625 489 617 q 440 633 465 633 q 394 628 417 633 q 403 513 403 574 q 399 418 403 465 q 472 476 443 433 q 492 603 501 519 z "},"q":{"ha":890,"x_min":15,"x_max":875,"o":"m 325 207 q 239 269 268 224 q 203 372 210 315 q 212 489 197 429 q 258 594 226 549 q 333 663 289 640 q 432 669 378 686 q 514 603 486 653 q 547 493 542 554 q 537 369 553 432 q 488 263 521 307 q 458 317 469 286 q 438 385 446 347 q 419 407 435 401 q 385 408 403 413 q 355 387 368 403 q 344 344 342 371 q 388 201 351 272 q 325 207 358 197 m 686 196 q 666 194 675 194 q 649 194 657 194 q 699 351 683 265 q 710 523 714 436 q 683 692 706 610 q 617 838 660 774 q 515 940 575 901 q 375 981 454 979 q 230 941 293 982 q 124 832 167 900 q 60 676 82 764 q 36 497 38 589 q 54 316 35 404 q 114 158 74 228 q 216 46 154 89 q 361 1 278 3 q 525 49 454 1 q 607 11 563 25 q 700 0 651 -3 q 754 17 735 1 q 781 54 774 32 q 783 102 788 76 q 764 149 778 128 q 730 183 750 169 q 686 196 710 197 m 375 1001 q 513 965 453 999 q 617 872 572 931 q 697 789 663 839 q 755 679 732 739 q 790 552 778 619 q 801 417 801 485 q 792 296 801 356 q 763 182 782 236 q 779 163 772 174 q 792 140 786 151 q 851 89 828 126 q 875 11 875 51 q 851 -58 875 -29 q 771 -90 826 -87 q 676 -80 722 -93 q 593 -46 631 -67 q 517 -78 557 -67 q 431 -89 478 -89 q 296 -54 354 -87 q 194 35 238 -21 q 116 117 150 68 q 60 224 82 165 q 26 349 38 282 q 15 483 15 415 q 38 674 15 581 q 106 841 61 768 q 219 958 151 914 q 375 1001 286 1003 m 331 226 q 343 223 336 224 q 356 221 350 222 q 324 343 328 285 q 346 409 319 388 q 401 431 372 431 q 439 420 422 431 q 458 389 456 410 q 465 361 460 376 l 471 361 q 510 350 492 361 q 523 406 518 376 q 528 463 528 435 q 504 578 528 526 q 500 579 501 579 q 496 581 499 579 q 477 585 486 583 q 458 586 468 586 q 390 564 421 586 q 338 506 360 542 q 304 426 317 471 q 292 336 292 381 q 313 232 292 278 q 331 226 319 229 z "},"r":{"ha":876,"x_min":13,"x_max":861,"o":"m 489 636 q 479 526 494 567 q 437 467 464 486 q 376 446 410 449 q 315 450 343 443 q 321 595 319 524 q 306 736 322 667 q 304 740 304 739 q 303 743 304 740 q 365 758 333 757 q 424 746 397 758 q 467 706 450 733 q 489 636 485 678 m 575 346 q 637 388 608 363 q 688 449 665 414 q 722 531 710 485 q 735 635 735 576 q 716 770 735 707 q 658 881 697 833 q 557 955 618 928 q 413 982 496 982 q 254 953 322 982 q 139 872 186 925 q 66 744 92 819 q 36 576 40 669 q 53 508 33 531 q 99 485 74 486 q 147 503 124 485 q 174 556 169 521 q 207 654 182 613 q 185 522 201 590 q 152 382 168 453 q 126 241 136 311 q 121 106 115 171 q 147 43 124 67 q 200 10 169 19 q 264 2 231 0 q 322 17 297 4 q 359 51 347 29 q 357 103 371 72 q 323 208 332 156 q 311 315 314 261 q 413 293 363 307 q 500 254 463 279 q 558 192 538 229 q 574 103 579 156 q 583 58 571 79 q 617 24 596 38 q 663 3 638 10 q 710 3 688 -3 q 749 27 733 8 q 768 81 765 46 q 758 161 772 122 q 718 233 744 200 q 655 295 692 267 q 575 346 618 324 m 413 1003 q 579 968 511 1003 q 689 874 647 933 q 792 744 760 825 q 825 565 825 663 q 788 392 825 461 q 696 283 751 324 q 731 244 715 263 q 826 137 790 197 q 858 10 861 76 q 825 -67 853 -43 q 758 -90 797 -90 q 685 -66 721 -90 q 632 -6 649 -42 q 576 40 600 10 q 553 106 553 71 q 540 175 556 146 q 476 203 511 192 q 403 221 440 214 q 415 131 406 175 q 446 42 424 86 q 454 -13 460 11 q 430 -54 449 -37 q 383 -80 411 -71 q 324 -89 354 -89 q 238 -68 279 -89 q 179 -3 197 -47 q 126 38 147 11 q 100 104 104 64 q 99 127 99 115 q 99 150 99 139 q 109 276 99 213 q 135 401 119 339 q 88 464 100 419 q 35 497 57 469 q 15 578 13 525 q 47 753 19 675 q 124 888 75 832 q 246 973 174 943 q 413 1003 318 1003 m 468 635 q 463 665 465 654 q 451 667 456 667 q 439 668 446 668 q 399 661 422 668 q 411 518 411 596 l 411 478 q 457 528 439 492 q 468 635 475 564 z "},"s":{"ha":824,"x_min":14,"x_max":807,"o":"m 532 607 q 598 587 563 578 q 662 629 633 596 q 706 712 690 663 q 714 810 722 761 q 667 902 706 860 q 549 965 629 944 q 342 967 435 993 q 184 878 250 940 q 80 730 118 817 q 38 550 42 643 q 53 426 33 468 q 113 360 72 385 q 217 316 154 335 q 361 263 279 297 q 414 221 408 243 q 392 188 419 199 q 305 187 364 178 q 163 240 246 196 q 111 238 138 253 q 70 194 85 222 q 60 131 56 165 q 100 75 64 97 q 220 19 158 38 q 340 0 282 1 q 451 12 399 -1 q 542 49 503 25 q 604 109 581 74 q 631 186 628 144 q 604 296 633 257 q 528 356 575 335 q 427 388 482 376 q 326 413 372 399 q 249 453 279 428 q 222 531 219 479 q 233 585 224 556 q 261 638 243 614 q 305 679 279 663 q 365 696 331 696 q 440 676 399 696 q 532 607 482 656 m 588 522 q 503 586 540 567 q 435 606 465 606 q 383 591 406 606 q 346 555 361 576 q 322 508 331 533 q 313 460 314 482 q 314 439 311 453 q 358 426 333 432 q 407 414 382 419 q 474 397 440 406 q 537 374 507 388 q 592 342 567 361 q 632 293 617 322 q 699 228 674 269 q 721 115 724 186 q 694 32 718 69 q 630 -33 671 -6 q 535 -75 589 -60 q 422 -90 482 -90 q 291 -72 358 -90 q 158 -12 224 -53 q 113 43 124 10 q 100 49 106 46 q 89 57 94 53 q 49 99 61 75 q 38 147 38 122 q 50 199 38 174 q 83 242 63 225 q 126 264 103 258 q 172 258 150 269 q 274 215 229 228 q 350 203 318 203 q 320 213 335 208 q 293 222 306 218 q 175 267 222 244 q 106 338 128 290 q 63 369 81 351 q 34 411 46 386 q 18 470 22 436 q 17 551 14 504 q 52 717 21 636 q 138 860 83 797 q 269 962 193 924 q 440 1000 346 1000 q 554 986 500 1000 q 647 942 610 969 q 707 878 685 914 q 782 801 757 846 q 807 710 807 756 q 793 631 807 669 q 757 561 779 592 q 707 513 735 531 q 651 494 679 494 q 618 501 635 494 q 586 522 601 507 l 588 522 z "},"t":{"ha":815,"x_min":13,"x_max":803,"o":"m 544 967 q 337 972 431 994 q 176 892 243 949 q 71 751 108 835 q 33 575 33 668 q 47 539 33 554 q 77 518 60 524 q 113 520 94 513 q 142 554 131 528 q 166 601 151 576 q 201 647 181 626 q 247 683 221 668 q 304 704 272 699 q 296 555 292 631 q 303 403 300 479 q 301 251 307 326 q 260 101 294 175 q 257 50 246 72 q 293 15 268 28 q 351 1 318 3 q 416 8 385 -1 q 469 42 447 18 q 496 104 492 65 q 489 251 501 175 q 458 402 476 326 q 424 551 440 478 q 407 690 408 624 q 528 608 464 667 q 594 589 558 579 q 658 632 629 599 q 703 714 688 665 q 710 812 718 763 q 663 903 701 861 q 544 967 625 946 m 550 988 q 649 944 611 972 q 707 882 686 917 q 781 804 760 850 q 803 710 803 758 q 789 631 803 669 q 753 563 775 593 q 704 515 732 533 q 647 497 676 497 q 615 503 632 497 q 583 524 599 510 q 540 559 563 543 q 499 586 518 575 q 516 481 504 538 q 540 372 528 425 q 576 201 560 289 q 586 33 593 114 q 569 -23 583 0 q 533 -61 554 -46 q 485 -83 511 -76 q 432 -90 458 -90 q 345 -69 383 -90 q 300 -11 307 -49 q 240 34 260 3 q 240 110 219 65 q 276 222 267 165 q 285 336 285 278 q 283 399 285 368 q 279 463 282 431 q 276 505 276 483 q 274 549 275 526 q 249 513 260 532 q 231 476 238 494 q 201 437 219 449 q 163 425 183 425 q 110 445 135 425 q 82 494 86 465 q 34 522 56 499 q 13 575 13 544 q 42 737 13 660 q 125 873 71 814 q 256 967 179 932 q 426 1003 332 1003 q 549 988 483 1003 l 550 988 z "},"u":{"ha":821,"x_min":14,"x_max":806,"o":"m 681 876 q 647 935 672 911 q 590 970 622 958 q 525 982 558 982 q 465 969 492 982 q 424 931 439 957 q 417 865 410 906 q 438 722 428 799 q 455 568 449 644 q 461 422 461 492 q 451 297 461 351 q 422 210 442 243 q 368 178 401 178 q 313 209 335 176 q 278 296 290 242 q 263 422 267 350 q 263 571 260 493 q 276 728 267 649 q 300 876 286 807 q 294 935 307 911 q 256 971 281 958 q 200 984 232 983 q 139 973 168 985 q 88 937 110 961 q 58 876 65 913 q 48 800 54 851 q 38 683 42 749 q 36 541 35 617 q 47 390 38 465 q 78 244 57 314 q 136 120 100 174 q 226 34 172 67 q 356 0 281 1 q 536 51 465 -1 q 647 185 607 103 q 701 370 686 268 q 716 570 717 472 q 703 751 715 668 q 681 876 692 833 m 769 813 q 794 680 782 767 q 806 490 806 593 q 799 353 806 424 q 775 219 792 283 q 731 97 758 154 q 660 -1 703 40 q 560 -67 618 -43 q 425 -90 501 -92 q 290 -57 346 -89 q 196 28 235 -25 q 106 128 142 67 q 50 265 71 190 q 22 422 29 340 q 14 582 14 504 q 22 763 14 682 q 38 881 31 844 q 60 933 43 910 q 99 972 76 957 q 148 996 122 988 q 199 1004 174 1004 q 273 984 239 1004 q 318 926 307 964 q 376 882 354 913 q 390 803 399 851 q 363 615 374 715 q 351 424 351 514 q 357 297 351 356 q 375 199 363 239 q 406 222 393 203 q 426 271 418 240 q 437 342 433 301 q 440 429 440 382 q 436 535 440 479 q 426 647 432 590 q 412 758 419 703 q 396 863 404 813 l 396 861 q 398 924 389 897 q 425 968 407 950 q 469 994 443 986 q 525 1003 496 1003 q 620 978 574 1003 q 690 908 667 954 q 739 869 718 893 q 769 813 760 844 z "},"v":{"ha":824,"x_min":11,"x_max":815,"o":"m 50 876 q 79 790 74 844 q 83 668 85 736 q 74 524 81 600 q 67 374 68 449 q 76 232 67 300 q 115 113 86 164 q 197 31 143 61 q 336 0 250 0 q 476 38 418 0 q 573 139 533 76 q 635 283 613 201 q 668 451 658 364 q 676 623 678 538 q 668 782 675 708 q 699 806 685 790 q 717 837 710 818 q 721 883 725 856 q 700 903 717 908 q 655 892 683 899 q 589 896 626 886 q 508 960 551 906 q 467 982 492 981 q 422 969 442 983 q 394 928 403 956 q 399 865 385 901 q 435 735 421 808 q 454 585 449 661 q 456 435 460 508 q 439 306 453 363 q 401 213 425 249 q 344 178 378 178 q 285 216 303 178 q 265 316 268 254 q 267 456 261 378 q 280 611 274 533 q 287 759 286 689 q 275 876 288 829 q 238 937 265 914 q 178 969 211 960 q 113 977 146 979 q 59 963 81 975 q 33 928 38 950 q 50 876 28 906 m 33 864 q 11 921 11 894 q 45 978 11 958 q 125 999 79 999 q 215 977 169 999 q 285 907 261 956 q 333 870 313 893 q 364 813 354 847 q 378 693 378 763 q 374 592 378 646 q 365 486 369 539 q 357 383 361 433 q 353 286 353 332 q 354 241 353 263 q 358 201 356 219 q 394 235 379 208 q 417 301 408 261 q 431 390 426 340 q 436 496 436 440 q 422 688 436 592 q 379 858 407 785 l 379 857 q 369 906 369 878 q 399 977 369 950 q 461 1004 428 1004 q 495 996 478 1004 q 525 972 513 988 l 525 974 q 582 924 557 936 q 628 911 607 911 q 672 918 651 911 q 717 925 700 926 q 742 886 735 924 l 742 888 q 740 847 746 869 l 742 849 q 787 856 769 857 q 811 817 804 854 l 811 818 q 808 770 815 792 q 790 733 801 749 q 760 701 778 715 q 765 626 763 665 q 767 544 767 588 q 760 397 767 472 q 736 251 753 322 q 692 119 719 181 q 626 11 665 57 q 531 -62 586 -35 q 406 -90 476 -90 q 260 -61 315 -90 q 172 18 204 -32 q 109 78 133 42 q 71 159 85 114 q 51 256 57 204 q 46 361 46 307 q 49 457 46 408 q 56 553 53 506 q 61 635 58 596 q 64 711 64 675 q 58 801 64 761 q 33 864 51 840 z "},"w":{"ha":1057,"x_min":13,"x_max":1038,"o":"m 925 876 q 889 934 915 911 q 830 969 863 957 q 763 981 797 981 q 702 967 728 981 q 665 929 676 954 q 667 865 654 904 q 699 734 686 807 q 717 587 711 661 q 722 442 724 513 q 710 315 719 371 q 683 226 701 260 q 639 193 665 193 q 602 217 614 193 q 586 277 590 240 q 583 359 582 314 q 586 448 583 404 q 590 528 589 492 q 589 586 592 565 q 561 650 582 625 q 515 688 540 675 q 463 700 489 700 q 419 689 436 700 q 397 656 401 678 q 413 601 393 633 q 429 547 422 585 q 439 461 436 508 q 439 365 442 414 q 428 275 436 315 q 404 209 419 235 q 367 186 389 183 q 330 226 342 188 q 312 326 318 265 q 305 463 306 388 q 302 615 304 539 q 294 760 300 692 q 276 876 289 829 q 240 937 267 914 q 180 969 213 960 q 115 977 147 979 q 60 963 82 975 q 34 928 39 950 q 51 876 29 906 q 86 790 75 844 q 103 669 97 736 q 111 526 108 601 q 119 376 114 450 q 138 234 125 301 q 177 115 151 167 q 244 31 203 63 q 350 0 286 0 q 427 19 394 0 q 483 72 460 38 q 530 19 503 39 q 600 0 557 0 q 748 51 686 1 q 850 181 810 101 q 913 359 890 261 q 942 554 935 457 q 944 737 950 651 q 925 876 939 822 m 1014 813 q 1031 715 1025 772 q 1038 593 1038 658 q 1030 444 1038 522 q 1004 290 1022 365 q 958 145 986 214 q 888 24 929 76 q 793 -59 847 -28 q 669 -90 739 -90 q 601 -75 629 -90 q 551 -32 572 -60 q 494 -74 528 -58 q 419 -90 461 -90 q 316 -64 358 -89 q 246 6 274 -39 q 167 91 196 35 q 122 219 138 147 q 99 371 106 290 q 90 531 93 451 q 85 633 88 582 q 76 727 82 683 q 60 806 69 771 q 35 864 50 842 q 13 921 13 897 q 47 978 13 958 q 126 999 81 999 q 216 976 169 999 q 286 906 263 953 q 333 868 313 892 q 365 813 354 844 q 376 752 372 785 q 383 682 381 719 q 461 721 406 721 q 535 700 497 721 q 594 636 572 679 q 647 592 624 621 q 679 519 671 564 q 681 466 682 500 q 678 392 681 432 q 674 332 675 363 q 672 271 672 301 l 672 244 q 694 338 688 278 q 701 474 701 399 q 698 572 701 521 q 687 674 694 624 q 669 772 679 725 q 647 858 660 818 q 642 920 636 893 q 665 965 647 947 q 708 992 682 983 q 764 1001 735 1001 q 862 977 813 1001 q 935 906 911 953 q 984 867 963 890 q 1014 813 1006 844 m 376 649 q 383 682 376 665 q 390 577 388 632 q 393 469 392 522 q 396 349 394 407 q 401 246 397 292 q 415 321 411 276 q 419 414 419 365 q 413 522 419 472 q 394 592 406 572 l 394 590 q 376 649 376 621 z "},"x":{"ha":821,"x_min":14,"x_max":807,"o":"m 688 165 q 622 233 654 190 q 561 319 589 275 q 513 400 533 363 q 486 454 493 438 q 519 542 497 492 q 568 642 540 592 q 628 736 596 692 q 692 806 660 781 q 717 853 718 826 q 697 904 715 879 q 648 949 679 929 q 581 975 617 969 q 512 969 546 981 q 454 922 478 958 q 403 821 418 869 q 376 719 388 772 q 333 840 357 785 q 275 929 310 894 q 211 967 246 958 q 144 971 176 976 q 85 949 111 965 q 45 910 58 932 q 35 864 32 888 q 65 821 39 840 q 144 742 115 785 q 190 654 172 700 q 220 560 208 608 q 249 467 232 513 q 215 387 232 429 q 178 302 199 344 q 133 221 158 260 q 69 154 107 182 q 41 110 43 135 q 53 64 39 86 q 95 25 68 42 q 155 3 122 8 q 221 9 188 -1 q 282 51 254 19 q 326 116 304 79 q 368 196 347 153 q 405 119 385 157 q 453 44 425 82 q 510 5 476 14 q 578 3 543 -4 q 645 28 614 10 q 694 71 676 47 q 713 120 713 94 q 688 165 714 146 m 769 113 q 804 50 804 86 q 787 0 804 25 q 742 -45 769 -25 q 682 -78 715 -65 q 615 -90 649 -90 q 556 -76 585 -90 q 506 -37 526 -62 q 493 -21 499 -29 q 482 -6 488 -12 q 436 32 454 8 q 428 42 432 38 q 421 51 425 46 q 367 -32 393 3 q 308 -76 340 -64 q 246 -89 276 -89 q 153 -62 196 -89 q 96 0 111 -36 q 41 46 63 18 q 19 103 19 74 q 28 138 19 121 q 57 171 38 156 q 142 274 110 211 q 199 401 174 338 q 213 435 207 421 q 226 468 218 450 q 213 508 219 488 q 200 553 207 529 q 172 645 188 600 q 125 732 156 690 q 122 735 125 732 q 90 774 99 751 q 73 789 82 781 q 53 804 64 797 q 24 838 33 819 q 14 874 14 856 q 27 917 14 896 q 62 956 40 939 q 112 984 83 974 q 171 994 140 994 q 233 983 203 994 q 290 944 263 972 q 322 903 310 924 q 360 875 339 893 q 374 858 367 867 q 388 839 381 850 q 408 884 396 863 q 438 933 419 906 q 492 983 461 968 q 556 999 524 999 q 655 969 607 999 q 724 899 703 939 q 783 846 760 876 q 807 783 807 815 q 799 750 807 767 q 774 719 790 733 q 713 655 743 696 q 658 567 683 614 q 611 472 632 519 q 578 388 590 425 q 597 349 583 374 q 626 296 610 325 q 664 235 643 267 q 707 175 685 203 q 725 154 719 164 q 769 113 744 131 z "},"y":{"ha":840,"x_min":14,"x_max":825,"o":"m 710 874 q 675 931 701 908 q 615 966 649 954 q 547 978 582 978 q 488 965 513 978 q 451 926 463 951 q 451 863 439 901 q 499 698 481 775 q 513 564 517 621 q 482 474 510 507 q 392 443 454 442 q 311 461 339 443 q 272 510 283 479 q 263 582 261 540 q 271 672 264 624 q 287 771 278 719 q 300 874 296 822 q 286 938 303 913 q 242 976 269 964 q 183 988 215 989 q 123 975 151 988 q 74 937 94 963 q 53 874 54 911 q 44 769 51 828 q 35 647 36 710 q 43 521 33 583 q 83 406 53 458 q 172 317 114 354 q 325 269 229 281 q 317 222 322 240 q 305 189 311 204 q 295 156 299 174 q 293 111 292 139 q 315 48 296 72 q 362 12 335 24 q 419 0 389 0 q 470 11 449 0 q 502 44 492 22 q 500 96 513 65 q 482 190 481 149 q 485 272 483 232 q 598 322 551 286 q 674 409 644 358 q 718 521 704 460 q 734 644 732 582 q 729 765 736 706 q 710 874 722 825 m 799 810 q 818 713 811 765 q 825 606 825 660 q 813 469 825 538 q 773 344 801 401 q 696 244 744 286 q 574 185 647 201 l 574 172 q 572 151 572 161 q 572 129 572 140 q 575 85 572 108 q 589 33 578 61 l 589 35 q 597 -18 601 6 q 578 -58 593 -42 q 538 -82 563 -74 q 488 -90 514 -90 q 408 -70 447 -90 q 351 -7 368 -50 q 297 35 319 7 q 272 110 275 64 q 275 163 269 143 q 288 201 281 182 q 289 204 288 201 q 205 249 240 222 q 146 311 169 276 q 81 374 107 338 q 41 451 56 410 q 20 536 26 492 q 14 625 14 581 q 17 712 14 669 q 25 790 21 754 q 29 835 28 814 q 32 875 31 857 q 47 933 33 908 q 83 975 61 958 q 131 1001 104 992 q 185 1010 157 1010 q 263 990 226 1010 q 314 929 299 969 q 371 883 349 914 q 390 803 393 851 q 383 730 388 767 q 371 657 378 693 q 358 577 364 617 q 353 507 353 538 q 353 486 353 496 q 356 467 353 476 q 372 465 364 465 q 392 464 381 464 q 470 494 447 463 q 493 579 493 525 q 475 704 493 632 q 432 856 457 776 q 426 917 421 890 q 450 963 432 944 q 494 990 468 981 q 550 999 521 999 q 649 974 600 999 q 719 903 697 950 q 769 865 747 888 q 799 810 790 842 z "},"z":{"ha":832,"x_min":15,"x_max":818,"o":"m 554 297 q 499 272 531 285 q 432 249 468 258 q 358 239 396 240 q 282 249 319 238 q 267 294 249 264 q 335 364 286 325 q 449 448 383 403 q 576 539 515 493 q 679 628 636 585 q 725 706 722 671 q 715 801 729 760 q 674 873 701 842 q 607 926 646 904 q 521 963 568 947 q 442 981 485 974 q 353 985 400 988 q 256 971 307 983 q 154 933 206 958 q 72 855 100 900 q 38 764 44 810 q 44 678 32 718 q 83 616 57 638 q 145 598 108 594 q 224 642 182 601 q 302 702 257 674 q 390 747 347 731 q 465 765 432 764 q 510 743 499 765 q 501 691 519 718 q 447 634 483 664 q 363 572 411 604 q 264 505 314 539 q 168 434 214 471 q 91 358 122 397 q 50 278 60 319 q 61 196 40 238 q 145 99 92 140 q 266 33 199 57 q 411 2 333 8 q 568 11 489 -4 q 665 69 628 32 q 717 148 701 107 q 727 229 732 189 q 701 294 722 269 q 642 322 679 318 q 554 297 604 326 m 543 315 q 635 344 594 344 q 701 323 675 344 q 739 269 726 301 q 798 222 778 257 q 818 142 818 186 q 808 79 818 111 q 775 17 797 47 q 719 -37 753 -12 q 639 -79 686 -62 q 524 -90 579 -90 q 301 -46 403 -90 q 138 78 199 -1 q 84 128 108 101 q 43 186 60 154 q 26 253 26 221 q 44 322 26 288 q 93 388 63 356 q 162 452 124 421 q 242 513 200 483 q 203 507 224 507 q 142 528 168 507 q 101 582 117 549 q 38 638 61 596 q 15 735 15 681 q 44 851 15 792 q 143 951 74 911 q 263 994 204 982 q 374 1006 321 1006 q 454 999 414 1006 q 528 982 494 993 q 628 933 583 963 q 703 860 674 904 q 787 767 756 822 q 815 635 818 711 q 788 574 813 606 q 726 508 764 542 q 641 440 688 474 q 547 372 594 406 q 464 314 503 342 q 397 263 425 286 q 478 285 440 269 q 544 315 517 300 l 543 315 m 311 561 q 363 597 338 579 q 410 631 388 614 q 357 598 382 615 q 311 561 332 581 z "},"æ":{"ha":1267,"x_min":19,"x_max":1247,"o":"m 213 329 q 227 451 215 394 q 260 548 239 507 q 310 612 281 589 q 375 635 339 635 q 438 609 410 635 q 485 536 465 583 q 516 422 506 489 q 528 272 526 356 q 469 270 506 269 q 388 277 432 271 q 298 296 344 283 q 213 329 251 308 m 1040 272 q 985 229 1017 247 q 916 199 953 211 q 840 179 879 186 q 763 172 800 172 q 747 249 751 210 q 740 331 743 289 q 807 321 776 322 q 854 324 838 319 q 914 370 896 335 q 931 442 932 406 q 912 506 931 479 q 863 528 893 533 q 738 515 783 515 q 734 629 736 572 q 721 744 732 686 q 794 733 758 743 q 861 710 829 724 q 920 678 893 696 q 968 642 947 660 q 1048 600 1011 603 q 1111 619 1085 597 q 1149 680 1138 640 q 1155 765 1161 719 q 1120 856 1149 811 q 1038 935 1092 901 q 1033 936 1035 935 q 915 976 975 965 q 796 981 854 988 q 683 951 738 974 q 582 892 628 929 q 488 955 542 932 q 363 976 435 978 q 233 942 288 975 q 142 856 179 910 q 84 733 106 803 q 52 588 63 663 q 40 436 42 513 q 42 294 39 360 q 52 177 46 228 q 64 101 58 126 q 105 28 74 54 q 168 1 136 3 q 222 23 200 -1 q 233 100 243 47 q 221 175 225 138 q 286 160 247 167 q 367 153 325 154 q 449 154 408 151 q 522 168 490 157 q 518 140 519 153 q 514 111 517 126 q 517 42 507 68 q 546 5 526 15 q 590 -1 565 -6 q 638 21 615 4 q 760 2 690 4 q 900 10 831 0 q 1028 44 969 21 q 1118 99 1088 67 q 1153 176 1149 132 q 1143 253 1157 219 q 1101 297 1129 286 q 1040 272 1074 307 m 1025 286 q 1089 319 1056 319 q 1135 300 1115 319 q 1167 249 1156 281 q 1223 208 1201 244 q 1244 126 1244 172 q 1235 69 1244 99 q 1203 15 1225 39 q 1141 -28 1179 -10 q 1056 -61 1103 -47 q 956 -82 1008 -75 q 853 -89 903 -89 q 778 -85 815 -89 q 711 -72 742 -81 q 678 -87 696 -83 q 646 -92 661 -92 q 594 -74 617 -92 q 563 -21 571 -57 q 515 3 535 -18 q 490 63 494 24 l 467 63 q 388 67 428 63 q 315 78 347 71 q 319 56 317 68 q 324 35 321 44 q 309 -60 336 -29 q 242 -90 282 -90 q 176 -69 210 -90 q 125 -10 143 -49 q 74 30 97 3 q 43 97 50 57 q 28 213 36 132 q 19 394 19 293 q 25 531 19 461 q 45 668 31 601 q 85 794 60 735 q 148 899 110 854 q 239 969 186 943 q 363 997 292 996 q 487 977 431 999 q 583 919 543 956 q 704 982 638 960 q 842 1004 771 1004 q 1049 951 947 1004 l 1044 956 q 1133 874 1103 919 q 1221 774 1194 831 q 1247 665 1247 718 q 1238 605 1247 633 q 1214 555 1229 576 q 1176 521 1199 533 q 1128 508 1154 508 q 1024 557 1079 508 q 933 615 989 588 q 817 651 876 643 q 825 543 822 600 q 841 545 832 544 q 860 549 850 546 l 858 549 q 915 535 892 556 q 947 481 938 514 q 1002 444 982 478 q 1022 368 1022 410 q 1000 286 1022 326 q 929 233 978 246 q 889 230 914 231 q 832 235 864 229 q 833 216 832 225 q 835 197 833 207 q 942 228 892 207 q 1025 286 992 250 m 507 290 q 492 436 504 372 q 461 542 481 500 q 444 544 450 544 q 353 480 389 544 q 307 314 318 415 q 401 295 354 300 q 483 290 447 290 q 498 290 497 290 q 507 290 499 289 z "},"ç":{"ha":825,"x_min":18,"x_max":807,"o":"m 417 579 q 439 524 417 546 q 494 492 461 503 q 564 483 526 482 q 635 497 601 485 q 691 533 668 510 q 715 593 714 557 q 714 655 717 617 q 700 735 711 693 q 667 820 689 778 q 610 897 646 863 q 520 952 574 931 q 392 974 467 974 q 224 931 292 974 q 115 818 156 888 q 56 661 74 749 q 40 485 39 574 q 53 316 40 397 q 96 169 65 235 q 179 58 126 103 q 315 -1 232 13 q 318 -60 315 -31 q 325 -114 321 -89 q 333 -157 329 -139 q 340 -182 338 -175 q 361 -194 347 -204 q 390 -156 375 -185 q 419 -85 406 -126 q 439 -1 432 -43 q 550 46 501 10 q 633 133 599 82 q 686 243 668 183 q 706 363 704 303 q 681 391 706 382 q 628 398 657 400 q 574 383 599 396 q 549 347 549 371 q 523 250 547 294 q 463 181 499 206 q 385 155 426 156 q 308 186 343 154 q 251 289 274 218 q 229 478 228 360 q 259 645 231 578 q 322 732 288 713 q 386 717 357 751 q 417 579 415 682 m 392 994 q 559 958 494 994 q 663 868 624 921 q 740 785 711 833 q 785 688 769 738 q 803 594 800 639 q 806 522 807 550 q 773 447 803 476 q 700 404 743 418 q 726 363 726 389 q 726 356 726 360 q 725 349 725 351 q 775 331 754 346 q 796 293 796 317 q 776 171 794 232 q 722 57 757 110 q 637 -35 686 4 q 526 -89 588 -74 q 499 -184 518 -139 q 460 -257 481 -229 q 421 -288 440 -285 q 390 -258 401 -292 q 384 -237 388 -251 q 378 -203 381 -222 q 345 -218 360 -219 q 321 -189 331 -217 q 310 -143 318 -178 q 297 -65 303 -108 q 185 29 229 -31 q 106 112 138 63 q 55 221 74 161 q 28 348 36 281 q 19 485 19 415 q 37 668 18 576 q 99 832 56 760 q 215 949 143 904 q 392 994 286 994 m 396 579 q 394 610 396 596 q 392 638 393 625 q 342 557 364 617 q 319 408 321 497 q 328 272 318 328 q 357 179 339 215 q 386 175 371 175 q 438 188 413 175 q 483 225 463 201 q 515 280 503 249 q 528 347 528 311 q 538 378 528 365 q 564 401 549 392 q 504 430 529 411 q 469 479 479 449 q 417 518 438 493 q 396 579 396 543 z "},"ø":{"ha":810,"x_min":10,"x_max":796,"o":"m 339 200 q 430 376 381 281 q 526 563 479 471 q 542 439 546 507 q 513 315 538 371 q 443 224 488 258 q 339 200 399 189 m 374 674 q 292 495 335 589 q 211 314 250 401 q 197 426 193 365 q 224 542 201 488 q 285 633 247 596 q 374 674 324 669 m 642 782 q 648 794 644 789 q 654 804 651 799 q 665 877 675 842 q 628 935 654 913 q 569 961 603 957 q 506 940 535 965 q 369 979 444 978 q 219 936 283 981 q 112 819 154 892 q 49 653 69 746 q 31 464 29 560 q 58 278 33 368 q 131 122 82 189 l 126 114 q 116 34 110 69 q 142 -17 122 -1 q 190 -25 161 -33 q 246 25 218 -17 q 298 7 271 14 q 356 0 325 0 q 503 36 439 -1 q 610 137 567 74 q 678 282 654 200 q 705 451 701 364 q 692 624 708 539 q 642 782 676 710 m 561 982 q 629 960 597 982 q 676 901 661 938 q 733 855 710 886 q 757 785 757 824 q 754 754 757 769 q 742 724 751 739 q 738 718 739 721 q 735 713 736 715 q 781 571 765 647 q 796 415 796 494 q 773 228 796 319 q 703 65 750 136 q 588 -49 657 -6 q 425 -90 518 -92 q 322 -71 369 -90 q 282 -107 303 -96 q 242 -118 261 -118 q 193 -99 214 -118 q 165 -49 172 -81 q 113 -19 133 -46 q 93 53 93 8 q 96 84 93 68 q 106 119 99 100 q 33 288 57 193 q 10 482 10 382 q 33 673 10 579 q 101 840 56 767 q 213 957 146 913 q 369 1000 281 1001 q 440 990 406 999 q 504 965 475 981 q 561 982 531 982 z "},"Œ":{"ha":1260,"x_min":14,"x_max":1246,"o":"m 324 206 q 238 269 267 222 q 202 372 208 315 q 210 489 196 429 q 256 594 225 549 q 331 663 286 640 q 429 669 375 686 q 508 608 481 653 q 544 506 536 563 q 539 388 551 449 q 498 281 526 328 q 425 212 469 235 q 324 206 381 189 m 1039 271 q 915 197 992 222 q 761 171 838 171 q 746 248 750 208 q 739 328 742 288 q 806 318 775 319 q 853 322 836 317 q 898 348 881 329 q 923 390 915 367 q 930 440 931 414 q 921 485 929 465 q 897 517 913 506 q 861 526 882 529 q 790 516 821 519 q 736 513 760 513 q 733 627 735 569 q 719 743 731 685 q 792 732 757 742 q 860 708 828 722 q 919 676 892 693 q 967 640 946 658 q 1047 597 1010 600 q 1110 616 1083 594 q 1148 678 1136 638 q 1153 763 1160 718 q 1119 853 1147 808 q 1036 932 1090 899 q 1032 933 1035 933 q 913 975 974 964 q 792 978 851 986 q 677 947 732 971 q 576 886 622 924 q 486 954 538 929 q 372 981 435 979 q 227 941 290 982 q 122 832 164 900 q 58 676 79 764 q 35 496 36 588 q 53 316 33 404 q 113 158 72 228 q 215 46 153 89 q 360 1 276 3 q 467 19 418 0 q 554 72 515 39 q 558 68 557 69 q 561 65 558 67 l 561 64 q 624 23 582 38 q 720 3 667 8 q 833 1 774 -3 q 948 18 893 6 q 1047 50 1003 31 q 1117 96 1092 69 q 1151 174 1147 129 q 1142 251 1156 218 q 1100 295 1128 285 q 1039 271 1072 306 m 1024 285 q 1088 317 1054 317 q 1134 297 1114 317 q 1165 246 1154 278 q 1222 206 1200 242 q 1243 124 1243 169 q 1233 65 1243 94 q 1201 13 1224 36 q 1140 -31 1178 -11 q 1054 -63 1101 -50 q 954 -83 1007 -76 q 851 -90 901 -90 q 716 -75 778 -90 q 621 -25 654 -60 q 533 -73 581 -56 q 429 -89 486 -90 q 294 -54 353 -87 q 193 35 236 -21 q 115 117 149 68 q 58 224 81 165 q 25 350 36 283 q 14 485 14 417 q 37 675 14 582 q 104 841 60 768 q 216 958 149 914 q 372 1001 283 1003 q 485 977 433 1000 q 578 915 538 954 q 701 980 635 957 q 840 1003 768 1003 q 1036 954 942 1003 q 1050 947 1040 954 q 1098 910 1078 931 q 1133 868 1118 890 q 1220 772 1194 826 q 1246 663 1246 717 q 1237 602 1246 631 q 1213 553 1228 574 q 1175 519 1197 532 q 1126 507 1153 507 q 1022 556 1078 507 q 930 613 986 585 q 814 650 874 642 q 819 595 817 622 q 824 540 822 568 q 839 543 831 542 q 857 547 847 544 q 913 532 890 553 q 946 478 936 511 q 1001 441 981 475 q 1021 365 1021 407 q 999 284 1021 324 q 928 232 976 244 l 928 233 q 885 228 913 228 q 831 232 858 228 q 831 213 831 222 q 833 196 832 204 q 940 227 889 206 q 1024 285 990 249 m 329 225 q 349 221 339 222 q 368 219 358 219 q 435 241 406 219 q 484 297 464 263 q 515 374 504 331 q 525 463 525 418 q 501 578 525 526 q 497 579 499 579 q 493 581 496 579 q 474 585 483 583 q 456 586 465 586 q 388 564 418 586 q 336 506 358 542 q 302 426 314 471 q 290 336 290 381 q 311 231 290 276 q 329 225 318 228 z "},"À":{"ha":832,"x_min":21,"x_max":810,"o":"m 214 331 q 228 452 217 396 q 261 549 240 508 q 311 613 282 590 q 376 636 340 636 q 440 608 411 636 q 490 531 469 579 q 520 415 510 482 q 529 274 531 349 q 472 271 508 271 q 390 277 435 271 q 299 297 346 283 q 214 331 253 310 m 364 978 q 235 944 289 976 q 144 858 181 911 q 85 734 107 804 q 53 589 64 664 q 42 438 43 514 q 44 295 40 361 q 53 178 47 229 q 65 103 60 128 q 106 30 75 56 q 169 2 138 4 q 223 24 201 0 q 235 101 244 49 q 222 176 226 139 q 288 162 249 168 q 368 154 326 156 q 451 156 410 153 q 524 169 492 158 q 519 141 521 154 q 515 113 518 128 q 526 26 504 53 q 581 0 549 -1 q 645 28 613 1 q 689 103 678 54 q 704 191 696 136 q 717 314 713 246 q 719 458 721 382 q 706 609 718 535 q 670 751 694 683 q 606 869 646 818 q 506 949 565 919 q 364 978 446 979 m 364 999 q 522 965 457 1000 q 629 871 586 929 q 717 774 682 832 q 772 645 751 715 q 801 499 793 575 q 810 349 810 422 q 807 249 810 297 q 800 160 804 201 q 790 85 796 118 q 779 29 785 51 q 726 -60 765 -29 q 647 -90 688 -90 q 594 -73 618 -90 q 564 -19 571 -56 q 516 5 536 -15 q 492 64 496 25 l 468 64 q 389 68 429 64 q 317 79 349 72 q 320 58 318 69 q 325 36 322 46 q 310 -58 338 -28 q 243 -89 283 -89 q 178 -68 211 -89 q 126 -8 144 -47 q 75 31 99 4 q 44 99 51 58 q 29 214 38 133 q 21 396 21 294 q 26 533 21 463 q 47 669 32 603 q 86 796 61 736 q 149 900 111 856 q 240 971 188 944 q 364 999 293 997 m 508 292 q 496 434 508 369 q 461 543 483 499 q 446 546 453 546 q 355 481 390 546 q 308 315 319 417 q 401 297 356 303 q 483 292 447 292 q 499 291 499 292 q 508 292 500 290 m 586 1097 q 597 1075 604 1088 q 567 1051 590 1063 q 506 1033 543 1040 q 425 1025 468 1025 q 351 1033 386 1025 q 296 1057 317 1040 q 226 1085 253 1064 q 203 1142 199 1106 q 233 1192 210 1178 q 288 1206 256 1206 q 366 1191 324 1206 q 444 1160 408 1176 q 492 1142 469 1151 q 535 1123 515 1132 q 567 1106 554 1114 q 586 1097 581 1099 m 507 1107 q 478 1122 500 1110 q 426 1147 457 1133 q 363 1171 396 1160 q 300 1184 329 1182 q 249 1176 271 1186 q 224 1138 228 1167 q 242 1097 219 1111 q 299 1076 264 1082 q 374 1073 333 1071 q 448 1081 415 1075 q 499 1094 481 1086 q 507 1107 518 1101 z "},"Á":{"ha":832,"x_min":21,"x_max":810,"o":"m 214 331 q 228 452 217 396 q 261 549 240 508 q 311 613 282 590 q 376 636 340 636 q 440 608 411 636 q 490 531 469 579 q 520 415 510 482 q 529 274 531 349 q 472 271 508 271 q 390 277 435 271 q 299 297 346 283 q 214 331 253 310 m 364 978 q 235 944 289 976 q 144 858 181 911 q 85 734 107 804 q 53 589 64 664 q 42 438 43 514 q 44 295 40 361 q 53 178 47 229 q 65 103 60 128 q 106 30 75 56 q 169 2 138 4 q 223 24 201 0 q 235 101 244 49 q 222 176 226 139 q 288 162 249 168 q 368 154 326 156 q 451 156 410 153 q 524 169 492 158 q 519 141 521 154 q 515 113 518 128 q 526 26 504 53 q 581 0 549 -1 q 645 28 613 1 q 689 103 678 54 q 704 191 696 136 q 717 314 713 246 q 719 458 721 382 q 706 609 718 535 q 670 751 694 683 q 606 869 646 818 q 506 949 565 919 q 364 978 446 979 m 364 999 q 522 965 457 1000 q 629 871 586 929 q 717 774 682 832 q 772 645 751 715 q 801 499 793 575 q 810 349 810 422 q 807 249 810 297 q 800 160 804 201 q 790 85 796 118 q 779 29 785 51 q 726 -60 765 -29 q 647 -90 688 -90 q 594 -73 618 -90 q 564 -19 571 -56 q 516 5 536 -15 q 492 64 496 25 l 468 64 q 389 68 429 64 q 317 79 349 72 q 320 58 318 69 q 325 36 322 46 q 310 -58 338 -28 q 243 -89 283 -89 q 178 -68 211 -89 q 126 -8 144 -47 q 75 31 99 4 q 44 99 51 58 q 29 214 38 133 q 21 396 21 294 q 26 533 21 463 q 47 669 32 603 q 86 796 61 736 q 149 900 111 856 q 240 971 188 944 q 364 999 293 997 m 508 292 q 496 434 508 369 q 461 543 483 499 q 446 546 453 546 q 355 481 390 546 q 308 315 319 417 q 401 297 356 303 q 483 292 447 292 q 499 291 499 292 q 508 292 500 290 m 247 1104 q 255 1091 236 1099 q 306 1078 274 1083 q 380 1070 339 1072 q 456 1074 421 1068 q 513 1094 490 1079 q 531 1135 535 1108 q 505 1174 526 1164 q 454 1181 483 1183 q 392 1168 425 1179 q 328 1144 358 1157 q 275 1119 297 1131 q 247 1104 253 1107 m 238 1122 q 269 1139 244 1126 q 328 1166 294 1151 q 399 1192 361 1181 q 467 1203 436 1203 q 536 1175 514 1203 q 591 1161 568 1175 q 621 1111 614 1147 q 612 1070 624 1088 q 578 1042 600 1053 q 527 1027 556 1032 q 468 1022 499 1022 q 370 1033 414 1022 q 307 1060 326 1044 q 235 1089 257 1071 q 238 1122 213 1107 z "},"Â":{"ha":832,"x_min":21,"x_max":810,"o":"m 214 331 q 228 452 217 396 q 261 549 240 508 q 311 613 282 590 q 376 636 340 636 q 440 608 411 636 q 490 531 469 579 q 520 415 510 482 q 529 274 531 349 q 472 271 508 271 q 390 277 435 271 q 299 297 346 283 q 214 331 253 310 m 364 978 q 235 944 289 976 q 144 858 181 911 q 85 734 107 804 q 53 589 64 664 q 42 438 43 514 q 44 295 40 361 q 53 178 47 229 q 65 103 60 128 q 106 30 75 56 q 169 2 138 4 q 223 24 201 0 q 235 101 244 49 q 222 176 226 139 q 288 162 249 168 q 368 154 326 156 q 451 156 410 153 q 524 169 492 158 q 519 141 521 154 q 515 113 518 128 q 526 26 504 53 q 581 0 549 -1 q 645 28 613 1 q 689 103 678 54 q 704 191 696 136 q 717 314 713 246 q 719 458 721 382 q 706 609 718 535 q 670 751 694 683 q 606 869 646 818 q 506 949 565 919 q 364 978 446 979 m 364 999 q 522 965 457 1000 q 629 871 586 929 q 717 774 682 832 q 772 645 751 715 q 801 499 793 575 q 810 349 810 422 q 807 249 810 297 q 800 160 804 201 q 790 85 796 118 q 779 29 785 51 q 726 -60 765 -29 q 647 -90 688 -90 q 594 -73 618 -90 q 564 -19 571 -56 q 516 5 536 -15 q 492 64 496 25 l 468 64 q 389 68 429 64 q 317 79 349 72 q 320 58 318 69 q 325 36 322 46 q 310 -58 338 -28 q 243 -89 283 -89 q 178 -68 211 -89 q 126 -8 144 -47 q 75 31 99 4 q 44 99 51 58 q 29 214 38 133 q 21 396 21 294 q 26 533 21 463 q 47 669 32 603 q 86 796 61 736 q 149 900 111 856 q 240 971 188 944 q 364 999 293 997 m 508 292 q 496 434 508 369 q 461 543 483 499 q 446 546 453 546 q 355 481 390 546 q 308 315 319 417 q 401 297 356 303 q 483 292 447 292 q 499 291 499 292 q 508 292 500 290 m 382 1179 q 348 1167 371 1179 q 301 1137 325 1154 q 260 1101 278 1119 q 244 1071 243 1083 q 264 1065 244 1065 q 308 1067 283 1064 q 354 1074 332 1069 q 382 1086 376 1079 q 419 1074 396 1079 q 465 1066 443 1069 q 503 1063 488 1063 q 519 1071 519 1064 q 502 1101 519 1083 q 462 1137 485 1119 q 416 1167 439 1154 q 382 1179 393 1179 m 451 1172 q 490 1158 464 1172 q 543 1122 517 1143 q 590 1079 569 1101 q 610 1043 610 1057 q 592 1027 610 1032 q 549 1022 574 1022 q 496 1026 524 1022 q 450 1036 468 1029 q 407 1028 433 1031 q 356 1027 381 1026 q 312 1031 331 1028 q 293 1042 293 1035 q 296 1054 293 1050 q 246 1058 268 1054 q 224 1069 224 1063 q 242 1106 222 1083 q 290 1149 263 1128 q 343 1185 317 1169 q 382 1200 369 1200 q 408 1192 392 1200 q 443 1171 424 1183 q 447 1172 446 1171 q 451 1172 449 1172 z "}}}
